<svg width="36" height="35" viewBox="0 0 36 35" fill="none" xmlns="http://www.w3.org/2000/svg">
<g filter="url(#filter0_d_283_10085)">
<rect x="2" y="1" width="32" height="32" rx="16" fill="white" style="fill:white;fill-opacity:1;"/>
<path d="M21.9987 10.2637C21.95 10.2674 21.9107 10.2932 21.8645 10.3309C21.8044 10.383 21.7433 10.4448 21.6859 10.5029C21.5272 10.6686 21.3902 10.8431 21.2524 11.0198C21.1405 11.1633 21.0037 11.2877 20.8716 11.4224C20.7369 11.5609 20.5965 11.6666 20.4416 11.7767C20.1659 11.9579 19.8608 12.0915 19.5483 12.1951C19.4526 12.2252 19.3566 12.2526 19.2592 12.2767C19.1334 12.3022 18.9786 12.3348 18.8811 12.4176C18.8553 12.4414 18.8386 12.4558 18.8359 12.4839C18.8065 14.0495 18.8978 18.0413 18.7947 18.6823C18.7589 18.8961 18.7126 19.1084 18.6114 19.3014C18.5275 19.4677 18.4355 19.6352 18.3064 19.7715C18.1288 19.9533 17.8837 20.0717 17.6321 20.0991C17.5171 20.107 17.4017 20.0868 17.2891 20.0664C17.188 20.0509 17.095 20.0201 17.0016 19.9822C16.7407 19.866 16.4978 19.7126 16.2469 19.5772C16.1071 19.5031 15.9572 19.4506 15.8114 19.3904C15.6846 19.3419 15.5556 19.3052 15.4225 19.2767C15.3278 19.2542 15.2336 19.2311 15.135 19.2241C14.9842 19.2137 14.8387 19.1866 14.6897 19.1873C14.5191 19.2027 14.347 19.2154 14.177 19.2402C13.9749 19.283 13.7696 19.3278 13.5776 19.4046C13.2819 19.5233 13.0023 19.6849 12.7515 19.8813C12.6127 19.9987 12.4783 20.1384 12.3537 20.2712C12.1948 20.4568 12.0658 20.6587 11.9583 20.8774C11.8429 21.1038 11.7502 21.3409 11.6988 21.5905C11.6697 21.7005 11.6519 21.8168 11.6376 21.9319C11.6157 22.0811 11.5988 22.2122 11.6024 22.3673C11.5954 22.5823 11.6358 22.7728 11.6602 22.9826C11.7348 23.4365 11.8933 23.8748 12.1172 24.2765C12.2348 24.4788 12.3761 24.6725 12.5209 24.8563C12.5738 24.9272 12.6421 25.004 12.7079 25.0716C12.8464 25.2112 12.9909 25.3605 13.1487 25.4737C13.4092 25.6835 13.6942 25.8637 13.9972 26.0043C14.268 26.1464 14.5501 26.2661 14.8452 26.348C15.1275 26.4317 15.4185 26.4933 15.7089 26.543C15.8728 26.5576 16.0138 26.5851 16.1766 26.5983C16.3723 26.6029 16.7351 26.5966 16.9434 26.5991C17.0224 26.5977 17.0876 26.5919 17.1598 26.5793C17.2587 26.5664 17.3605 26.5554 17.4598 26.5437C17.6342 26.5138 17.8091 26.4816 17.9806 26.4428C18.2622 26.3797 18.5401 26.3053 18.8067 26.1948C19.0992 26.0771 19.3939 25.9615 19.6647 25.7986C19.8416 25.6961 20.0163 25.5889 20.1861 25.4748C20.3384 25.3642 20.4879 25.2512 20.6345 25.1306C20.7197 25.0586 20.8074 24.9711 20.8902 24.8998C20.9793 24.8246 21.0578 24.7532 21.1323 24.6602C21.2155 24.559 21.3298 24.4523 21.4152 24.3494C21.5141 24.2214 21.6116 24.0963 21.7075 23.9657C21.7804 23.8583 21.853 23.7505 21.9216 23.6409C22.1211 23.3233 22.2891 22.9874 22.437 22.6437C22.5861 22.2767 22.6948 21.8945 22.7844 21.5088C22.8387 21.2585 22.8719 21.0035 22.9028 20.7499C22.9293 20.6458 22.9178 20.5666 22.9202 20.4631C22.9181 19.473 22.9217 18.4475 22.9202 17.4974C22.9207 15.8776 22.9199 14.1561 22.9202 12.5386C22.917 12.2654 22.9284 12.0049 22.9134 11.7315C22.8842 11.4276 22.768 11.1382 22.624 10.8713C22.5646 10.767 22.4976 10.6689 22.4216 10.576C22.3158 10.445 22.1871 10.2525 22.0007 10.2642H21.999L21.9987 10.2637Z" fill="#006AFF" style="fill:#006AFF;fill:color(display-p3 0.0000 0.4157 1.0000);fill-opacity:1;"/>
<path d="M21.9987 10.2637C21.95 10.2674 21.9107 10.2932 21.8645 10.3309C21.8044 10.383 21.7433 10.4448 21.6859 10.5029C21.5272 10.6686 21.3902 10.8431 21.2524 11.0198C21.1405 11.1633 21.0037 11.2877 20.8716 11.4224C20.7369 11.5609 20.5965 11.6666 20.4416 11.7767C20.1659 11.9579 19.8608 12.0915 19.5483 12.1951C19.4526 12.2252 19.3566 12.2526 19.2592 12.2767C19.1334 12.3022 18.9786 12.3348 18.8811 12.4176C18.8553 12.4414 18.8386 12.4558 18.8359 12.4839C18.8065 14.0495 18.8978 18.0413 18.7947 18.6823C18.7589 18.8961 18.7126 19.1084 18.6114 19.3014C18.5275 19.4677 18.4355 19.6352 18.3064 19.7715C18.1288 19.9533 17.8837 20.0717 17.6321 20.0991C17.5171 20.107 17.4017 20.0868 17.2891 20.0664C17.188 20.0509 17.095 20.0201 17.0016 19.9822C16.7407 19.866 16.4978 19.7126 16.2469 19.5772C16.1071 19.5031 15.9572 19.4506 15.8114 19.3904C15.6846 19.3419 15.5556 19.3052 15.4225 19.2767C15.3278 19.2542 15.2336 19.2311 15.135 19.2241C14.9842 19.2137 14.8387 19.1866 14.6897 19.1873C14.5191 19.2027 14.347 19.2154 14.177 19.2402C13.9749 19.283 13.7696 19.3278 13.5776 19.4046C13.2819 19.5233 13.0023 19.6849 12.7515 19.8813C12.6127 19.9987 12.4783 20.1384 12.3537 20.2712C12.1948 20.4568 12.0658 20.6587 11.9583 20.8774C11.8429 21.1038 11.7502 21.3409 11.6988 21.5905C11.6697 21.7005 11.6519 21.8168 11.6376 21.9319C11.6157 22.0811 11.5988 22.2122 11.6024 22.3673C11.5954 22.5823 11.6358 22.7728 11.6602 22.9826C11.7348 23.4365 11.8933 23.8748 12.1172 24.2765C12.2348 24.4788 12.3761 24.6725 12.5209 24.8563C12.5738 24.9272 12.6421 25.004 12.7079 25.0716C12.8464 25.2112 12.9909 25.3605 13.1487 25.4737C13.4092 25.6835 13.6942 25.8637 13.9972 26.0043C14.268 26.1464 14.5501 26.2661 14.8452 26.348C15.1275 26.4317 15.4185 26.4933 15.7089 26.543C15.8728 26.5576 16.0138 26.5851 16.1766 26.5983C16.3723 26.6029 16.7351 26.5966 16.9434 26.5991C17.0224 26.5977 17.0876 26.5919 17.1598 26.5793C17.2587 26.5664 17.3605 26.5554 17.4598 26.5437C17.6342 26.5138 17.8091 26.4816 17.9806 26.4428C18.2622 26.3797 18.5401 26.3053 18.8067 26.1948C19.0992 26.0771 19.3939 25.9615 19.6647 25.7986C19.8416 25.6961 20.0163 25.5889 20.1861 25.4748C20.3384 25.3642 20.4879 25.2512 20.6345 25.1306C20.7197 25.0586 20.8074 24.9711 20.8902 24.8998C20.9793 24.8246 21.0578 24.7532 21.1323 24.6602C21.2155 24.559 21.3298 24.4523 21.4152 24.3494C21.5141 24.2214 21.6116 24.0963 21.7075 23.9657C21.7804 23.8583 21.853 23.7505 21.9216 23.6409C22.1211 23.3233 22.2891 22.9874 22.437 22.6437C22.5861 22.2767 22.6948 21.8945 22.7844 21.5088C22.8387 21.2585 22.8719 21.0035 22.9028 20.7499C22.9293 20.6458 22.9178 20.5666 22.9202 20.4631C22.9181 19.473 22.9217 18.4475 22.9202 17.4974C22.9207 15.8776 22.9199 14.1561 22.9202 12.5386C22.917 12.2654 22.9284 12.0049 22.9134 11.7315C22.8842 11.4276 22.768 11.1382 22.624 10.8713C22.5646 10.767 22.4976 10.6689 22.4216 10.576C22.3158 10.445 22.1871 10.2525 22.0007 10.2642H21.999L21.9987 10.2637Z" fill="url(#paint0_linear_283_10085)" style=""/>
<path d="M21.9987 10.2637C21.95 10.2674 21.9107 10.2932 21.8645 10.3309C21.8044 10.383 21.7433 10.4448 21.6859 10.5029C21.5272 10.6686 21.3902 10.8431 21.2524 11.0198C21.1405 11.1633 21.0037 11.2877 20.8716 11.4224C20.7369 11.5609 20.5965 11.6666 20.4416 11.7767C20.1659 11.9579 19.8608 12.0915 19.5483 12.1951C19.4526 12.2252 19.3566 12.2526 19.2592 12.2767C19.1334 12.3022 18.9786 12.3348 18.8811 12.4176C18.8553 12.4414 18.8386 12.4558 18.8359 12.4839C18.8065 14.0495 18.8978 18.0413 18.7947 18.6823C18.7589 18.8961 18.7126 19.1084 18.6114 19.3014C18.5275 19.4677 18.4355 19.6352 18.3064 19.7715C18.1288 19.9533 17.8837 20.0717 17.6321 20.0991C17.5171 20.107 17.4017 20.0868 17.2891 20.0664C17.188 20.0509 17.095 20.0201 17.0016 19.9822C16.7407 19.866 16.4978 19.7126 16.2469 19.5772C16.1071 19.5031 15.9572 19.4506 15.8114 19.3904C15.6846 19.3419 15.5556 19.3052 15.4225 19.2767C15.3278 19.2542 15.2336 19.2311 15.135 19.2241C14.9842 19.2137 14.8387 19.1866 14.6897 19.1873C14.5191 19.2027 14.347 19.2154 14.177 19.2402C13.9749 19.283 13.7696 19.3278 13.5776 19.4046C13.2819 19.5233 13.0023 19.6849 12.7515 19.8813C12.6127 19.9987 12.4783 20.1384 12.3537 20.2712C12.1948 20.4568 12.0658 20.6587 11.9583 20.8774C11.8429 21.1038 11.7502 21.3409 11.6988 21.5905C11.6697 21.7005 11.6519 21.8168 11.6376 21.9319C11.6157 22.0811 11.5988 22.2122 11.6024 22.3673C11.5954 22.5823 11.6358 22.7728 11.6602 22.9826C11.7348 23.4365 11.8933 23.8748 12.1172 24.2765C12.2348 24.4788 12.3761 24.6725 12.5209 24.8563C12.5738 24.9272 12.6421 25.004 12.7079 25.0716C12.8464 25.2112 12.9909 25.3605 13.1487 25.4737C13.4092 25.6835 13.6942 25.8637 13.9972 26.0043C14.268 26.1464 14.5501 26.2661 14.8452 26.348C15.1275 26.4317 15.4185 26.4933 15.7089 26.543C15.8728 26.5576 16.0138 26.5851 16.1766 26.5983C16.3723 26.6029 16.7351 26.5966 16.9434 26.5991C17.0224 26.5977 17.0876 26.5919 17.1598 26.5793C17.2587 26.5664 17.3605 26.5554 17.4598 26.5437C17.6342 26.5138 17.8091 26.4816 17.9806 26.4428C18.2622 26.3797 18.5401 26.3053 18.8067 26.1948C19.0992 26.0771 19.3939 25.9615 19.6647 25.7986C19.8416 25.6961 20.0163 25.5889 20.1861 25.4748C20.3384 25.3642 20.4879 25.2512 20.6345 25.1306C20.7197 25.0586 20.8074 24.9711 20.8902 24.8998C20.9793 24.8246 21.0578 24.7532 21.1323 24.6602C21.2155 24.559 21.3298 24.4523 21.4152 24.3494C21.5141 24.2214 21.6116 24.0963 21.7075 23.9657C21.7804 23.8583 21.853 23.7505 21.9216 23.6409C22.1211 23.3233 22.2891 22.9874 22.437 22.6437C22.5861 22.2767 22.6948 21.8945 22.7844 21.5088C22.8387 21.2585 22.8719 21.0035 22.9028 20.7499C22.9293 20.6458 22.9178 20.5666 22.9202 20.4631C22.9181 19.473 22.9217 18.4475 22.9202 17.4974C22.9207 15.8776 22.9199 14.1561 22.9202 12.5386C22.917 12.2654 22.9284 12.0049 22.9134 11.7315C22.8842 11.4276 22.768 11.1382 22.624 10.8713C22.5646 10.767 22.4976 10.6689 22.4216 10.576C22.3158 10.445 22.1871 10.2525 22.0007 10.2642H21.999L21.9987 10.2637Z" fill="url(#paint1_linear_283_10085)" style=""/>
<path d="M22.9197 20.6064C22.919 20.6521 22.9154 20.698 22.9022 20.75C22.8713 21.0036 22.8383 21.2585 22.784 21.5088C22.6944 21.8944 22.5854 22.2767 22.4363 22.6436C22.2885 22.9872 22.1202 23.3231 21.9207 23.6406C21.8522 23.7503 21.7797 23.8584 21.7069 23.9658C21.611 24.0964 21.5138 24.2216 21.4149 24.3496C21.3295 24.4525 21.2148 24.5589 21.1317 24.6602C21.0572 24.7531 20.9784 24.8243 20.8895 24.8994C20.8066 24.9707 20.7189 25.0589 20.6336 25.1309C20.4872 25.2514 20.3376 25.364 20.1854 25.4746C20.0156 25.5887 19.8408 25.6964 19.6639 25.7988C19.3931 25.9617 19.0979 26.0767 18.8055 26.1943C18.5391 26.3048 18.2616 26.3794 17.9803 26.4424C17.8087 26.4813 17.6331 26.514 17.4588 26.5439C17.3596 26.5557 17.2578 26.5662 17.159 26.5791C17.0868 26.5916 17.0213 26.5973 16.9422 26.5986C16.7339 26.5962 16.3712 26.6033 16.1756 26.5986C16.013 26.5854 15.8717 26.5576 15.7078 26.543C15.4175 26.4932 15.1268 26.4314 14.8446 26.3477C14.6233 26.2863 14.4093 26.2039 14.202 26.1064L13.7723 25.8916C13.5522 25.7719 13.3435 25.6308 13.1483 25.4736C12.9904 25.3604 12.8454 25.211 12.7069 25.0713C12.6412 25.0038 12.5732 24.9272 12.5203 24.8564C12.3756 24.6726 12.2337 24.4786 12.116 24.2764C11.8923 23.8747 11.7336 23.4362 11.659 22.9824C11.6346 22.7727 11.5944 22.5821 11.6014 22.3672C11.5979 22.2121 11.6146 22.0808 11.6365 21.9316C11.6508 21.8168 11.669 21.7007 11.6981 21.5908C11.7495 21.3413 11.8424 21.1033 11.9578 20.877C12.0652 20.6585 12.1946 20.457 12.3533 20.2715C12.4779 20.1387 12.612 19.9982 12.7508 19.8809C13.0015 19.6846 13.2815 19.523 13.577 19.4043C13.769 19.3276 13.9745 19.283 14.1766 19.2402C14.3463 19.2155 14.5181 19.2029 14.6883 19.1875H14.6893C14.8381 19.1869 14.984 19.2133 15.1346 19.2236C15.2331 19.2307 15.3271 19.2539 15.4217 19.2764C15.5548 19.3049 15.6836 19.3421 15.8104 19.3906C15.8504 19.4071 15.8911 19.4225 15.9315 19.4385C16.0541 19.4903 16.1844 19.5507 16.3299 19.624C16.5513 19.7472 16.7691 19.8793 17.0008 19.9824C17.094 20.0202 17.187 20.0509 17.2879 20.0664C17.4004 20.0868 17.5167 20.1066 17.6317 20.0986C17.6601 20.0955 17.6884 20.0913 17.7166 20.0859C18.2248 20.0476 21.2711 19.8995 22.9197 16.0469V20.6064Z" fill="url(#paint2_radial_283_10085)" style=""/>
<mask id="mask0_283_10085" style="mask-type:alpha" maskUnits="userSpaceOnUse" x="11" y="10" width="12" height="17">
<path d="M21.9987 10.2637C21.95 10.2674 21.9107 10.2932 21.8645 10.3309C21.8044 10.383 21.7433 10.4448 21.6859 10.5029C21.5272 10.6686 21.3902 10.8431 21.2524 11.0198C21.1405 11.1633 21.0037 11.2877 20.8716 11.4224C20.7369 11.5609 20.5965 11.6666 20.4416 11.7767C20.1659 11.9579 19.8608 12.0915 19.5483 12.1951C19.4526 12.2252 19.3566 12.2526 19.2592 12.2767C19.1334 12.3022 18.9786 12.3348 18.8811 12.4176C18.8553 12.4414 18.8386 12.4558 18.8359 12.4839C18.8065 14.0495 18.8978 18.0413 18.7947 18.6823C18.7589 18.8961 18.7126 19.1084 18.6114 19.3014C18.5275 19.4677 18.4355 19.6352 18.3064 19.7715C18.1288 19.9533 17.8837 20.0717 17.6321 20.0991C17.5171 20.107 17.4017 20.0868 17.2891 20.0664C17.188 20.0509 17.095 20.0201 17.0016 19.9822C16.7407 19.866 16.4978 19.7126 16.2469 19.5772C16.1071 19.5031 15.9572 19.4506 15.8114 19.3904C15.6846 19.3419 15.5556 19.3052 15.4225 19.2767C15.3278 19.2542 15.2336 19.2311 15.135 19.2241C14.9842 19.2137 14.8387 19.1866 14.6897 19.1873C14.5191 19.2027 14.347 19.2154 14.177 19.2402C13.9749 19.283 13.7696 19.3278 13.5776 19.4046C13.2819 19.5233 13.0023 19.6849 12.7515 19.8813C12.6127 19.9987 12.4783 20.1384 12.3537 20.2712C12.1948 20.4568 12.0658 20.6587 11.9583 20.8774C11.8429 21.1038 11.7502 21.3409 11.6988 21.5905C11.6697 21.7005 11.6519 21.8168 11.6376 21.9319C11.6157 22.0811 11.5988 22.2122 11.6024 22.3673C11.5954 22.5823 11.6358 22.7728 11.6602 22.9826C11.7348 23.4365 11.8933 23.8748 12.1172 24.2765C12.2348 24.4788 12.3761 24.6725 12.5209 24.8563C12.5738 24.9272 12.6421 25.004 12.7079 25.0716C12.8464 25.2112 12.9909 25.3605 13.1487 25.4737C13.4092 25.6835 13.6942 25.8637 13.9972 26.0043C14.268 26.1464 14.5501 26.2661 14.8452 26.348C15.1275 26.4317 15.4185 26.4933 15.7089 26.543C15.8728 26.5576 16.0138 26.5851 16.1766 26.5983C16.3723 26.6029 16.7351 26.5966 16.9434 26.5991C17.0224 26.5977 17.0876 26.5919 17.1598 26.5793C17.2587 26.5664 17.3605 26.5554 17.4598 26.5437C17.6342 26.5138 17.8091 26.4816 17.9806 26.4428C18.2622 26.3797 18.5401 26.3053 18.8067 26.1948C19.0992 26.0771 19.3939 25.9615 19.6647 25.7986C19.8416 25.6961 20.0163 25.5889 20.1861 25.4748C20.3384 25.3642 20.4879 25.2512 20.6345 25.1306C20.7197 25.0586 20.8074 24.9711 20.8902 24.8998C20.9793 24.8246 21.0578 24.7532 21.1323 24.6602C21.2155 24.559 21.3298 24.4523 21.4152 24.3494C21.5141 24.2214 21.6116 24.0963 21.7075 23.9657C21.7804 23.8583 21.853 23.7505 21.9216 23.6409C22.1211 23.3233 22.2891 22.9874 22.437 22.6437C22.5861 22.2767 22.6948 21.8945 22.7844 21.5088C22.8387 21.2585 22.8719 21.0035 22.9028 20.7499C22.9293 20.6458 22.9178 20.5666 22.9202 20.4631C22.9181 19.473 22.9217 18.4475 22.9202 17.4974C22.9207 15.8776 22.9199 14.1561 22.9202 12.5386C22.917 12.2654 22.9284 12.0049 22.9134 11.7315C22.8842 11.4276 22.768 11.1382 22.624 10.8713C22.5646 10.767 22.4976 10.6689 22.4216 10.576C22.3158 10.445 22.1871 10.2525 22.0007 10.2642H21.999L21.9987 10.2637Z" fill="#006AFF" style="fill:#006AFF;fill:color(display-p3 0.0000 0.4157 1.0000);fill-opacity:1;"/>
<path d="M21.9987 10.2637C21.95 10.2674 21.9107 10.2932 21.8645 10.3309C21.8044 10.383 21.7433 10.4448 21.6859 10.5029C21.5272 10.6686 21.3902 10.8431 21.2524 11.0198C21.1405 11.1633 21.0037 11.2877 20.8716 11.4224C20.7369 11.5609 20.5965 11.6666 20.4416 11.7767C20.1659 11.9579 19.8608 12.0915 19.5483 12.1951C19.4526 12.2252 19.3566 12.2526 19.2592 12.2767C19.1334 12.3022 18.9786 12.3348 18.8811 12.4176C18.8553 12.4414 18.8386 12.4558 18.8359 12.4839C18.8065 14.0495 18.8978 18.0413 18.7947 18.6823C18.7589 18.8961 18.7126 19.1084 18.6114 19.3014C18.5275 19.4677 18.4355 19.6352 18.3064 19.7715C18.1288 19.9533 17.8837 20.0717 17.6321 20.0991C17.5171 20.107 17.4017 20.0868 17.2891 20.0664C17.188 20.0509 17.095 20.0201 17.0016 19.9822C16.7407 19.866 16.4978 19.7126 16.2469 19.5772C16.1071 19.5031 15.9572 19.4506 15.8114 19.3904C15.6846 19.3419 15.5556 19.3052 15.4225 19.2767C15.3278 19.2542 15.2336 19.2311 15.135 19.2241C14.9842 19.2137 14.8387 19.1866 14.6897 19.1873C14.5191 19.2027 14.347 19.2154 14.177 19.2402C13.9749 19.283 13.7696 19.3278 13.5776 19.4046C13.2819 19.5233 13.0023 19.6849 12.7515 19.8813C12.6127 19.9987 12.4783 20.1384 12.3537 20.2712C12.1948 20.4568 12.0658 20.6587 11.9583 20.8774C11.8429 21.1038 11.7502 21.3409 11.6988 21.5905C11.6697 21.7005 11.6519 21.8168 11.6376 21.9319C11.6157 22.0811 11.5988 22.2122 11.6024 22.3673C11.5954 22.5823 11.6358 22.7728 11.6602 22.9826C11.7348 23.4365 11.8933 23.8748 12.1172 24.2765C12.2348 24.4788 12.3761 24.6725 12.5209 24.8563C12.5738 24.9272 12.6421 25.004 12.7079 25.0716C12.8464 25.2112 12.9909 25.3605 13.1487 25.4737C13.4092 25.6835 13.6942 25.8637 13.9972 26.0043C14.268 26.1464 14.5501 26.2661 14.8452 26.348C15.1275 26.4317 15.4185 26.4933 15.7089 26.543C15.8728 26.5576 16.0138 26.5851 16.1766 26.5983C16.3723 26.6029 16.7351 26.5966 16.9434 26.5991C17.0224 26.5977 17.0876 26.5919 17.1598 26.5793C17.2587 26.5664 17.3605 26.5554 17.4598 26.5437C17.6342 26.5138 17.8091 26.4816 17.9806 26.4428C18.2622 26.3797 18.5401 26.3053 18.8067 26.1948C19.0992 26.0771 19.3939 25.9615 19.6647 25.7986C19.8416 25.6961 20.0163 25.5889 20.1861 25.4748C20.3384 25.3642 20.4879 25.2512 20.6345 25.1306C20.7197 25.0586 20.8074 24.9711 20.8902 24.8998C20.9793 24.8246 21.0578 24.7532 21.1323 24.6602C21.2155 24.559 21.3298 24.4523 21.4152 24.3494C21.5141 24.2214 21.6116 24.0963 21.7075 23.9657C21.7804 23.8583 21.853 23.7505 21.9216 23.6409C22.1211 23.3233 22.2891 22.9874 22.437 22.6437C22.5861 22.2767 22.6948 21.8945 22.7844 21.5088C22.8387 21.2585 22.8719 21.0035 22.9028 20.7499C22.9293 20.6458 22.9178 20.5666 22.9202 20.4631C22.9181 19.473 22.9217 18.4475 22.9202 17.4974C22.9207 15.8776 22.9199 14.1561 22.9202 12.5386C22.917 12.2654 22.9284 12.0049 22.9134 11.7315C22.8842 11.4276 22.768 11.1382 22.624 10.8713C22.5646 10.767 22.4976 10.6689 22.4216 10.576C22.3158 10.445 22.1871 10.2525 22.0007 10.2642H21.999L21.9987 10.2637Z" fill="url(#paint3_linear_283_10085)" style=""/>
<path d="M21.9987 10.2637C21.95 10.2674 21.9107 10.2932 21.8645 10.3309C21.8044 10.383 21.7433 10.4448 21.6859 10.5029C21.5272 10.6686 21.3902 10.8431 21.2524 11.0198C21.1405 11.1633 21.0037 11.2877 20.8716 11.4224C20.7369 11.5609 20.5965 11.6666 20.4416 11.7767C20.1659 11.9579 19.8608 12.0915 19.5483 12.1951C19.4526 12.2252 19.3566 12.2526 19.2592 12.2767C19.1334 12.3022 18.9786 12.3348 18.8811 12.4176C18.8553 12.4414 18.8386 12.4558 18.8359 12.4839C18.8065 14.0495 18.8978 18.0413 18.7947 18.6823C18.7589 18.8961 18.7126 19.1084 18.6114 19.3014C18.5275 19.4677 18.4355 19.6352 18.3064 19.7715C18.1288 19.9533 17.8837 20.0717 17.6321 20.0991C17.5171 20.107 17.4017 20.0868 17.2891 20.0664C17.188 20.0509 17.095 20.0201 17.0016 19.9822C16.7407 19.866 16.4978 19.7126 16.2469 19.5772C16.1071 19.5031 15.9572 19.4506 15.8114 19.3904C15.6846 19.3419 15.5556 19.3052 15.4225 19.2767C15.3278 19.2542 15.2336 19.2311 15.135 19.2241C14.9842 19.2137 14.8387 19.1866 14.6897 19.1873C14.5191 19.2027 14.347 19.2154 14.177 19.2402C13.9749 19.283 13.7696 19.3278 13.5776 19.4046C13.2819 19.5233 13.0023 19.6849 12.7515 19.8813C12.6127 19.9987 12.4783 20.1384 12.3537 20.2712C12.1948 20.4568 12.0658 20.6587 11.9583 20.8774C11.8429 21.1038 11.7502 21.3409 11.6988 21.5905C11.6697 21.7005 11.6519 21.8168 11.6376 21.9319C11.6157 22.0811 11.5988 22.2122 11.6024 22.3673C11.5954 22.5823 11.6358 22.7728 11.6602 22.9826C11.7348 23.4365 11.8933 23.8748 12.1172 24.2765C12.2348 24.4788 12.3761 24.6725 12.5209 24.8563C12.5738 24.9272 12.6421 25.004 12.7079 25.0716C12.8464 25.2112 12.9909 25.3605 13.1487 25.4737C13.4092 25.6835 13.6942 25.8637 13.9972 26.0043C14.268 26.1464 14.5501 26.2661 14.8452 26.348C15.1275 26.4317 15.4185 26.4933 15.7089 26.543C15.8728 26.5576 16.0138 26.5851 16.1766 26.5983C16.3723 26.6029 16.7351 26.5966 16.9434 26.5991C17.0224 26.5977 17.0876 26.5919 17.1598 26.5793C17.2587 26.5664 17.3605 26.5554 17.4598 26.5437C17.6342 26.5138 17.8091 26.4816 17.9806 26.4428C18.2622 26.3797 18.5401 26.3053 18.8067 26.1948C19.0992 26.0771 19.3939 25.9615 19.6647 25.7986C19.8416 25.6961 20.0163 25.5889 20.1861 25.4748C20.3384 25.3642 20.4879 25.2512 20.6345 25.1306C20.7197 25.0586 20.8074 24.9711 20.8902 24.8998C20.9793 24.8246 21.0578 24.7532 21.1323 24.6602C21.2155 24.559 21.3298 24.4523 21.4152 24.3494C21.5141 24.2214 21.6116 24.0963 21.7075 23.9657C21.7804 23.8583 21.853 23.7505 21.9216 23.6409C22.1211 23.3233 22.2891 22.9874 22.437 22.6437C22.5861 22.2767 22.6948 21.8945 22.7844 21.5088C22.8387 21.2585 22.8719 21.0035 22.9028 20.7499C22.9293 20.6458 22.9178 20.5666 22.9202 20.4631C22.9181 19.473 22.9217 18.4475 22.9202 17.4974C22.9207 15.8776 22.9199 14.1561 22.9202 12.5386C22.917 12.2654 22.9284 12.0049 22.9134 11.7315C22.8842 11.4276 22.768 11.1382 22.624 10.8713C22.5646 10.767 22.4976 10.6689 22.4216 10.576C22.3158 10.445 22.1871 10.2525 22.0007 10.2642H21.999L21.9987 10.2637Z" fill="url(#paint4_linear_283_10085)" style=""/>
</mask>
<g mask="url(#mask0_283_10085)">
<path d="M25.9696 25.6956C25.9297 25.6002 25.9113 25.5219 25.8488 25.4346C25.7278 25.2096 25.6043 24.9841 25.4627 24.7708C25.239 24.4442 24.9984 24.1278 24.7261 23.8402C24.4634 23.574 24.1851 23.3218 23.884 23.0987C23.7802 23.0215 23.6725 22.9475 23.5655 22.8739C23.4287 22.7872 23.2926 22.7059 23.154 22.6226C23.037 22.5578 22.8915 22.5004 22.7772 22.4364C22.6739 22.3768 22.5745 22.3383 22.4642 22.3007C22.3613 22.2644 22.2483 22.2147 22.1429 22.1787C21.9626 22.1197 21.7816 22.0696 21.5995 22.0219C21.3999 21.9775 21.1986 21.9403 20.9967 21.9093C20.6851 21.856 20.3681 21.8554 20.0529 21.8522C19.7643 21.8462 19.4782 21.878 19.193 21.9217C19.0192 21.9479 18.8448 21.9818 18.6716 22.0173C18.575 22.0425 18.4762 22.0698 18.3796 22.0936C18.3078 22.1082 18.2443 22.1259 18.1702 22.1534C17.9772 22.2314 17.6371 22.3576 17.4564 22.4332C17.3097 22.5046 17.1883 22.5819 17.0409 22.6552C16.7885 22.8072 16.5391 22.9699 16.3066 23.1506C16.0616 23.3341 15.8425 23.5484 15.6421 23.7791C15.4109 24.0203 15.2112 24.2925 15.0448 24.5827C14.939 24.7455 14.8591 24.9373 14.7809 25.1177C14.7442 25.2045 14.7079 25.3008 14.6844 25.386C14.6165 25.6099 14.5557 25.842 14.5197 26.0731C14.4574 26.5286 14.4692 26.9947 14.5647 27.4446C14.6183 27.6488 14.6502 27.8411 14.7348 28.0387C14.788 28.1844 14.8514 28.3007 14.926 28.4316C14.9811 28.5334 15.0402 28.6349 15.1073 28.7267C15.2459 28.9403 15.418 29.1278 15.6077 29.2966C15.7873 29.4611 15.9813 29.6025 16.1967 29.7176C16.3609 29.7959 16.5369 29.8771 16.7087 29.936C17.0135 30.0276 17.3332 30.0763 17.6516 30.0794C17.8584 30.081 18.0664 30.0487 18.2702 30.015C18.4372 29.9763 18.6019 29.9256 18.766 29.878L18.7669 29.8776C18.9059 29.824 19.0316 29.7455 19.1682 29.681C19.2576 29.6385 19.3374 29.5825 19.4174 29.5271C19.5309 29.4522 19.6379 29.3714 19.7382 29.2802C19.767 29.2527 19.7967 29.226 19.826 29.1988C19.9247 29.103 20.0275 28.9955 20.1408 28.8693C20.3008 28.6754 20.455 28.4749 20.6318 28.2959C20.7049 28.2268 20.7803 28.1644 20.8687 28.1133C20.9661 28.0534 21.066 27.992 21.1759 27.9576C21.2042 27.95 21.2333 27.945 21.2622 27.9397C21.7563 27.7882 24.6433 26.8246 27.576 29.8091L25.9696 25.6956Z" fill="url(#paint5_radial_283_10085)" style=""/>
</g>
<path d="M20.5769 9.80423L20.5737 9.77178C20.5737 9.76691 20.5721 9.76037 20.5705 9.75073C20.5689 9.73124 20.5656 9.71175 20.5624 9.69391C20.5608 9.67929 20.5576 9.66467 20.5544 9.65005L20.5495 9.62901C20.4765 9.28665 20.2704 8.88736 19.9344 8.4411C19.691 8.11812 19.4621 7.88453 19.4508 7.87146C19.4508 7.87146 19.4379 7.86005 19.4249 7.85041C19.3876 7.82117 19.3357 7.82283 19.2983 7.85041C19.2854 7.86016 19.2724 7.87146 19.2691 7.87633C19.2447 7.9007 19.0256 8.12787 18.7887 8.4411C18.4528 8.88736 18.2451 9.28654 18.1737 9.6258L18.1688 9.6485C18.1656 9.66312 18.1623 9.67774 18.1607 9.6907C18.1575 9.7102 18.1542 9.72969 18.1526 9.74752V9.75406C18.1526 9.75893 18.151 9.76547 18.151 9.77023L18.1477 9.80589C18.1461 9.83181 18.1445 9.85939 18.1445 9.88708V9.92762C18.1445 9.94058 18.1445 9.95354 18.1462 9.96495C18.1479 9.98112 18.1494 9.99906 18.1511 10.0169L18.1543 10.0428C18.1575 10.0623 18.1608 10.0818 18.164 10.0996L18.1689 10.1207C18.1738 10.1402 18.1786 10.1597 18.1835 10.1775C18.1852 10.1856 18.1884 10.1921 18.1901 10.1985C18.1949 10.2164 18.2015 10.2342 18.2079 10.252C18.2111 10.2601 18.2144 10.2699 18.2176 10.2781C18.2242 10.2942 18.2306 10.3089 18.2371 10.3251C18.242 10.3349 18.2469 10.3462 18.2534 10.3576L18.2615 10.3754C18.2647 10.3835 18.2696 10.39 18.2729 10.3981C18.2859 10.4208 18.2973 10.4419 18.3119 10.463L18.3151 10.4696C18.3346 10.4988 18.3556 10.5281 18.38 10.5588L18.3898 10.5703C18.4125 10.5978 18.4352 10.6238 18.4627 10.6514C18.4887 10.6774 18.5162 10.7017 18.5439 10.7261L18.5569 10.7358C18.5796 10.7537 18.6023 10.7715 18.6315 10.791L18.6494 10.804C18.6737 10.8201 18.6997 10.8347 18.7306 10.8527L18.7435 10.8608C18.7516 10.8657 18.7614 10.8689 18.7711 10.8737L18.7923 10.8835C18.8101 10.8932 18.8279 10.9013 18.8474 10.9094C18.8653 10.9175 18.8831 10.924 18.9009 10.9304L18.9253 10.9402C18.935 10.9434 18.9448 10.9483 18.9545 10.9516C18.9804 10.9597 19.0065 10.9662 19.0308 10.9726L19.0455 10.9759C19.0535 10.9775 19.0601 10.9807 19.0666 10.9807C19.0942 10.9873 19.1218 10.9921 19.1445 10.9954L19.1558 10.997C19.1639 10.9987 19.1736 11.0002 19.1834 11.0019C19.2077 11.0051 19.2304 11.0068 19.2548 11.0084L19.2678 11.0101C19.2792 11.0117 19.2905 11.0117 19.3034 11.0133H19.4251C19.4366 11.0133 19.4479 11.0116 19.4593 11.0101L19.4722 11.0084C19.4966 11.0068 19.5193 11.0035 19.5437 11.0019C19.5534 11.0002 19.5615 10.9987 19.5712 10.997L19.5826 10.9954C19.607 10.9905 19.6329 10.9873 19.6605 10.9807C19.6686 10.9791 19.6767 10.9759 19.6849 10.9742L19.6962 10.971C19.7205 10.9645 19.7481 10.958 19.7725 10.9499C19.7822 10.9467 19.7936 10.9434 19.8017 10.9386L19.8261 10.9289C19.8439 10.9224 19.8618 10.9159 19.8797 10.9079C19.8992 10.8998 19.917 10.8917 19.9349 10.8819L19.9559 10.8722C19.964 10.869 19.9722 10.8641 19.9818 10.8592L20.0013 10.8478C20.0272 10.8332 20.0516 10.8186 20.0776 10.8024C20.0857 10.7975 20.0938 10.791 20.102 10.7861C20.1264 10.77 20.1491 10.752 20.1718 10.7342L20.1783 10.7293L20.1864 10.7228C20.214 10.7001 20.2416 10.6757 20.2659 10.6498L20.2708 10.6449C20.2935 10.6222 20.3162 10.5962 20.3406 10.567L20.3487 10.5556C20.373 10.5248 20.3941 10.4956 20.4136 10.4664L20.4168 10.4598C20.4314 10.4371 20.4444 10.416 20.4558 10.3949C20.4606 10.3868 20.4639 10.3786 20.4687 10.3706L20.4768 10.3559C20.4817 10.3446 20.4866 10.3349 20.4931 10.3235C20.4996 10.3072 20.5061 10.2927 20.5126 10.2764L20.5223 10.2505C20.5289 10.2327 20.5353 10.2148 20.5402 10.197L20.5467 10.1759C20.5516 10.1565 20.5565 10.1386 20.5613 10.1176L20.5662 10.0981C20.5694 10.0786 20.5743 10.0591 20.576 10.0413C20.5776 10.0347 20.5776 10.0283 20.5776 10.0218L20.5793 10.0088C20.5809 9.99264 20.5825 9.97802 20.5841 9.96173C20.5841 9.95033 20.5858 9.93737 20.5858 9.92607V9.88221C20.5809 9.86116 20.5793 9.83358 20.5777 9.80434L20.5769 9.80423Z" fill="url(#paint6_radial_283_10085)" style=""/>
<path d="M22.9388 8.08119L22.9364 8.05682C22.9364 8.05317 22.9352 8.04829 22.9339 8.04098C22.9327 8.02636 22.9303 8.01174 22.9279 7.99834C22.9266 7.98737 22.9242 7.97641 22.9218 7.96544L22.9181 7.94961C22.8634 7.69275 22.7088 7.39337 22.4569 7.05865C22.2744 6.81641 22.1027 6.64119 22.0942 6.63144C22.0942 6.63144 22.0844 6.62291 22.0747 6.6156C22.0466 6.59367 22.0078 6.59489 21.9797 6.6156C21.97 6.62291 21.9602 6.63144 21.9578 6.6351C21.9395 6.65337 21.7753 6.82372 21.5975 7.05865C21.3455 7.39337 21.1898 7.69275 21.1362 7.94717L21.1325 7.96423C21.1301 7.97519 21.1277 7.98616 21.1264 7.9959C21.124 8.01052 21.1216 8.02514 21.1204 8.03855V8.04342C21.1204 8.04707 21.1191 8.05195 21.1191 8.0556L21.1167 8.08241C21.1155 8.1019 21.1143 8.12261 21.1143 8.14322V8.17367C21.1143 8.18342 21.1143 8.19317 21.1155 8.2017C21.1167 8.21388 21.1179 8.22728 21.1191 8.24068L21.1216 8.26018C21.124 8.2748 21.1264 8.28942 21.1289 8.30282L21.1325 8.31866C21.1362 8.33328 21.1398 8.3479 21.1435 8.3613C21.1447 8.36739 21.1472 8.37227 21.1484 8.37714C21.152 8.39054 21.1569 8.40395 21.1618 8.41735C21.1642 8.42344 21.1666 8.43075 21.1691 8.43684C21.174 8.44903 21.1788 8.45999 21.1837 8.47217C21.1874 8.47948 21.191 8.48801 21.1959 8.49654L21.202 8.50994C21.2044 8.51604 21.2081 8.52091 21.2105 8.527C21.2203 8.54406 21.2288 8.5599 21.2397 8.57574L21.2422 8.58061C21.2568 8.60254 21.2726 8.62447 21.2909 8.64751L21.2982 8.65604C21.3153 8.67675 21.3323 8.69624 21.3531 8.71684C21.3726 8.73634 21.3933 8.75461 21.4139 8.77278L21.4236 8.78009C21.4407 8.79349 21.4577 8.80689 21.4795 8.82151L21.4929 8.83126C21.5112 8.84344 21.5307 8.85441 21.5538 8.86781L21.5635 8.8739C21.5696 8.87756 21.5769 8.88 21.5842 8.88365L21.6001 8.89096C21.6135 8.89827 21.6269 8.90436 21.6415 8.91045C21.6549 8.91655 21.6683 8.92142 21.6817 8.92629L21.7 8.9336C21.7073 8.93604 21.7146 8.9397 21.7219 8.94213C21.7414 8.94822 21.7609 8.9531 21.779 8.95797L21.79 8.96041C21.7961 8.96163 21.801 8.96406 21.8058 8.96406C21.8266 8.96894 21.8473 8.97259 21.8643 8.97503L21.8729 8.97625C21.879 8.97746 21.8863 8.97868 21.8936 8.9799C21.9118 8.98234 21.9289 8.98356 21.9471 8.98477L21.9568 8.98599C21.9653 8.98721 21.9739 8.98721 21.9836 8.98843H22.0749C22.0834 8.98843 22.0919 8.98721 22.1005 8.98599L22.1102 8.98477C22.1285 8.98356 22.1456 8.98112 22.1637 8.9799C22.171 8.97868 22.1771 8.97746 22.1844 8.97625L22.193 8.97503C22.2112 8.97137 22.2307 8.96894 22.2513 8.96406C22.2574 8.96284 22.2635 8.96041 22.2696 8.95919L22.2781 8.95675C22.2964 8.95188 22.3171 8.94701 22.3353 8.94091C22.3426 8.93848 22.3511 8.93604 22.3572 8.93239L22.3755 8.92507C22.3889 8.9202 22.4023 8.91533 22.4157 8.90924C22.4303 8.90314 22.4437 8.89705 22.4571 8.88974L22.473 8.88243C22.4791 8.88 22.4851 8.87634 22.4925 8.87269L22.5071 8.86416C22.5266 8.85319 22.5448 8.84223 22.5643 8.83004C22.5704 8.82639 22.5765 8.82151 22.5826 8.81786C22.6009 8.80567 22.6179 8.79227 22.6349 8.77887L22.6398 8.77522L22.6459 8.77034C22.6666 8.75329 22.6872 8.73501 22.7054 8.71552L22.7091 8.71186C22.7262 8.6948 22.7432 8.67531 22.7615 8.65349L22.7676 8.64496C22.7859 8.62181 22.8016 8.59988 22.8162 8.57806L22.8186 8.57319C22.8296 8.55613 22.8394 8.54029 22.8479 8.52445C22.8515 8.51836 22.854 8.51227 22.8576 8.50618L22.8637 8.49521C22.8674 8.48668 22.871 8.47937 22.8759 8.47085C22.8808 8.45866 22.8857 8.4477 22.8905 8.43551L22.8977 8.41602C22.9026 8.40262 22.9075 8.38921 22.9111 8.37581L22.916 8.35997C22.9197 8.34535 22.9233 8.33195 22.927 8.31611L22.9306 8.30149C22.9331 8.28687 22.9367 8.27225 22.9379 8.25885C22.9392 8.25398 22.9392 8.2491 22.9392 8.24423L22.9404 8.23448C22.9416 8.2223 22.9428 8.21133 22.944 8.19915C22.944 8.19062 22.9452 8.18087 22.9452 8.17235V8.13945C22.9416 8.12361 22.9404 8.1029 22.9392 8.08108L22.9388 8.08119Z" fill="url(#paint7_radial_283_10085)" style=""/>
</g>
<defs>
<filter id="filter0_d_283_10085" x="0.8" y="0.2" width="34.4" height="34.4" filterUnits="userSpaceOnUse" color-interpolation-filters="sRGB">
<feFlood flood-opacity="0" result="BackgroundImageFix"/>
<feColorMatrix in="SourceAlpha" type="matrix" values="0 0 0 0 0 0 0 0 0 0 0 0 0 0 0 0 0 0 127 0" result="hardAlpha"/>
<feOffset dy="0.4"/>
<feGaussianBlur stdDeviation="0.6"/>
<feComposite in2="hardAlpha" operator="out"/>
<feColorMatrix type="matrix" values="0 0 0 0 0.0980392 0 0 0 0 0.129412 0 0 0 0 0.239216 0 0 0 0.1 0"/>
<feBlend mode="normal" in2="BackgroundImageFix" result="effect1_dropShadow_283_10085"/>
<feBlend mode="normal" in="SourceGraphic" in2="effect1_dropShadow_283_10085" result="shape"/>
</filter>
<linearGradient id="paint0_linear_283_10085" x1="21.2792" y1="25.8768" x2="9.71796" y2="18.7385" gradientUnits="userSpaceOnUse">
<stop stop-color="#3370FF" style="stop-color:#3370FF;stop-color:color(display-p3 0.2000 0.4392 1.0000);stop-opacity:1;"/>
<stop offset="1" stop-color="#749AFD" style="stop-color:#749AFD;stop-color:color(display-p3 0.4549 0.6039 0.9922);stop-opacity:1;"/>
</linearGradient>
<linearGradient id="paint1_linear_283_10085" x1="21.5589" y1="27.6004" x2="27.2591" y2="12.4047" gradientUnits="userSpaceOnUse">
<stop stop-color="#D0EBFF" style="stop-color:#D0EBFF;stop-color:color(display-p3 0.8157 0.9216 1.0000);stop-opacity:1;"/>
<stop offset="1" stop-color="#0075FF" style="stop-color:#0075FF;stop-color:color(display-p3 0.0000 0.4588 1.0000);stop-opacity:1;"/>
</linearGradient>
<radialGradient id="paint2_radial_283_10085" cx="0" cy="0" r="1" gradientUnits="userSpaceOnUse" gradientTransform="translate(18.4755 20.0352) rotate(90) scale(6.56505 7.32047)">
<stop stop-color="#006AFF" style="stop-color:#006AFF;stop-color:color(display-p3 0.0000 0.4157 1.0000);stop-opacity:1;"/>
<stop offset="1" stop-color="#6DA3FF" style="stop-color:#6DA3FF;stop-color:color(display-p3 0.4291 0.6385 1.0000);stop-opacity:1;"/>
</radialGradient>
<linearGradient id="paint3_linear_283_10085" x1="21.2792" y1="25.8768" x2="9.71796" y2="18.7385" gradientUnits="userSpaceOnUse">
<stop stop-color="#3370FF" style="stop-color:#3370FF;stop-color:color(display-p3 0.2000 0.4392 1.0000);stop-opacity:1;"/>
<stop offset="1" stop-color="#749AFD" style="stop-color:#749AFD;stop-color:color(display-p3 0.4549 0.6039 0.9922);stop-opacity:1;"/>
</linearGradient>
<linearGradient id="paint4_linear_283_10085" x1="21.5589" y1="27.6004" x2="27.2591" y2="12.4047" gradientUnits="userSpaceOnUse">
<stop stop-color="#D0EBFF" style="stop-color:#D0EBFF;stop-color:color(display-p3 0.8157 0.9216 1.0000);stop-opacity:1;"/>
<stop offset="1" stop-color="#0075FF" style="stop-color:#0075FF;stop-color:color(display-p3 0.0000 0.4588 1.0000);stop-opacity:1;"/>
</linearGradient>
<radialGradient id="paint5_radial_283_10085" cx="0" cy="0" r="1" gradientUnits="userSpaceOnUse" gradientTransform="translate(22.3823 28.7904) rotate(-111.156) scale(7.71543 8.60264)">
<stop stop-color="#8DBCFF" style="stop-color:#8DBCFF;stop-color:color(display-p3 0.5512 0.7378 1.0000);stop-opacity:1;"/>
<stop offset="1" stop-color="#6DA3FF" style="stop-color:#6DA3FF;stop-color:color(display-p3 0.4291 0.6385 1.0000);stop-opacity:1;"/>
</radialGradient>
<radialGradient id="paint6_radial_283_10085" cx="0" cy="0" r="1" gradientUnits="userSpaceOnUse" gradientTransform="translate(19.3666 10.9143) rotate(-90) scale(3.38928 8.03749)">
<stop stop-color="#0075FF" style="stop-color:#0075FF;stop-color:color(display-p3 0.0000 0.4588 1.0000);stop-opacity:1;"/>
<stop offset="1" stop-color="#D0FDFF" style="stop-color:#D0FDFF;stop-color:color(display-p3 0.8157 0.9939 1.0000);stop-opacity:1;"/>
</radialGradient>
<radialGradient id="paint7_radial_283_10085" cx="0" cy="0" r="1" gradientUnits="userSpaceOnUse" gradientTransform="translate(22.0309 8.91419) rotate(-90) scale(2.54268 6.02821)">
<stop stop-color="#0075FF" style="stop-color:#0075FF;stop-color:color(display-p3 0.0000 0.4588 1.0000);stop-opacity:1;"/>
<stop offset="1" stop-color="#D0FDFF" style="stop-color:#D0FDFF;stop-color:color(display-p3 0.8157 0.9939 1.0000);stop-opacity:1;"/>
</radialGradient>
</defs>
</svg>
