<svg width="154" height="72" viewBox="0 0 154 72" fill="none" xmlns="http://www.w3.org/2000/svg">
  <g filter="url(#filter0_d_651_10026)">
    <mask id="path-1-outside-1_651_10026" maskUnits="userSpaceOnUse" x="17.7078" y="18.023"
      width="118.681" height="35.171" fill="black">
      <rect fill="white" x="17.7078" y="18.023" width="118.681" height="35.171" />
      <path
        d="M38.0465 50.8446C38.0331 50.188 38.0116 49.4659 37.9821 48.678C37.9525 47.8902 37.9054 47.0805 37.8406 46.2489C37.803 45.3954 37.743 44.5419 37.6606 43.6884C37.6006 42.835 37.5334 42.0143 37.4591 41.2265C36.3519 42.9116 35.1982 44.5529 33.9981 46.1504C32.798 47.748 31.5603 49.3127 30.2849 50.8446H23.5313C26.5987 47.6714 29.3436 44.334 31.7659 40.8326C34.193 37.3092 36.3304 33.6764 38.1781 29.9343H28.4005L29.3827 25.4371H40.2355C40.5596 24.6711 40.8613 23.9052 41.1406 23.1392C41.4423 22.3733 41.7327 21.6073 42.012 20.8414H47.4552C47.1983 21.6073 46.9303 22.3733 46.651 23.1392C46.3941 23.9052 46.1148 24.6711 45.8131 25.4371H59.7235L58.7413 29.9343H43.8565C42.9751 31.8163 42.0224 33.6655 40.9985 35.4819C39.9746 37.2983 38.8771 39.0928 37.706 40.8654H42.5444C42.6474 41.5219 42.7449 42.255 42.8368 43.0648C42.9288 43.8745 43.0136 44.717 43.0912 45.5924C43.1736 46.4459 43.24 47.3212 43.2904 48.2185C43.3409 49.1157 43.3849 49.9911 43.4225 50.8446H38.0465ZM48.1601 50.8446C47.6423 49.7285 47.1386 48.3935 46.6492 46.8398C46.1869 45.2641 45.7549 43.6009 45.3533 41.8502C44.974 40.0994 44.6356 38.3159 44.3379 36.4995C44.0626 34.6831 43.8666 32.9652 43.7499 31.3458H48.9243C49.3751 34.4096 50.0501 37.6265 50.9493 40.9967C51.8532 44.345 53.0067 47.6276 54.4097 50.8446H48.1601ZM73.3302 38.6004C73.8434 38.097 74.4276 37.4734 75.0829 36.7293C75.7654 35.9633 76.4694 35.0989 77.1949 34.136H74.4733L75.2045 30.7877H79.5725C79.7004 30.6127 79.8146 30.4485 79.9153 30.2953C80.0159 30.1422 80.119 29.978 80.2244 29.803H76.4276L77.0944 26.7501H82L82.5461 25.634H76.6661L77.3974 22.2857H84.0502L84.5672 20.8414H89.3048L88.7206 22.2857H95.5414L94.8101 25.634H87.2501L86.7376 26.7501H93.8944L93.2276 29.803H85.0628C84.9798 29.978 84.8879 30.1422 84.7873 30.2953C84.6866 30.4485 84.5836 30.6127 84.4781 30.7877H94.0205L93.2893 34.136H90.6685C90.9348 34.9676 91.2108 35.7554 91.4963 36.4995C91.7866 37.2217 92.0928 37.922 92.415 38.6004H87.6102C87.3233 37.9657 87.0658 37.2983 86.838 36.598C86.6325 35.8977 86.4085 35.077 86.1661 34.136H82.2349C81.6005 34.9895 80.9556 35.7883 80.3003 36.5323C79.6674 37.2764 79.024 37.9657 78.3702 38.6004H73.3302ZM78.6884 47.7589H71.6324L72.4067 44.2137H79.4627L79.7853 42.7365H73.5357L74.31 39.1913H80.5596L81.2192 36.1712H85.8224L85.1628 39.1913H91.4124L90.6381 42.7365H84.3885L84.0659 44.2137H91.2563L90.482 47.7589H83.2916L82.6177 50.8446H78.0145L78.6884 47.7589ZM68.2494 28.3258H64.251L65.1042 24.4195H69.1026L69.884 20.8414H73.7144L72.933 24.4195H76.293L75.4398 28.3258H72.0798L67.1617 50.8446H63.3313L68.2494 28.3258ZM59.2478 49.6957C59.7311 48.0981 60.2383 46.3911 60.7694 44.5748C61.3053 42.7365 61.8164 40.9092 62.3027 39.0928C62.8114 37.2764 63.2698 35.5366 63.6778 33.8734C64.113 32.1883 64.4716 30.7002 64.7536 29.409H67.4416C67.1979 30.5251 66.872 31.9148 66.4639 33.578C66.0783 35.2412 65.6487 37.0028 65.1753 38.863C64.7066 40.7013 64.2196 42.5724 63.7141 44.4763C63.2359 46.3583 62.7663 48.0981 62.3054 49.6957H59.2478ZM69.6296 43.8526C69.8446 42.8678 70.0724 41.7736 70.3129 40.57C70.5534 39.3663 70.7786 38.1299 70.9886 36.8606C71.2258 35.5694 71.4494 34.2892 71.6594 33.0199C71.8742 31.7288 72.0699 30.5251 72.2464 29.409H74.6656C74.521 30.4814 74.3485 31.6303 74.1481 32.8558C73.9524 34.0594 73.7383 35.2959 73.5059 36.5652C73.3007 37.8126 73.0731 39.06 72.823 40.3073C72.5954 41.5547 72.3709 42.7365 72.1496 43.8526H69.6296ZM130.521 21.4323C129.703 22.3076 128.718 23.2815 127.565 24.3538C126.439 25.4042 125.28 26.4547 124.088 27.5051C122.9 28.5337 121.735 29.5075 120.594 30.4267C119.479 31.3239 118.524 32.057 117.728 32.626L115.534 42.6708C115.061 44.8374 114.576 46.5443 114.08 47.7917C113.601 49.061 113.02 50.0786 112.338 50.8446H105.383C105.899 50.4288 106.391 49.9692 106.86 49.4659C107.323 48.9844 107.75 48.4154 108.14 47.7589C108.547 47.1243 108.906 46.4021 109.218 45.5924C109.556 44.7608 109.847 43.7869 110.091 42.6708L112.571 31.313C113.046 30.9847 113.58 30.5908 114.174 30.1312C114.794 29.6498 115.417 29.1574 116.042 28.654C116.689 28.1507 117.29 27.6583 117.843 27.1769C118.418 26.6954 118.904 26.2687 119.298 25.8966H103.002L103.977 21.4323H130.521Z" />
    </mask>
    <path
      d="M38.0465 50.8446C38.0331 50.188 38.0116 49.4659 37.9821 48.678C37.9525 47.8902 37.9054 47.0805 37.8406 46.2489C37.803 45.3954 37.743 44.5419 37.6606 43.6884C37.6006 42.835 37.5334 42.0143 37.4591 41.2265C36.3519 42.9116 35.1982 44.5529 33.9981 46.1504C32.798 47.748 31.5603 49.3127 30.2849 50.8446H23.5313C26.5987 47.6714 29.3436 44.334 31.7659 40.8326C34.193 37.3092 36.3304 33.6764 38.1781 29.9343H28.4005L29.3827 25.4371H40.2355C40.5596 24.6711 40.8613 23.9052 41.1406 23.1392C41.4423 22.3733 41.7327 21.6073 42.012 20.8414H47.4552C47.1983 21.6073 46.9303 22.3733 46.651 23.1392C46.3941 23.9052 46.1148 24.6711 45.8131 25.4371H59.7235L58.7413 29.9343H43.8565C42.9751 31.8163 42.0224 33.6655 40.9985 35.4819C39.9746 37.2983 38.8771 39.0928 37.706 40.8654H42.5444C42.6474 41.5219 42.7449 42.255 42.8368 43.0648C42.9288 43.8745 43.0136 44.717 43.0912 45.5924C43.1736 46.4459 43.24 47.3212 43.2904 48.2185C43.3409 49.1157 43.3849 49.9911 43.4225 50.8446H38.0465ZM48.1601 50.8446C47.6423 49.7285 47.1386 48.3935 46.6492 46.8398C46.1869 45.2641 45.7549 43.6009 45.3533 41.8502C44.974 40.0994 44.6356 38.3159 44.3379 36.4995C44.0626 34.6831 43.8666 32.9652 43.7499 31.3458H48.9243C49.3751 34.4096 50.0501 37.6265 50.9493 40.9967C51.8532 44.345 53.0067 47.6276 54.4097 50.8446H48.1601ZM73.3302 38.6004C73.8434 38.097 74.4276 37.4734 75.0829 36.7293C75.7654 35.9633 76.4694 35.0989 77.1949 34.136H74.4733L75.2045 30.7877H79.5725C79.7004 30.6127 79.8146 30.4485 79.9153 30.2953C80.0159 30.1422 80.119 29.978 80.2244 29.803H76.4276L77.0944 26.7501H82L82.5461 25.634H76.6661L77.3974 22.2857H84.0502L84.5672 20.8414H89.3048L88.7206 22.2857H95.5414L94.8101 25.634H87.2501L86.7376 26.7501H93.8944L93.2276 29.803H85.0628C84.9798 29.978 84.8879 30.1422 84.7873 30.2953C84.6866 30.4485 84.5836 30.6127 84.4781 30.7877H94.0205L93.2893 34.136H90.6685C90.9348 34.9676 91.2108 35.7554 91.4963 36.4995C91.7866 37.2217 92.0928 37.922 92.415 38.6004H87.6102C87.3233 37.9657 87.0658 37.2983 86.838 36.598C86.6325 35.8977 86.4085 35.077 86.1661 34.136H82.2349C81.6005 34.9895 80.9556 35.7883 80.3003 36.5323C79.6674 37.2764 79.024 37.9657 78.3702 38.6004H73.3302ZM78.6884 47.7589H71.6324L72.4067 44.2137H79.4627L79.7853 42.7365H73.5357L74.31 39.1913H80.5596L81.2192 36.1712H85.8224L85.1628 39.1913H91.4124L90.6381 42.7365H84.3885L84.0659 44.2137H91.2563L90.482 47.7589H83.2916L82.6177 50.8446H78.0145L78.6884 47.7589ZM68.2494 28.3258H64.251L65.1042 24.4195H69.1026L69.884 20.8414H73.7144L72.933 24.4195H76.293L75.4398 28.3258H72.0798L67.1617 50.8446H63.3313L68.2494 28.3258ZM59.2478 49.6957C59.7311 48.0981 60.2383 46.3911 60.7694 44.5748C61.3053 42.7365 61.8164 40.9092 62.3027 39.0928C62.8114 37.2764 63.2698 35.5366 63.6778 33.8734C64.113 32.1883 64.4716 30.7002 64.7536 29.409H67.4416C67.1979 30.5251 66.872 31.9148 66.4639 33.578C66.0783 35.2412 65.6487 37.0028 65.1753 38.863C64.7066 40.7013 64.2196 42.5724 63.7141 44.4763C63.2359 46.3583 62.7663 48.0981 62.3054 49.6957H59.2478ZM69.6296 43.8526C69.8446 42.8678 70.0724 41.7736 70.3129 40.57C70.5534 39.3663 70.7786 38.1299 70.9886 36.8606C71.2258 35.5694 71.4494 34.2892 71.6594 33.0199C71.8742 31.7288 72.0699 30.5251 72.2464 29.409H74.6656C74.521 30.4814 74.3485 31.6303 74.1481 32.8558C73.9524 34.0594 73.7383 35.2959 73.5059 36.5652C73.3007 37.8126 73.0731 39.06 72.823 40.3073C72.5954 41.5547 72.3709 42.7365 72.1496 43.8526H69.6296ZM130.521 21.4323C129.703 22.3076 128.718 23.2815 127.565 24.3538C126.439 25.4042 125.28 26.4547 124.088 27.5051C122.9 28.5337 121.735 29.5075 120.594 30.4267C119.479 31.3239 118.524 32.057 117.728 32.626L115.534 42.6708C115.061 44.8374 114.576 46.5443 114.08 47.7917C113.601 49.061 113.02 50.0786 112.338 50.8446H105.383C105.899 50.4288 106.391 49.9692 106.86 49.4659C107.323 48.9844 107.75 48.4154 108.14 47.7589C108.547 47.1243 108.906 46.4021 109.218 45.5924C109.556 44.7608 109.847 43.7869 110.091 42.6708L112.571 31.313C113.046 30.9847 113.58 30.5908 114.174 30.1312C114.794 29.6498 115.417 29.1574 116.042 28.654C116.689 28.1507 117.29 27.6583 117.843 27.1769C118.418 26.6954 118.904 26.2687 119.298 25.8966H103.002L103.977 21.4323H130.521Z"
      fill="#00A83B"
      style="fill:#00A83B;fill:color(display-p3 0.0000 0.6583 0.2321);fill-opacity:1;" />
    <path
      d="M38.0465 50.8446L35.5929 51.3774L35.6299 53.1893H37.5344L38.0465 50.8446ZM37.9821 48.678L40.4346 48.1094L40.4346 48.1094L37.9821 48.678ZM37.8406 46.2489L35.3886 46.8313L35.3902 46.8662L35.3929 46.9009L37.8406 46.2489ZM37.6606 43.6884L35.2117 44.325L35.2136 44.3516L35.2161 44.378L37.6606 43.6884ZM37.4591 41.2265L39.904 40.5413L39.3256 34.4119L35.4549 40.3028L37.4591 41.2265ZM33.9981 46.1504L35.8905 47.2331L35.8905 47.2331L33.9981 46.1504ZM30.2849 50.8446L29.7728 53.1893H31.1317L32.0794 52.0509L30.2849 50.8446ZM23.5313 50.8446L21.896 49.4608L18.2918 53.1893H23.0192L23.5313 50.8446ZM31.7659 40.8326L33.7293 41.8168L33.7328 41.8118L31.7659 40.8326ZM38.1781 29.9343L40.3627 30.5434L41.8212 27.5895H38.6902L38.1781 29.9343ZM28.4005 29.9343H26.0005L25.4884 32.279H27.8884L28.4005 29.9343ZM29.3827 25.4371L29.8948 23.0923H27.4948L26.9827 25.4371H29.3827ZM40.2355 25.4371L39.7234 27.7818H41.691L42.4885 25.8969L40.2355 25.4371ZM41.1406 23.1392L38.8616 22.7431L38.8489 22.7753L38.8371 22.8076L41.1406 23.1392ZM42.012 20.8414L42.5241 18.4967H40.4426L39.7086 20.5098L42.012 20.8414ZM47.4552 20.8414L49.7816 21.1076L50.6572 18.4967H47.9673L47.4552 20.8414ZM46.651 23.1392L44.3475 22.8076L44.3356 22.8403L44.3246 22.873L46.651 23.1392ZM45.8131 25.4371L43.5342 25.0409L42.4546 27.7818H45.301L45.8131 25.4371ZM59.7235 25.4371H62.1235L62.6356 23.0923H60.2356L59.7235 25.4371ZM58.7413 29.9343L58.2292 32.279H60.6292L61.1413 29.9343H58.7413ZM43.8565 29.9343L44.3686 27.5895H42.4842L41.6465 29.3781L43.8565 29.9343ZM37.706 40.8654L35.706 39.9353L33.5424 43.2101H37.1939L37.706 40.8654ZM42.5444 40.8654L44.974 40.0582L44.7327 38.5207H43.0565L42.5444 40.8654ZM42.8368 43.0648L45.2777 42.3414L45.2777 42.3414L42.8368 43.0648ZM43.0912 45.5924L40.6453 46.2661L40.646 46.274L40.6467 46.2819L43.0912 45.5924ZM43.2904 48.2185L40.8397 48.8261L40.8397 48.8261L43.2904 48.2185ZM43.4225 50.8446L42.9104 53.1893H46.0034L45.8745 50.2622L43.4225 50.8446ZM48.1601 50.8446L45.8791 52.1452L46.3636 53.1893H47.648L48.1601 50.8446ZM46.6492 46.8398L44.2735 47.8884L44.2787 47.9059L44.2842 47.9234L46.6492 46.8398ZM45.3533 41.8502L42.9442 42.7673L42.9467 42.7787L42.9492 42.79L45.3533 41.8502ZM44.3379 36.4995L41.9067 37.2965L41.9085 37.3082L41.9104 37.3199L44.3379 36.4995ZM43.7499 31.3458L44.2619 29.0011H41.0861L41.3012 31.9859L43.7499 31.3458ZM48.9243 31.3458L51.3567 30.5572L51.1277 29.0011H49.4363L48.9243 31.3458ZM50.9493 40.9967L48.5612 42.001L48.5627 42.0064L50.9493 40.9967ZM54.4097 50.8446L53.8976 53.1893H58.281L56.7075 49.5814L54.4097 50.8446ZM38.0465 50.8446L40.5001 50.3118C40.4864 49.6411 40.4645 48.9068 40.4346 48.1094L37.9821 48.678L35.5295 49.2467C35.5587 50.0249 35.5798 50.7349 35.5929 51.3774L38.0465 50.8446ZM37.9821 48.678L40.4346 48.1094C40.404 47.2919 40.3551 46.4544 40.2883 45.5969L37.8406 46.2489L35.3929 46.9009C35.4556 47.7066 35.5011 48.4885 35.5295 49.2467L37.9821 48.678ZM37.8406 46.2489L40.2926 45.6665C40.2534 44.7766 40.1908 43.8874 40.1051 42.9989L37.6606 43.6884L35.2161 44.378C35.2952 45.1965 35.3526 46.0142 35.3886 46.8313L37.8406 46.2489ZM37.6606 43.6884L40.1095 43.0519C40.0484 42.1834 39.98 41.3465 39.904 40.5413L37.4591 41.2265L35.0142 41.9117C35.0869 42.6821 35.1528 43.4865 35.2117 44.325L37.6606 43.6884ZM37.4591 41.2265L35.4549 40.3028C34.3825 41.935 33.266 43.5232 32.1057 45.0678L33.9981 46.1504L35.8905 47.2331C37.1304 45.5826 38.3213 43.8882 39.4633 42.1501L37.4591 41.2265ZM33.9981 46.1504L32.1057 45.0678C30.9368 46.6237 29.7317 48.1472 28.4904 49.6382L30.2849 50.8446L32.0794 52.0509C33.3888 50.4782 34.6592 48.8722 35.8905 47.2331L33.9981 46.1504ZM30.2849 50.8446L30.797 48.4998H24.0434L23.5313 50.8446L23.0192 53.1893H29.7728L30.2849 50.8446ZM23.5313 50.8446L25.1666 52.2283C28.3526 48.9324 31.2078 45.4615 33.7293 41.8168L31.7659 40.8326L29.8026 39.8483C27.4794 43.2065 24.8448 46.4103 21.896 49.4608L23.5313 50.8446ZM31.7659 40.8326L33.7328 41.8118C36.2421 38.1691 38.4523 34.4125 40.3627 30.5434L38.1781 29.9343L35.9935 29.3252C34.2085 32.9404 32.144 36.4493 29.7991 39.8533L31.7659 40.8326ZM38.1781 29.9343L38.6902 27.5895H28.9126L28.4005 29.9343L27.8884 32.279H37.666L38.1781 29.9343ZM28.4005 29.9343H30.8005L31.7827 25.4371H29.3827H26.9827L26.0005 29.9343H28.4005ZM29.3827 25.4371L28.8706 27.7818H39.7234L40.2355 25.4371L40.7476 23.0923H29.8948L29.3827 25.4371ZM40.2355 25.4371L42.4885 25.8969C42.8304 25.0888 43.1489 24.2801 43.444 23.4708L41.1406 23.1392L38.8371 22.8076C38.5736 23.5302 38.2888 24.2534 37.9826 24.9772L40.2355 25.4371ZM41.1406 23.1392L43.4195 23.5354C43.7296 22.7481 44.0283 21.9606 44.3155 21.173L42.012 20.8414L39.7086 20.5098C39.4372 21.2541 39.1549 21.9985 38.8616 22.7431L41.1406 23.1392ZM42.012 20.8414L41.4999 23.1861H46.9431L47.4552 20.8414L47.9673 18.4967H42.5241L42.012 20.8414ZM47.4552 20.8414L45.1289 20.5752C44.8794 21.3192 44.6189 22.0634 44.3475 22.8076L46.651 23.1392L48.9544 23.4708C49.2416 22.6832 49.5173 21.8955 49.7816 21.1076L47.4552 20.8414ZM46.651 23.1392L44.3246 22.873C44.0825 23.5951 43.819 24.3177 43.5342 25.0409L45.8131 25.4371L48.0921 25.8332C48.4106 25.0245 48.7057 24.2152 48.9773 23.4055L46.651 23.1392ZM45.8131 25.4371L45.301 27.7818H59.2114L59.7235 25.4371L60.2356 23.0923H46.3252L45.8131 25.4371ZM59.7235 25.4371H57.3235L56.3413 29.9343H58.7413H61.1413L62.1235 25.4371H59.7235ZM58.7413 29.9343L59.2534 27.5895H44.3686L43.8565 29.9343L43.3444 32.279H58.2292L58.7413 29.9343ZM43.8565 29.9343L41.6465 29.3781C40.7953 31.1956 39.8758 32.9803 38.8881 34.7324L40.9985 35.4819L43.1089 36.2314C44.169 34.3507 45.1549 32.437 46.0666 30.4905L43.8565 29.9343ZM40.9985 35.4819L38.8881 34.7324C37.8989 36.4872 36.8383 38.2215 35.706 39.9353L37.706 40.8654L39.706 41.7954C40.9159 39.9641 42.0503 38.1093 43.1089 36.2314L40.9985 35.4819ZM37.706 40.8654L37.1939 43.2101H42.0323L42.5444 40.8654L43.0565 38.5207H38.2181L37.706 40.8654ZM42.5444 40.8654L40.1148 41.6726C40.2126 42.2962 40.3065 43.0007 40.3959 43.7881L42.8368 43.0648L45.2777 42.3414C45.1832 41.5093 45.0821 40.7477 44.974 40.0582L42.5444 40.8654ZM42.8368 43.0648L40.3959 43.7881C40.4859 44.5802 40.569 45.4062 40.6453 46.2661L43.0912 45.5924L45.5371 44.9186C45.4581 44.0279 45.3717 43.1687 45.2777 42.3414L42.8368 43.0648ZM43.0912 45.5924L40.6467 46.2819C40.7264 47.1072 40.7908 47.9552 40.8397 48.8261L43.2904 48.2185L45.7412 47.6109C45.6892 46.6873 45.6208 45.7845 45.5357 44.9028L43.0912 45.5924ZM43.2904 48.2185L40.8397 48.8261C40.8897 49.7154 40.9333 50.5823 40.9705 51.4269L43.4225 50.8446L45.8745 50.2622C45.8365 49.3999 45.792 48.5161 45.7412 47.6109L43.2904 48.2185ZM43.4225 50.8446L43.9346 48.4998H38.5586L38.0465 50.8446L37.5344 53.1893H42.9104L43.4225 50.8446ZM48.1601 50.8446L50.4411 49.5439C49.9638 48.5152 49.4868 47.2565 49.0141 45.7562L46.6492 46.8398L44.2842 47.9234C44.7904 49.5306 45.3207 50.9417 45.8791 52.1452L48.1601 50.8446ZM46.6492 46.8398L49.0248 45.7912C48.5739 44.2542 48.1512 42.6275 47.7573 40.9104L45.3533 41.8502L42.9492 42.79C43.3586 44.5744 43.7999 46.274 44.2735 47.8884L46.6492 46.8398ZM45.3533 41.8502L47.7624 40.9331C47.3902 39.2149 47.0578 37.4636 46.7653 35.6791L44.3379 36.4995L41.9104 37.3199C42.2133 39.1682 42.5579 40.984 42.9442 42.7673L45.3533 41.8502ZM44.3379 36.4995L46.769 35.7025C46.5005 33.9304 46.3109 32.2652 46.1985 30.7057L43.7499 31.3458L41.3012 31.9859C41.4222 33.6652 41.6247 35.4358 41.9067 37.2965L44.3379 36.4995ZM43.7499 31.3458L43.2378 33.6905H48.4122L48.9243 31.3458L49.4363 29.0011H44.2619L43.7499 31.3458ZM48.9243 31.3458L46.4918 32.1344C46.9549 35.2812 47.646 38.5704 48.5613 42.001L50.9493 40.9967L53.3373 39.9924C52.4543 36.6826 51.7953 33.5379 51.3567 30.5572L48.9243 31.3458ZM50.9493 40.9967L48.5627 42.0064C49.4909 45.4445 50.6743 48.8116 52.1119 52.1077L54.4097 50.8446L56.7075 49.5814C55.339 46.4436 54.2156 43.2455 53.3359 39.987L50.9493 40.9967ZM54.4097 50.8446L54.9218 48.4998H48.6722L48.1601 50.8446L47.648 53.1893H53.8976L54.4097 50.8446ZM73.3302 38.6004L71.7558 37.1553L67.8923 40.9451H72.8182L73.3302 38.6004ZM75.0829 36.7293L73.3584 35.4416L73.3523 35.4485L73.3461 35.4555L75.0829 36.7293ZM77.1949 34.136L79.0846 35.2222L81.6696 31.7913H77.707L77.1949 34.136ZM74.4733 34.136H72.0733L71.5612 36.4807H73.9612L74.4733 34.136ZM75.2045 30.7877L75.7166 28.443H73.3166L72.8045 30.7877H75.2045ZM79.5725 30.7877L79.0604 33.1325H80.5437L81.4901 31.8363L79.5725 30.7877ZM79.9153 30.2953L81.9195 31.219L81.9195 31.219L79.9153 30.2953ZM80.2244 29.803L82.2918 30.6262L84.1997 27.4582H80.7365L80.2244 29.803ZM76.4276 29.803H74.0276L73.5155 32.1477H75.9155L76.4276 29.803ZM77.0944 26.7501L77.6064 24.4054H75.2064L74.6944 26.7501H77.0944ZM82 26.7501L81.4879 29.0948H83.3352L84.189 27.3501L82 26.7501ZM82.5461 25.634L84.7352 26.234L86.1762 23.2893H83.0582L82.5461 25.634ZM76.6661 25.634H74.2661L73.754 27.9788H76.154L76.6661 25.634ZM77.3974 22.2857L77.9095 19.941H75.5095L74.9974 22.2857H77.3974ZM84.0502 22.2857L83.5381 24.6305H85.633L86.359 22.6026L84.0502 22.2857ZM84.5672 20.8414L85.0793 18.4967H82.9844L82.2584 20.5246L84.5672 20.8414ZM89.3048 20.8414L91.5745 21.2608L92.6926 18.4967H89.8169L89.3048 20.8414ZM88.7206 22.2857L86.4509 21.8663L85.3328 24.6305H88.2085L88.7206 22.2857ZM95.5414 22.2857H97.9414L98.4535 19.941H96.0535L95.5414 22.2857ZM94.8101 25.634L94.298 27.9788H96.698L97.2101 25.634H94.8101ZM87.2501 25.634L87.7622 23.2893H85.8614L85.0312 25.097L87.2501 25.634ZM86.7376 26.7501L84.5186 26.2131L83.1952 29.0948H86.2255L86.7376 26.7501ZM93.8944 26.7501H96.2944L96.8064 24.4054H94.4064L93.8944 26.7501ZM93.2276 29.803L92.7155 32.1477H95.1155L95.6276 29.803H93.2276ZM85.0628 29.803L85.5749 27.4582H83.701L82.8587 29.2343L85.0628 29.803ZM84.7873 30.2953L82.7831 29.3717L82.783 29.3717L84.7873 30.2953ZM84.4781 30.7877L82.4107 29.9645L80.5029 33.1325H83.966L84.4781 30.7877ZM94.0205 30.7877H96.4205L96.9326 28.443H94.5326L94.0205 30.7877ZM93.2893 34.136L92.7772 36.4807H95.1772L95.6893 34.136H93.2893ZM90.6685 34.136L91.1806 31.7913H87.2053L88.3062 35.2281L90.6685 34.136ZM91.4963 36.4995L89.168 37.6883L89.1731 37.7016L89.1784 37.7148L91.4963 36.4995ZM92.415 38.6004L91.903 40.9451H96.4276L94.6893 37.2853L92.415 38.6004ZM87.6102 38.6004L85.3221 39.8854L85.8013 40.9451H87.0982L87.6102 38.6004ZM86.838 36.598L84.4623 37.6466L84.4699 37.6725L84.4782 37.698L86.838 36.598ZM86.1661 34.136L88.5582 33.1472L88.2088 31.7913H86.6782L86.1661 34.136ZM82.2349 34.136L82.747 31.7913H81.2805L80.333 33.0661L82.2349 34.136ZM80.3003 36.5323L78.5635 35.2586L78.5453 35.2792L78.5275 35.3002L80.3003 36.5323ZM78.3702 38.6004L77.8582 40.9451H79.0179L79.9324 40.0574L78.3702 38.6004ZM78.6884 47.7589H81.0884L81.6005 45.4142H79.2005L78.6884 47.7589ZM71.6324 47.7589H69.2324L68.7203 50.1036H71.1203L71.6324 47.7589ZM72.4067 44.2137L72.9188 41.8689H70.5188L70.0067 44.2137H72.4067ZM79.4627 44.2137L78.9506 46.5584H81.3506L81.8627 44.2137H79.4627ZM79.7853 42.7365H82.1853L82.6974 40.3918H80.2974L79.7853 42.7365ZM73.5357 42.7365H71.1357L70.6236 45.0812H73.0236L73.5357 42.7365ZM74.31 39.1913L74.8221 36.8465H72.4221L71.91 39.1913H74.31ZM80.5596 39.1913L80.0475 41.536H82.4475L82.9596 39.1913H80.5596ZM81.2192 36.1712L81.7313 33.8265H79.3313L78.8192 36.1712H81.2192ZM85.8224 36.1712H88.2224L88.7345 33.8265H86.3345L85.8224 36.1712ZM85.1628 39.1913H82.7628L82.2507 41.536H84.6507L85.1628 39.1913ZM91.4124 39.1913H93.8124L94.3245 36.8465H91.9245L91.4124 39.1913ZM90.6381 42.7365L90.126 45.0812H92.526L93.0381 42.7365H90.6381ZM84.3885 42.7365L84.9006 40.3918H82.5006L81.9885 42.7365H84.3885ZM84.0659 44.2137H81.6659L81.1538 46.5584H83.5538L84.0659 44.2137ZM91.2563 44.2137H93.6563L94.1684 41.8689H91.7684L91.2563 44.2137ZM90.482 47.7589L89.9699 50.1036H92.3699L92.882 47.7589H90.482ZM83.2916 47.7589L83.8037 45.4142H81.4037L80.8916 47.7589H83.2916ZM82.6177 50.8446L82.1056 53.1893H84.5056L85.0177 50.8446H82.6177ZM78.0145 50.8446H75.6145L75.1024 53.1893H77.5024L78.0145 50.8446ZM68.2494 28.3258H70.6494L71.1615 25.981H68.7615L68.2494 28.3258ZM64.251 28.3258H61.851L61.3389 30.6705H63.7389L64.251 28.3258ZM65.1042 24.4195L65.6163 22.0747H63.2163L62.7042 24.4195H65.1042ZM69.1026 24.4195L68.5905 26.7642H70.9905L71.5026 24.4195H69.1026ZM69.884 20.8414L70.3961 18.4967H67.9961L67.484 20.8414H69.884ZM73.7144 20.8414H76.1144L76.6265 18.4967H74.2265L73.7144 20.8414ZM72.933 24.4195H70.533L70.0209 26.7642H72.4209L72.933 24.4195ZM76.293 24.4195H78.693L79.2051 22.0747H76.8051L76.293 24.4195ZM75.4398 28.3258L74.9277 30.6705H77.3277L77.8398 28.3258H75.4398ZM72.0798 28.3258L72.5919 25.981H70.1919L69.6798 28.3258H72.0798ZM67.1617 50.8446L66.6496 53.1893H69.0496L69.5617 50.8446H67.1617ZM63.3313 50.8446H60.9313L60.4192 53.1893H62.8192L63.3313 50.8446ZM59.2478 49.6957L56.8978 49.5036L56.1304 52.0404H58.7357L59.2478 49.6957ZM60.7694 44.5748L63.1263 44.7438L63.1268 44.7418L60.7694 44.5748ZM62.3027 39.0928L59.9378 38.9518L59.9339 38.9658L59.9301 38.9799L62.3027 39.0928ZM63.6778 33.8734L61.2996 33.7821L61.2958 33.7969L61.2921 33.8117L63.6778 33.8734ZM64.7536 29.409L65.2657 27.0643H62.8657L62.3536 29.409H64.7536ZM67.4416 29.409H69.8416L70.3537 27.0643H67.9537L67.4416 29.409ZM66.4639 33.578L64.0782 33.5163L64.0745 33.5317L64.0709 33.5471L66.4639 33.578ZM65.1753 38.863L67.5555 38.9467L67.5557 38.9457L65.1753 38.863ZM63.7141 44.4763L61.3402 44.3686L61.3367 44.3816L61.3335 44.3945L63.7141 44.4763ZM62.3054 49.6957L61.7933 52.0404H64.0346L64.6648 49.8559L62.3054 49.6957ZM69.6296 43.8526H67.2296L66.7175 46.1973H69.1175L69.6296 43.8526ZM70.3129 40.57L67.904 40.6126L67.904 40.6126L70.3129 40.57ZM70.9886 36.8606L68.5726 36.94L68.5688 36.9609L68.5654 36.9817L70.9886 36.8606ZM71.6594 33.0199L69.2365 33.139L69.2362 33.141L71.6594 33.0199ZM72.2464 29.409L72.7585 27.0643H70.2132L69.8205 29.5467L72.2464 29.409ZM74.6656 29.409L77.0993 29.2183L77.3898 27.0643H75.1777L74.6656 29.409ZM74.1481 32.8558L71.7241 32.9812L71.7237 32.9835L74.1481 32.8558ZM73.5059 36.5652L71.0897 36.646L71.0858 36.6672L71.0823 36.6884L73.5059 36.5652ZM72.823 40.3073L70.4144 40.3485L70.4103 40.369L70.4066 40.3896L72.823 40.3073ZM72.1496 43.8526L71.6375 46.1973H74.085L74.5591 43.8066L72.1496 43.8526ZM73.3302 38.6004L74.9046 40.0455C75.4909 39.4704 76.1307 38.7854 76.8197 38.0031L75.0829 36.7293L73.3461 35.4555C72.7245 36.1613 72.1959 36.7237 71.7558 37.1553L73.3302 38.6004ZM75.0829 36.7293L76.8074 38.017C77.5573 37.1753 78.3163 36.242 79.0846 35.2222L77.1949 34.136L75.3052 33.0498C74.6225 33.9559 73.9734 34.7514 73.3584 35.4416L75.0829 36.7293ZM77.1949 34.136L77.707 31.7913H74.9854L74.4733 34.136L73.9612 36.4807H76.6828L77.1949 34.136ZM74.4733 34.136H76.8733L77.6045 30.7877H75.2045H72.8045L72.0733 34.136H74.4733ZM75.2045 30.7877L74.6924 33.1325H79.0604L79.5725 30.7877L80.0846 28.443H75.7166L75.2045 30.7877ZM79.5725 30.7877L81.4901 31.8363C81.643 31.627 81.7868 31.4209 81.9195 31.219L79.9153 30.2953L77.911 29.3717C77.8424 29.4762 77.7578 29.5983 77.6549 29.7391L79.5725 30.7877ZM79.9153 30.2953L81.9195 31.219C82.0444 31.029 82.1684 30.8311 82.2918 30.6262L80.2244 29.803L78.157 28.9797C78.0695 29.125 77.9875 29.2554 77.911 29.3717L79.9153 30.2953ZM80.2244 29.803L80.7365 27.4582H76.9397L76.4276 29.803L75.9155 32.1477H79.7123L80.2244 29.803ZM76.4276 29.803H78.8276L79.4944 26.7501H77.0944H74.6944L74.0276 29.803H76.4276ZM77.0944 26.7501L76.5823 29.0948H81.4879L82 26.7501L82.512 24.4054H77.6064L77.0944 26.7501ZM82 26.7501L84.189 27.3501L84.7352 26.234L82.5461 25.634L80.3571 25.034L79.8109 26.1501L82 26.7501ZM82.5461 25.634L83.0582 23.2893H77.1782L76.6661 25.634L76.154 27.9788H82.034L82.5461 25.634ZM76.6661 25.634H79.0661L79.7974 22.2857H77.3974H74.9974L74.2661 25.634H76.6661ZM77.3974 22.2857L76.8853 24.6305H83.5381L84.0502 22.2857L84.5623 19.941H77.9095L77.3974 22.2857ZM84.0502 22.2857L86.359 22.6026L86.876 21.1582L84.5672 20.8414L82.2584 20.5246L81.7414 21.9689L84.0502 22.2857ZM84.5672 20.8414L84.0551 23.1861H88.7927L89.3048 20.8414L89.8169 18.4967H85.0793L84.5672 20.8414ZM89.3048 20.8414L87.0351 20.422L86.4509 21.8663L88.7206 22.2857L90.9903 22.7052L91.5745 21.2608L89.3048 20.8414ZM88.7206 22.2857L88.2085 24.6305H95.0293L95.5414 22.2857L96.0535 19.941H89.2327L88.7206 22.2857ZM95.5414 22.2857H93.1414L92.4101 25.634H94.8101H97.2101L97.9414 22.2857H95.5414ZM94.8101 25.634L95.3222 23.2893H87.7622L87.2501 25.634L86.738 27.9788H94.298L94.8101 25.634ZM87.2501 25.634L85.0312 25.097L84.5186 26.2131L86.7376 26.7501L88.9565 27.2871L89.469 26.1711L87.2501 25.634ZM86.7376 26.7501L86.2255 29.0948H93.3823L93.8944 26.7501L94.4064 24.4054H87.2496L86.7376 26.7501ZM93.8944 26.7501H91.4944L90.8276 29.803H93.2276H95.6276L96.2944 26.7501H93.8944ZM93.2276 29.803L93.7397 27.4582H85.5749L85.0628 29.803L84.5507 32.1477H92.7155L93.2276 29.803ZM85.0628 29.803L82.8587 29.2343C82.8285 29.2979 82.8023 29.3425 82.7831 29.3717L84.7873 30.2953L86.7915 31.219C86.9736 30.9419 87.1311 30.6581 87.267 30.3716L85.0628 29.803ZM84.7873 30.2953L82.783 29.3717C82.6582 29.5617 82.5341 29.7596 82.4107 29.9645L84.4781 30.7877L86.5455 31.611C86.633 31.4657 86.715 31.3353 86.7915 31.219L84.7873 30.2953ZM84.4781 30.7877L83.966 33.1325H93.5084L94.0205 30.7877L94.5326 28.443H84.9902L84.4781 30.7877ZM94.0205 30.7877H91.6205L90.8893 34.136H93.2893H95.6893L96.4205 30.7877H94.0205ZM93.2893 34.136L93.8014 31.7913H91.1806L90.6685 34.136L90.1564 36.4807H92.7772L93.2893 34.136ZM90.6685 34.136L88.3062 35.2281C88.5821 36.0895 88.8693 36.9098 89.168 37.6883L91.4963 36.4995L93.8246 35.3107C93.5523 34.6011 93.2876 33.8457 93.0308 33.044L90.6685 34.136ZM91.4963 36.4995L89.1784 37.7148C89.4818 38.4697 89.8026 39.2033 90.1408 39.9154L92.415 38.6004L94.6893 37.2853C94.383 36.6406 94.0913 35.9736 93.8142 35.2842L91.4963 36.4995ZM92.415 38.6004L92.9271 36.2557H88.1223L87.6102 38.6004L87.0982 40.9451H91.903L92.415 38.6004ZM87.6102 38.6004L89.8984 37.3154C89.6397 36.7433 89.4059 36.1378 89.1977 35.4979L86.838 36.598L84.4782 37.698C84.7258 38.4588 85.0068 39.1882 85.3221 39.8854L87.6102 38.6004ZM86.838 36.598L89.2136 35.5494C89.0155 34.874 88.797 34.0741 88.5582 33.1472L86.1661 34.136L83.774 35.1249C84.0201 36.0799 84.2496 36.9214 84.4623 37.6466L86.838 36.598ZM86.1661 34.136L86.6782 31.7913H82.747L82.2349 34.136L81.7228 36.4807H85.654L86.1661 34.136ZM82.2349 34.136L80.333 33.0661C79.7463 33.8553 79.1563 34.5855 78.5635 35.2586L80.3003 36.5323L82.0371 37.8061C82.755 36.991 83.4546 36.1237 84.1368 35.206L82.2349 34.136ZM80.3003 36.5323L78.5275 35.3002C77.9557 35.9724 77.3823 36.586 76.8081 37.1434L78.3702 38.6004L79.9324 40.0574C80.6658 39.3455 81.3791 38.5804 82.0731 37.7645L80.3003 36.5323ZM78.3702 38.6004L78.8823 36.2557H73.8423L73.3302 38.6004L72.8182 40.9451H77.8582L78.3702 38.6004ZM78.6884 47.7589L79.2005 45.4142H72.1445L71.6324 47.7589L71.1203 50.1036H78.1763L78.6884 47.7589ZM71.6324 47.7589H74.0324L74.8067 44.2137H72.4067H70.0067L69.2324 47.7589H71.6324ZM72.4067 44.2137L71.8946 46.5584H78.9506L79.4627 44.2137L79.9748 41.8689H72.9188L72.4067 44.2137ZM79.4627 44.2137H81.8627L82.1853 42.7365H79.7853H77.3853L77.0627 44.2137H79.4627ZM79.7853 42.7365L80.2974 40.3918H74.0478L73.5357 42.7365L73.0236 45.0812H79.2732L79.7853 42.7365ZM73.5357 42.7365H75.9357L76.71 39.1913H74.31H71.91L71.1357 42.7365H73.5357ZM74.31 39.1913L73.7979 41.536H80.0475L80.5596 39.1913L81.0717 36.8465H74.8221L74.31 39.1913ZM80.5596 39.1913H82.9596L83.6192 36.1712H81.2192H78.8192L78.1596 39.1913H80.5596ZM81.2192 36.1712L80.7071 38.516H85.3103L85.8224 36.1712L86.3345 33.8265H81.7313L81.2192 36.1712ZM85.8224 36.1712H83.4224L82.7628 39.1913H85.1628H87.5628L88.2224 36.1712H85.8224ZM85.1628 39.1913L84.6507 41.536H90.9003L91.4124 39.1913L91.9245 36.8465H85.6749L85.1628 39.1913ZM91.4124 39.1913H89.0124L88.2381 42.7365H90.6381H93.0381L93.8124 39.1913H91.4124ZM90.6381 42.7365L91.1502 40.3918H84.9006L84.3885 42.7365L83.8764 45.0812H90.126L90.6381 42.7365ZM84.3885 42.7365H81.9885L81.6659 44.2137H84.0659H86.4659L86.7885 42.7365H84.3885ZM84.0659 44.2137L83.5538 46.5584H90.7442L91.2563 44.2137L91.7684 41.8689H84.578L84.0659 44.2137ZM91.2563 44.2137H88.8563L88.082 47.7589H90.482H92.882L93.6563 44.2137H91.2563ZM90.482 47.7589L90.9941 45.4142H83.8037L83.2916 47.7589L82.7795 50.1036H89.9699L90.482 47.7589ZM83.2916 47.7589H80.8916L80.2177 50.8446H82.6177H85.0177L85.6916 47.7589H83.2916ZM82.6177 50.8446L83.1298 48.4998H78.5266L78.0145 50.8446L77.5024 53.1893H82.1056L82.6177 50.8446ZM78.0145 50.8446H80.4145L81.0884 47.7589H78.6884H76.2884L75.6145 50.8446H78.0145ZM68.2494 28.3258L68.7615 25.981H64.7631L64.251 28.3258L63.7389 30.6705H67.7373L68.2494 28.3258ZM64.251 28.3258H66.651L67.5042 24.4195H65.1042H62.7042L61.851 28.3258H64.251ZM65.1042 24.4195L64.5921 26.7642H68.5905L69.1026 24.4195L69.6147 22.0747H65.6163L65.1042 24.4195ZM69.1026 24.4195H71.5026L72.284 20.8414H69.884H67.484L66.7026 24.4195H69.1026ZM69.884 20.8414L69.3719 23.1861H73.2023L73.7144 20.8414L74.2265 18.4967H70.3961L69.884 20.8414ZM73.7144 20.8414H71.3144L70.533 24.4195H72.933H75.333L76.1144 20.8414H73.7144ZM72.933 24.4195L72.4209 26.7642H75.7809L76.293 24.4195L76.8051 22.0747H73.4451L72.933 24.4195ZM76.293 24.4195H73.893L73.0398 28.3258H75.4398H77.8398L78.693 24.4195H76.293ZM75.4398 28.3258L75.9519 25.981H72.5919L72.0798 28.3258L71.5677 30.6705H74.9277L75.4398 28.3258ZM72.0798 28.3258H69.6798L64.7617 50.8446H67.1617H69.5617L74.4798 28.3258H72.0798ZM67.1617 50.8446L67.6738 48.4998H63.8434L63.3313 50.8446L62.8192 53.1893H66.6496L67.1617 50.8446ZM63.3313 50.8446H65.7313L70.6494 28.3258H68.2494H65.8494L60.9313 50.8446H63.3313ZM59.2478 49.6957L61.5978 49.8877C62.0837 48.2816 62.5932 46.5669 63.1263 44.7438L60.7694 44.5748L58.4126 44.4057C57.8834 46.2154 57.3785 47.9147 56.8978 49.5036L59.2478 49.6957ZM60.7694 44.5748L63.1268 44.7418C63.6679 42.8857 64.1841 41.0403 64.6753 39.2056L62.3027 39.0928L59.9301 38.9799C59.4487 40.778 58.9427 42.5872 58.412 44.4077L60.7694 44.5748ZM62.3027 39.0928L64.6676 39.2338C65.183 37.3934 65.6484 35.6271 66.0635 33.9351L63.6778 33.8734L61.2921 33.8117C60.8911 35.4461 60.4398 37.1594 59.9378 38.9518L62.3027 39.0928ZM63.6778 33.8734L66.0561 33.9647C66.4969 32.2578 66.8634 30.7382 67.1536 29.409H64.7536H62.3536C62.0799 30.6622 61.7292 32.1188 61.2996 33.7821L63.6778 33.8734ZM64.7536 29.409L64.2415 31.7538H66.9295L67.4416 29.409L67.9537 27.0643H65.2657L64.7536 29.409ZM67.4416 29.409H65.0416C64.804 30.4973 64.4834 31.8647 64.0782 33.5163L66.4639 33.578L68.8496 33.6397C69.2605 31.9648 69.5918 30.553 69.8416 29.409H67.4416ZM66.4639 33.578L64.0709 33.5471C63.6897 35.1911 63.2644 36.9354 62.7948 38.7803L65.1753 38.863L67.5557 38.9457C68.0331 37.0703 68.4669 35.2912 68.857 33.6088L66.4639 33.578ZM65.1753 38.863L62.7951 38.7793C62.3285 40.6093 61.8436 42.4724 61.3402 44.3686L63.7141 44.4763L66.0881 44.584C66.5956 42.6723 67.0847 40.7932 67.5555 38.9467L65.1753 38.863ZM63.7141 44.4763L61.3335 44.3945C60.8607 46.2548 60.3982 47.9681 59.946 49.5354L62.3054 49.6957L64.6648 49.8559C65.1344 48.2281 65.6111 46.4618 66.0948 44.558L63.7141 44.4763ZM62.3054 49.6957L62.8175 47.3509H59.7599L59.2478 49.6957L58.7357 52.0404H61.7933L62.3054 49.6957ZM69.6296 43.8526H72.0296C72.2483 42.8509 72.4791 41.7422 72.7218 40.5273L70.3129 40.57L67.904 40.6126C67.6657 41.805 67.4409 42.8847 67.2296 43.8526H69.6296ZM70.3129 40.57L72.7218 40.5273C72.9678 39.2961 73.1978 38.0335 73.4119 36.7395L70.9886 36.8606L68.5654 36.9817C68.3594 38.2263 68.1389 39.4365 67.904 40.6126L70.3129 40.57ZM70.9886 36.8606L73.4046 36.7812C73.6443 35.4763 73.8703 34.1822 74.0827 32.8988L71.6594 33.0199L69.2362 33.141C69.0285 34.3962 68.8073 35.6625 68.5726 36.94L70.9886 36.8606ZM71.6594 33.0199L74.0823 32.9009C74.298 31.6044 74.4947 30.3945 74.6724 29.2714L72.2464 29.409L69.8205 29.5467C69.6451 30.6557 69.4504 31.8531 69.2365 33.139L71.6594 33.0199ZM72.2464 29.409L71.7343 31.7538H74.1535L74.6656 29.409L75.1777 27.0643H72.7585L72.2464 29.409ZM74.6656 29.409L72.2319 29.5998C72.0906 30.6476 71.9215 31.7746 71.7241 32.9812L74.1481 32.8558L76.572 32.7304C76.7756 31.486 76.9514 30.3151 77.0993 29.2183L74.6656 29.409ZM74.1481 32.8558L71.7237 32.9835C71.5307 34.1707 71.3194 35.3915 71.0897 36.646L73.5059 36.5652L75.9222 36.4844C76.1573 35.2003 76.374 33.9481 76.5724 32.7281L74.1481 32.8558ZM73.5059 36.5652L71.0823 36.6884C70.8816 37.9085 70.659 39.1285 70.4144 40.3485L72.823 40.3073L75.2317 40.2662C75.4872 38.9914 75.7198 37.7166 75.9295 36.4419L73.5059 36.5652ZM72.823 40.3073L70.4066 40.3896C70.1809 41.6263 69.9587 42.7959 69.74 43.8985L72.1496 43.8526L74.5591 43.8066C74.7831 42.6771 75.0099 41.4832 75.2395 40.2251L72.823 40.3073ZM72.1496 43.8526L72.6616 41.5079H70.1416L69.6296 43.8526L69.1175 46.1973H71.6375L72.1496 43.8526ZM130.521 21.4323L132.194 22.7769L135.643 19.0875H131.033L130.521 21.4323ZM127.565 24.3538L126.053 22.8491L126.049 22.8527L127.565 24.3538ZM124.088 27.5051L125.513 29.0878L125.523 29.0788L125.534 29.0696L124.088 27.5051ZM117.728 32.626L116.543 30.8541L115.562 31.5553L115.328 32.626H117.728ZM114.08 47.7917L111.804 47.3866L111.795 47.4093L111.787 47.4322L114.08 47.7917ZM112.338 50.8446L111.826 53.1893H113.12L114.062 52.1322L112.338 50.8446ZM105.383 50.8446L104.048 49.1866L99.0763 53.1893H104.87L105.383 50.8446ZM106.86 49.4659L105.22 48.0868L105.201 48.1067L105.182 48.1269L106.86 49.4659ZM108.14 47.7589L106.118 46.8624L106.089 46.9067L106.063 46.9517L108.14 47.7589ZM109.218 45.5924L106.95 45.1676L106.94 45.1923L106.931 45.217L109.218 45.5924ZM112.571 31.313L111.428 29.5117L110.411 30.2147L110.171 31.313H112.571ZM114.174 30.1312L115.46 31.8273L115.462 31.8256L114.174 30.1312ZM116.042 28.654L114.751 26.9612L114.729 26.9784L114.707 26.9961L116.042 28.654ZM117.843 27.1769L116.46 25.5579L116.436 25.5785L116.411 25.5996L117.843 27.1769ZM119.298 25.8966L120.825 27.3872L124.896 23.5519H119.81L119.298 25.8966ZM103.002 25.8966H100.602L100.09 28.2414H102.49L103.002 25.8966ZM103.977 21.4323L104.489 19.0875H102.089L101.577 21.4323H103.977ZM130.521 21.4323L128.849 20.0877C128.095 20.8942 127.166 21.8137 126.053 22.8491L127.565 24.3538L129.077 25.8585C130.269 24.7493 131.311 23.7211 132.194 22.7769L130.521 21.4323ZM127.565 24.3538L126.049 22.8527C124.947 23.881 123.812 24.9103 122.642 25.9406L124.088 27.5051L125.534 29.0696C126.749 27.999 127.932 26.9274 129.081 25.8549L127.565 24.3538ZM124.088 27.5051L122.663 25.9224C121.502 26.9272 120.368 27.8758 119.259 28.7687L120.594 30.4267L121.929 32.0846C123.103 31.1393 124.298 30.1402 125.513 29.0878L124.088 27.5051ZM120.594 30.4267L119.259 28.7687C118.173 29.6427 117.271 30.334 116.543 30.8541L117.728 32.626L118.913 34.3979C119.777 33.78 120.785 33.0051 121.929 32.0846L120.594 30.4267ZM117.728 32.626H115.328L113.134 42.6708H115.534H117.934L120.128 32.626H117.728ZM115.534 42.6708H113.134C112.673 44.7825 112.223 46.3342 111.804 47.3866L114.08 47.7917L116.355 48.1969C116.929 46.7544 117.449 44.8922 117.934 42.6708H115.534ZM114.08 47.7917L111.787 47.4322C111.386 48.4943 110.967 49.16 110.613 49.5569L112.338 50.8446L114.062 52.1322C115.074 50.9972 115.816 49.6277 116.373 48.1513L114.08 47.7917ZM112.338 50.8446L112.85 48.4998H105.895L105.383 50.8446L104.87 53.1893H111.826L112.338 50.8446ZM105.383 50.8446L106.717 52.5025C107.361 51.9844 107.967 51.4174 108.537 50.8049L106.86 49.4659L105.182 48.1269C104.815 48.521 104.437 48.8731 104.048 49.1866L105.383 50.8446ZM106.86 49.4659L108.499 50.845C109.158 50.1605 109.726 49.3919 110.217 48.5661L108.14 47.7589L106.063 46.9517C105.773 47.4389 105.488 47.8084 105.22 48.0868L106.86 49.4659ZM108.14 47.7589L110.161 48.6554C110.695 47.8247 111.138 46.9229 111.505 45.9677L109.218 45.5924L106.931 45.217C106.675 45.8813 106.399 46.4238 106.118 46.8624L108.14 47.7589ZM109.218 45.5924L111.485 46.0171C111.895 45.0092 112.225 43.8871 112.491 42.6708H110.091H107.691C107.469 43.6867 107.217 44.5123 106.95 45.1676L109.218 45.5924ZM110.091 42.6708H112.491L114.971 31.313H112.571H110.171L107.691 42.6708H110.091ZM112.571 31.313L113.714 33.1142C114.25 32.744 114.833 32.3132 115.46 31.8273L114.174 30.1312L112.887 28.4351C112.328 28.8684 111.843 29.2253 111.428 29.5117L112.571 31.313ZM114.174 30.1312L115.462 31.8256C116.099 31.3319 116.737 30.8274 117.377 30.312L116.042 28.654L114.707 26.9961C114.097 27.4874 113.489 27.9676 112.885 28.4368L114.174 30.1312ZM116.042 28.654L117.333 30.3469C118.023 29.8106 118.67 29.2797 119.274 28.7541L117.843 27.1769L116.411 25.5996C115.909 26.0369 115.356 26.4908 114.751 26.9612L116.042 28.654ZM117.843 27.1769L119.225 28.7958C119.833 28.2873 120.37 27.8164 120.825 27.3872L119.298 25.8966L117.771 24.4061C117.437 24.7209 117.003 25.1035 116.46 25.5579L117.843 27.1769ZM119.298 25.8966L119.81 23.5519H103.514L103.002 25.8966L102.49 28.2414H118.786L119.298 25.8966ZM103.002 25.8966H105.402L106.377 21.4323H103.977H101.577L100.602 25.8966H103.002ZM103.977 21.4323L103.465 23.777H130.009L130.521 21.4323L131.033 19.0875H104.489L103.977 21.4323Z"
      fill="white" style="fill:white;fill-opacity:1;" mask="url(#path-1-outside-1_651_10026)" />
  </g>
  <defs>
    <filter id="filter0_d_651_10026" x="0.291016" y="0.496582" width="153.352" height="70.6929"
      filterUnits="userSpaceOnUse" color-interpolation-filters="sRGB">
      <feFlood flood-opacity="0" result="BackgroundImageFix" />
      <feColorMatrix in="SourceAlpha" type="matrix"
        values="0 0 0 0 0 0 0 0 0 0 0 0 0 0 0 0 0 0 127 0" result="hardAlpha" />
      <feOffset />
      <feGaussianBlur stdDeviation="9" />
      <feColorMatrix type="matrix" values="0 0 0 0 0.5875 0 0 0 0 0.5875 0 0 0 0 0.5875 0 0 0 0.1 0" />
      <feBlend mode="normal" in2="BackgroundImageFix" result="effect1_dropShadow_651_10026" />
      <feBlend mode="normal" in="SourceGraphic" in2="effect1_dropShadow_651_10026" result="shape" />
    </filter>
  </defs>
</svg>
