<svg width="87" height="86" viewBox="0 0 87 86" fill="none" xmlns="http://www.w3.org/2000/svg">
  <g filter="url(#filter0_d_150_7195)">
    <rect x="3.5" y="2" width="80" height="80" rx="16" fill="white"
      style="fill:white;fill-opacity:1;" />
    <path
      d="M56.7708 20.7238C56.6149 20.7355 56.4894 20.8181 56.3413 20.9386C56.1492 21.1056 55.9535 21.3033 55.7699 21.4891C55.262 22.0193 54.8236 22.5779 54.3827 23.1432C54.0247 23.6025 53.5869 24.0006 53.1641 24.4316C52.7331 24.8746 52.2837 25.2131 51.7882 25.5654C50.906 26.1453 49.9295 26.5727 48.9297 26.9041C48.6234 27.0005 48.3162 27.0881 48.0046 27.1653C47.602 27.2468 47.1065 27.3514 46.7946 27.6162C46.712 27.6924 46.6585 27.7384 46.65 27.8285C46.5557 32.8384 46.8481 45.6122 46.5181 47.6633C46.4036 48.3474 46.2555 49.0268 45.9315 49.6443C45.6629 50.1766 45.3687 50.7125 44.9554 51.1488C44.3872 51.7305 43.6029 52.1093 42.7976 52.1969C42.4297 52.2224 42.0604 52.1576 41.7003 52.0923C41.3767 52.0427 41.079 51.9442 40.7802 51.823C39.9451 51.4512 39.1678 50.9603 38.3651 50.5268C37.9178 50.2897 37.4382 50.1217 36.9714 49.9292C36.5656 49.774 36.153 49.6567 35.727 49.5652C35.424 49.4933 35.1227 49.4195 34.8069 49.3969C34.3245 49.3639 33.8588 49.2771 33.3821 49.2792C32.8362 49.3285 32.2854 49.3692 31.7414 49.4486C31.0945 49.5854 30.4378 49.729 29.8232 49.9746C28.8772 50.3545 27.9822 50.8717 27.1798 51.5001C26.7357 51.8758 26.3054 52.3227 25.9067 52.7477C25.3984 53.3417 24.9855 53.9879 24.6417 54.6875C24.2724 55.412 23.9757 56.1708 23.8113 56.9694C23.718 57.3217 23.661 57.6938 23.6153 58.0621C23.5451 58.5395 23.4912 58.9588 23.5026 59.4554C23.4802 60.1433 23.6096 60.7529 23.6876 61.4242C23.9265 62.8767 24.4337 64.2792 25.15 65.5647C25.5264 66.2119 25.9786 66.8318 26.4419 67.4202C26.6113 67.647 26.8296 67.8927 27.0402 68.1089C27.4836 68.5558 27.9457 69.0336 28.4508 69.3958C29.2844 70.0671 30.1964 70.6438 31.1661 71.0936C32.0327 71.5483 32.9355 71.9315 33.8797 72.1934C34.7831 72.4613 35.7142 72.6584 36.6436 72.8175C37.1681 72.8643 37.6193 72.9522 38.14 72.9944C38.7663 73.0093 39.9274 72.9891 40.5937 72.9969C40.8468 72.9926 41.0552 72.9738 41.2863 72.9338C41.6028 72.8923 41.9285 72.8572 42.2465 72.8197C42.8043 72.724 43.364 72.6212 43.913 72.4968C44.814 72.2951 45.7033 72.0569 46.5564 71.7032C47.4924 71.3268 48.4356 70.9568 49.3022 70.4354C49.8682 70.1075 50.4272 69.7644 50.9705 69.3994C51.4579 69.0453 51.9363 68.6838 52.4053 68.2978C52.6782 68.0674 52.9585 67.7874 53.2237 67.5592C53.5086 67.3185 53.7599 67.0902 53.9984 66.7925C54.2646 66.4686 54.6304 66.1272 54.9037 65.798C55.2202 65.3882 55.5321 64.9881 55.839 64.5702C56.0722 64.2264 56.3048 63.8815 56.5241 63.5306C57.1625 62.5145 57.7002 61.4395 58.1733 60.3397C58.6504 59.1654 58.9985 57.9423 59.2852 56.7081C59.4589 55.9071 59.5652 55.0912 59.6641 54.2796C59.7488 53.9464 59.7119 53.693 59.7197 53.3619C59.713 50.1936 59.7243 46.9119 59.7197 43.8716C59.7211 38.6883 59.7187 33.1794 59.7197 28.0036C59.7094 27.1292 59.746 26.2955 59.6978 25.4208C59.6045 24.4482 59.2327 23.5221 58.772 22.6679C58.5816 22.3344 58.3672 22.0203 58.1241 21.723C57.7856 21.304 57.3737 20.688 56.7772 20.7252H56.7719L56.7708 20.7238Z"
      fill="#006AFF"
      style="fill:#006AFF;fill:color(display-p3 0.0000 0.4157 1.0000);fill-opacity:1;" />
    <path
      d="M56.7708 20.7238C56.6149 20.7355 56.4894 20.8181 56.3413 20.9386C56.1492 21.1056 55.9535 21.3033 55.7699 21.4891C55.262 22.0193 54.8236 22.5779 54.3827 23.1432C54.0247 23.6025 53.5869 24.0006 53.1641 24.4316C52.7331 24.8746 52.2837 25.2131 51.7882 25.5654C50.906 26.1453 49.9295 26.5727 48.9297 26.9041C48.6234 27.0005 48.3162 27.0881 48.0046 27.1653C47.602 27.2468 47.1065 27.3514 46.7946 27.6162C46.712 27.6924 46.6585 27.7384 46.65 27.8285C46.5557 32.8384 46.8481 45.6122 46.5181 47.6633C46.4036 48.3474 46.2555 49.0268 45.9315 49.6443C45.6629 50.1766 45.3687 50.7125 44.9554 51.1488C44.3872 51.7305 43.6029 52.1093 42.7976 52.1969C42.4297 52.2224 42.0604 52.1576 41.7003 52.0923C41.3767 52.0427 41.079 51.9442 40.7802 51.823C39.9451 51.4512 39.1678 50.9603 38.3651 50.5268C37.9178 50.2897 37.4382 50.1217 36.9714 49.9292C36.5656 49.774 36.153 49.6567 35.727 49.5652C35.424 49.4933 35.1227 49.4195 34.8069 49.3969C34.3245 49.3639 33.8588 49.2771 33.3821 49.2792C32.8362 49.3285 32.2854 49.3692 31.7414 49.4486C31.0945 49.5854 30.4378 49.729 29.8232 49.9746C28.8772 50.3545 27.9822 50.8717 27.1798 51.5001C26.7357 51.8758 26.3054 52.3227 25.9067 52.7477C25.3984 53.3417 24.9855 53.9879 24.6417 54.6875C24.2724 55.412 23.9757 56.1708 23.8113 56.9694C23.718 57.3217 23.661 57.6938 23.6153 58.0621C23.5451 58.5395 23.4912 58.9588 23.5026 59.4554C23.4802 60.1433 23.6096 60.7529 23.6876 61.4242C23.9265 62.8767 24.4337 64.2792 25.15 65.5647C25.5264 66.2119 25.9786 66.8318 26.4419 67.4202C26.6113 67.647 26.8296 67.8927 27.0402 68.1089C27.4836 68.5558 27.9457 69.0336 28.4508 69.3958C29.2844 70.0671 30.1964 70.6438 31.1661 71.0936C32.0327 71.5483 32.9355 71.9315 33.8797 72.1934C34.7831 72.4613 35.7142 72.6584 36.6436 72.8175C37.1681 72.8643 37.6193 72.9522 38.14 72.9944C38.7663 73.0093 39.9274 72.9891 40.5937 72.9969C40.8468 72.9926 41.0552 72.9738 41.2863 72.9338C41.6028 72.8923 41.9285 72.8572 42.2465 72.8197C42.8043 72.724 43.364 72.6212 43.913 72.4968C44.814 72.2951 45.7033 72.0569 46.5564 71.7032C47.4924 71.3268 48.4356 70.9568 49.3022 70.4354C49.8682 70.1075 50.4272 69.7644 50.9705 69.3994C51.4579 69.0453 51.9363 68.6838 52.4053 68.2978C52.6782 68.0674 52.9585 67.7874 53.2237 67.5592C53.5086 67.3185 53.7599 67.0902 53.9984 66.7925C54.2646 66.4686 54.6304 66.1272 54.9037 65.798C55.2202 65.3882 55.5321 64.9881 55.839 64.5702C56.0722 64.2264 56.3048 63.8815 56.5241 63.5306C57.1625 62.5145 57.7002 61.4395 58.1733 60.3397C58.6504 59.1654 58.9985 57.9423 59.2852 56.7081C59.4589 55.9071 59.5652 55.0912 59.6641 54.2796C59.7488 53.9464 59.7119 53.693 59.7197 53.3619C59.713 50.1936 59.7243 46.9119 59.7197 43.8716C59.7211 38.6883 59.7187 33.1794 59.7197 28.0036C59.7094 27.1292 59.746 26.2955 59.6978 25.4208C59.6045 24.4482 59.2327 23.5221 58.772 22.6679C58.5816 22.3344 58.3672 22.0203 58.1241 21.723C57.7856 21.304 57.3737 20.688 56.7772 20.7252H56.7719L56.7708 20.7238Z"
      fill="url(#paint0_linear_150_7195)" style="" />
    <path
      d="M56.7708 20.7238C56.6149 20.7355 56.4894 20.8181 56.3413 20.9386C56.1492 21.1056 55.9535 21.3033 55.7699 21.4891C55.262 22.0193 54.8236 22.5779 54.3827 23.1432C54.0247 23.6025 53.5869 24.0006 53.1641 24.4316C52.7331 24.8746 52.2837 25.2131 51.7882 25.5654C50.906 26.1453 49.9295 26.5727 48.9297 26.9041C48.6234 27.0005 48.3162 27.0881 48.0046 27.1653C47.602 27.2468 47.1065 27.3514 46.7946 27.6162C46.712 27.6924 46.6585 27.7384 46.65 27.8285C46.5557 32.8384 46.8481 45.6122 46.5181 47.6633C46.4036 48.3474 46.2555 49.0268 45.9315 49.6443C45.6629 50.1766 45.3687 50.7125 44.9554 51.1488C44.3872 51.7305 43.6029 52.1093 42.7976 52.1969C42.4297 52.2224 42.0604 52.1576 41.7003 52.0923C41.3767 52.0427 41.079 51.9442 40.7802 51.823C39.9451 51.4512 39.1678 50.9603 38.3651 50.5268C37.9178 50.2897 37.4382 50.1217 36.9714 49.9292C36.5656 49.774 36.153 49.6567 35.727 49.5652C35.424 49.4933 35.1227 49.4195 34.8069 49.3969C34.3245 49.3639 33.8588 49.2771 33.3821 49.2792C32.8362 49.3285 32.2854 49.3692 31.7414 49.4486C31.0945 49.5854 30.4378 49.729 29.8232 49.9746C28.8772 50.3545 27.9822 50.8717 27.1798 51.5001C26.7357 51.8758 26.3054 52.3227 25.9067 52.7477C25.3984 53.3417 24.9855 53.9879 24.6417 54.6875C24.2724 55.412 23.9757 56.1708 23.8113 56.9694C23.718 57.3217 23.661 57.6938 23.6153 58.0621C23.5451 58.5395 23.4912 58.9588 23.5026 59.4554C23.4802 60.1433 23.6096 60.7529 23.6876 61.4242C23.9265 62.8767 24.4337 64.2792 25.15 65.5647C25.5264 66.2119 25.9786 66.8318 26.4419 67.4202C26.6113 67.647 26.8296 67.8927 27.0402 68.1089C27.4836 68.5558 27.9457 69.0336 28.4508 69.3958C29.2844 70.0671 30.1964 70.6438 31.1661 71.0936C32.0327 71.5483 32.9355 71.9315 33.8797 72.1934C34.7831 72.4613 35.7142 72.6584 36.6436 72.8175C37.1681 72.8643 37.6193 72.9522 38.14 72.9944C38.7663 73.0093 39.9274 72.9891 40.5937 72.9969C40.8468 72.9926 41.0552 72.9738 41.2863 72.9338C41.6028 72.8923 41.9285 72.8572 42.2465 72.8197C42.8043 72.724 43.364 72.6212 43.913 72.4968C44.814 72.2951 45.7033 72.0569 46.5564 71.7032C47.4924 71.3268 48.4356 70.9568 49.3022 70.4354C49.8682 70.1075 50.4272 69.7644 50.9705 69.3994C51.4579 69.0453 51.9363 68.6838 52.4053 68.2978C52.6782 68.0674 52.9585 67.7874 53.2237 67.5592C53.5086 67.3185 53.7599 67.0902 53.9984 66.7925C54.2646 66.4686 54.6304 66.1272 54.9037 65.798C55.2202 65.3882 55.5321 64.9881 55.839 64.5702C56.0722 64.2264 56.3048 63.8815 56.5241 63.5306C57.1625 62.5145 57.7002 61.4395 58.1733 60.3397C58.6504 59.1654 58.9985 57.9423 59.2852 56.7081C59.4589 55.9071 59.5652 55.0912 59.6641 54.2796C59.7488 53.9464 59.7119 53.693 59.7197 53.3619C59.713 50.1936 59.7243 46.9119 59.7197 43.8716C59.7211 38.6883 59.7187 33.1794 59.7197 28.0036C59.7094 27.1292 59.746 26.2955 59.6978 25.4208C59.6045 24.4482 59.2327 23.5221 58.772 22.6679C58.5816 22.3344 58.3672 22.0203 58.1241 21.723C57.7856 21.304 57.3737 20.688 56.7772 20.7252H56.7719L56.7708 20.7238Z"
      fill="url(#paint1_linear_150_7195)" style="" />
    <path
      d="M59.7203 43.8721C59.7249 46.9123 59.7136 50.1942 59.7203 53.3623C59.7126 53.6931 59.7493 53.9464 59.6647 54.2793C59.5658 55.0909 59.4594 55.907 59.2858 56.708C58.999 57.9421 58.6515 59.1656 58.1744 60.3398C57.7013 61.4395 57.1633 62.5142 56.525 63.5303C56.3056 63.8812 56.0727 64.2265 55.8395 64.5703C55.5326 64.9881 55.2204 65.3882 54.9039 65.7979C54.6307 66.1271 54.2658 66.4691 53.9996 66.793C53.7611 67.0907 53.5092 67.3189 53.2242 67.5596C52.9592 67.7878 52.6787 68.0676 52.4059 68.2979C51.937 68.6838 51.4586 69.0454 50.9713 69.3994C50.428 69.7644 49.8693 70.1077 49.3033 70.4355C48.4368 70.9569 47.4933 71.3267 46.5572 71.7031C45.7041 72.0569 44.8147 72.2954 43.9137 72.4971C43.3649 72.6214 42.8053 72.7237 42.2477 72.8193C41.9297 72.8569 41.6032 72.8921 41.2867 72.9336C41.0557 72.9736 40.8473 72.9928 40.5944 72.9971C39.928 72.9893 38.7665 73.009 38.1403 72.9941C37.6198 72.9519 37.1686 72.8642 36.6442 72.8174C35.7149 72.6582 34.7839 72.4613 33.8805 72.1934C32.9363 71.9314 32.0332 71.5485 31.1666 71.0938C30.1969 70.644 29.2854 70.0668 28.4518 69.3955C27.9467 69.0333 27.484 68.5553 27.0406 68.1084C26.8302 67.8923 26.6123 67.6466 26.443 67.4199C25.9797 66.8316 25.5274 66.2117 25.151 65.5645C24.4347 64.2789 23.927 62.8763 23.6881 61.4238C23.6101 60.7527 23.4812 60.1429 23.5035 59.4551C23.4922 58.9588 23.5457 58.5397 23.6158 58.0625C23.6615 57.6944 23.719 57.3219 23.8121 56.9697C23.9766 56.1712 24.2729 55.4119 24.6422 54.6875C24.986 53.9878 25.3996 53.3421 25.9078 52.748C26.3065 52.3231 26.7362 51.8757 27.1803 51.5C27.9827 50.8716 28.8779 50.3546 29.8238 49.9746C30.4384 49.729 31.095 49.585 31.7418 49.4482C32.2799 49.3697 32.8249 49.3288 33.3649 49.2803L33.5192 49.2842C33.9485 49.2965 34.3711 49.3667 34.8072 49.3965C35.123 49.4192 35.4251 49.4935 35.7281 49.5654C36.154 49.6569 36.5666 49.7745 36.9723 49.9297C37.1243 49.9924 37.2781 50.0516 37.4313 50.1123C37.8191 50.2791 38.2306 50.4766 38.692 50.71C39.3805 51.0949 40.0599 51.5022 40.7809 51.8232C41.0796 51.9444 41.3773 52.0432 41.7008 52.0928C42.0609 52.158 42.4306 52.2228 42.7985 52.1973C42.8855 52.1878 42.9719 52.1724 43.0582 52.1562C44.6582 52.0346 54.4345 51.5833 59.7203 39.2412C59.7204 40.8016 59.7207 42.3511 59.7203 43.8721Z"
      fill="url(#paint2_radial_150_7195)" style="" />
    <mask id="mask0_150_7195" style="mask-type:alpha" maskUnits="userSpaceOnUse" x="23" y="20"
      width="37" height="53">
      <path
        d="M56.7708 20.7238C56.6149 20.7355 56.4894 20.8181 56.3413 20.9386C56.1492 21.1056 55.9535 21.3033 55.7699 21.4891C55.262 22.0193 54.8236 22.5779 54.3827 23.1432C54.0247 23.6025 53.5869 24.0006 53.1641 24.4316C52.7331 24.8746 52.2837 25.2131 51.7882 25.5654C50.906 26.1453 49.9295 26.5727 48.9297 26.9041C48.6234 27.0005 48.3162 27.0881 48.0046 27.1653C47.602 27.2468 47.1065 27.3514 46.7946 27.6162C46.712 27.6924 46.6585 27.7384 46.65 27.8285C46.5557 32.8384 46.8481 45.6122 46.5181 47.6633C46.4036 48.3474 46.2555 49.0268 45.9315 49.6443C45.6629 50.1766 45.3687 50.7125 44.9554 51.1488C44.3872 51.7305 43.6029 52.1093 42.7976 52.1969C42.4297 52.2224 42.0604 52.1576 41.7003 52.0923C41.3767 52.0427 41.079 51.9442 40.7802 51.823C39.9451 51.4512 39.1678 50.9603 38.3651 50.5268C37.9178 50.2897 37.4382 50.1217 36.9714 49.9292C36.5656 49.774 36.153 49.6567 35.727 49.5652C35.424 49.4933 35.1227 49.4195 34.8069 49.3969C34.3245 49.3639 33.8588 49.2771 33.3821 49.2792C32.8362 49.3285 32.2854 49.3692 31.7414 49.4486C31.0945 49.5854 30.4378 49.729 29.8232 49.9746C28.8772 50.3545 27.9822 50.8717 27.1798 51.5001C26.7357 51.8758 26.3054 52.3227 25.9067 52.7477C25.3984 53.3417 24.9855 53.9879 24.6417 54.6875C24.2724 55.412 23.9757 56.1708 23.8113 56.9694C23.718 57.3217 23.661 57.6938 23.6153 58.0621C23.5451 58.5395 23.4912 58.9588 23.5026 59.4554C23.4802 60.1433 23.6096 60.7529 23.6876 61.4242C23.9265 62.8767 24.4337 64.2792 25.15 65.5647C25.5264 66.2119 25.9786 66.8318 26.4419 67.4202C26.6113 67.647 26.8296 67.8927 27.0402 68.1089C27.4836 68.5558 27.9457 69.0336 28.4508 69.3958C29.2844 70.0671 30.1964 70.6438 31.1661 71.0936C32.0327 71.5483 32.9355 71.9315 33.8797 72.1934C34.7831 72.4613 35.7142 72.6584 36.6436 72.8175C37.1681 72.8643 37.6193 72.9522 38.14 72.9944C38.7663 73.0093 39.9274 72.9891 40.5937 72.9969C40.8468 72.9926 41.0552 72.9738 41.2863 72.9338C41.6028 72.8923 41.9285 72.8572 42.2465 72.8197C42.8043 72.724 43.364 72.6212 43.913 72.4968C44.814 72.2951 45.7033 72.0569 46.5564 71.7032C47.4924 71.3268 48.4356 70.9568 49.3022 70.4354C49.8682 70.1075 50.4272 69.7644 50.9705 69.3994C51.4579 69.0453 51.9363 68.6838 52.4053 68.2978C52.6782 68.0674 52.9585 67.7874 53.2237 67.5592C53.5086 67.3185 53.7599 67.0902 53.9984 66.7925C54.2646 66.4686 54.6304 66.1272 54.9037 65.798C55.2202 65.3882 55.5321 64.9881 55.839 64.5702C56.0722 64.2264 56.3048 63.8815 56.5241 63.5306C57.1625 62.5145 57.7002 61.4395 58.1733 60.3397C58.6504 59.1654 58.9985 57.9423 59.2852 56.7081C59.4589 55.9071 59.5652 55.0912 59.6641 54.2796C59.7488 53.9464 59.7119 53.693 59.7197 53.3619C59.713 50.1936 59.7243 46.9119 59.7197 43.8716C59.7211 38.6883 59.7187 33.1794 59.7197 28.0036C59.7094 27.1292 59.746 26.2955 59.6978 25.4208C59.6045 24.4482 59.2327 23.5221 58.772 22.6679C58.5816 22.3344 58.3672 22.0203 58.1241 21.723C57.7856 21.304 57.3737 20.688 56.7772 20.7252H56.7719L56.7708 20.7238Z"
        fill="#006AFF"
        style="fill:#006AFF;fill:color(display-p3 0.0000 0.4157 1.0000);fill-opacity:1;" />
      <path
        d="M56.7708 20.7238C56.6149 20.7355 56.4894 20.8181 56.3413 20.9386C56.1492 21.1056 55.9535 21.3033 55.7699 21.4891C55.262 22.0193 54.8236 22.5779 54.3827 23.1432C54.0247 23.6025 53.5869 24.0006 53.1641 24.4316C52.7331 24.8746 52.2837 25.2131 51.7882 25.5654C50.906 26.1453 49.9295 26.5727 48.9297 26.9041C48.6234 27.0005 48.3162 27.0881 48.0046 27.1653C47.602 27.2468 47.1065 27.3514 46.7946 27.6162C46.712 27.6924 46.6585 27.7384 46.65 27.8285C46.5557 32.8384 46.8481 45.6122 46.5181 47.6633C46.4036 48.3474 46.2555 49.0268 45.9315 49.6443C45.6629 50.1766 45.3687 50.7125 44.9554 51.1488C44.3872 51.7305 43.6029 52.1093 42.7976 52.1969C42.4297 52.2224 42.0604 52.1576 41.7003 52.0923C41.3767 52.0427 41.079 51.9442 40.7802 51.823C39.9451 51.4512 39.1678 50.9603 38.3651 50.5268C37.9178 50.2897 37.4382 50.1217 36.9714 49.9292C36.5656 49.774 36.153 49.6567 35.727 49.5652C35.424 49.4933 35.1227 49.4195 34.8069 49.3969C34.3245 49.3639 33.8588 49.2771 33.3821 49.2792C32.8362 49.3285 32.2854 49.3692 31.7414 49.4486C31.0945 49.5854 30.4378 49.729 29.8232 49.9746C28.8772 50.3545 27.9822 50.8717 27.1798 51.5001C26.7357 51.8758 26.3054 52.3227 25.9067 52.7477C25.3984 53.3417 24.9855 53.9879 24.6417 54.6875C24.2724 55.412 23.9757 56.1708 23.8113 56.9694C23.718 57.3217 23.661 57.6938 23.6153 58.0621C23.5451 58.5395 23.4912 58.9588 23.5026 59.4554C23.4802 60.1433 23.6096 60.7529 23.6876 61.4242C23.9265 62.8767 24.4337 64.2792 25.15 65.5647C25.5264 66.2119 25.9786 66.8318 26.4419 67.4202C26.6113 67.647 26.8296 67.8927 27.0402 68.1089C27.4836 68.5558 27.9457 69.0336 28.4508 69.3958C29.2844 70.0671 30.1964 70.6438 31.1661 71.0936C32.0327 71.5483 32.9355 71.9315 33.8797 72.1934C34.7831 72.4613 35.7142 72.6584 36.6436 72.8175C37.1681 72.8643 37.6193 72.9522 38.14 72.9944C38.7663 73.0093 39.9274 72.9891 40.5937 72.9969C40.8468 72.9926 41.0552 72.9738 41.2863 72.9338C41.6028 72.8923 41.9285 72.8572 42.2465 72.8197C42.8043 72.724 43.364 72.6212 43.913 72.4968C44.814 72.2951 45.7033 72.0569 46.5564 71.7032C47.4924 71.3268 48.4356 70.9568 49.3022 70.4354C49.8682 70.1075 50.4272 69.7644 50.9705 69.3994C51.4579 69.0453 51.9363 68.6838 52.4053 68.2978C52.6782 68.0674 52.9585 67.7874 53.2237 67.5592C53.5086 67.3185 53.7599 67.0902 53.9984 66.7925C54.2646 66.4686 54.6304 66.1272 54.9037 65.798C55.2202 65.3882 55.5321 64.9881 55.839 64.5702C56.0722 64.2264 56.3048 63.8815 56.5241 63.5306C57.1625 62.5145 57.7002 61.4395 58.1733 60.3397C58.6504 59.1654 58.9985 57.9423 59.2852 56.7081C59.4589 55.9071 59.5652 55.0912 59.6641 54.2796C59.7488 53.9464 59.7119 53.693 59.7197 53.3619C59.713 50.1936 59.7243 46.9119 59.7197 43.8716C59.7211 38.6883 59.7187 33.1794 59.7197 28.0036C59.7094 27.1292 59.746 26.2955 59.6978 25.4208C59.6045 24.4482 59.2327 23.5221 58.772 22.6679C58.5816 22.3344 58.3672 22.0203 58.1241 21.723C57.7856 21.304 57.3737 20.688 56.7772 20.7252H56.7719L56.7708 20.7238Z"
        fill="url(#paint3_linear_150_7195)" style="" />
      <path
        d="M56.7708 20.7238C56.6149 20.7355 56.4894 20.8181 56.3413 20.9386C56.1492 21.1056 55.9535 21.3033 55.7699 21.4891C55.262 22.0193 54.8236 22.5779 54.3827 23.1432C54.0247 23.6025 53.5869 24.0006 53.1641 24.4316C52.7331 24.8746 52.2837 25.2131 51.7882 25.5654C50.906 26.1453 49.9295 26.5727 48.9297 26.9041C48.6234 27.0005 48.3162 27.0881 48.0046 27.1653C47.602 27.2468 47.1065 27.3514 46.7946 27.6162C46.712 27.6924 46.6585 27.7384 46.65 27.8285C46.5557 32.8384 46.8481 45.6122 46.5181 47.6633C46.4036 48.3474 46.2555 49.0268 45.9315 49.6443C45.6629 50.1766 45.3687 50.7125 44.9554 51.1488C44.3872 51.7305 43.6029 52.1093 42.7976 52.1969C42.4297 52.2224 42.0604 52.1576 41.7003 52.0923C41.3767 52.0427 41.079 51.9442 40.7802 51.823C39.9451 51.4512 39.1678 50.9603 38.3651 50.5268C37.9178 50.2897 37.4382 50.1217 36.9714 49.9292C36.5656 49.774 36.153 49.6567 35.727 49.5652C35.424 49.4933 35.1227 49.4195 34.8069 49.3969C34.3245 49.3639 33.8588 49.2771 33.3821 49.2792C32.8362 49.3285 32.2854 49.3692 31.7414 49.4486C31.0945 49.5854 30.4378 49.729 29.8232 49.9746C28.8772 50.3545 27.9822 50.8717 27.1798 51.5001C26.7357 51.8758 26.3054 52.3227 25.9067 52.7477C25.3984 53.3417 24.9855 53.9879 24.6417 54.6875C24.2724 55.412 23.9757 56.1708 23.8113 56.9694C23.718 57.3217 23.661 57.6938 23.6153 58.0621C23.5451 58.5395 23.4912 58.9588 23.5026 59.4554C23.4802 60.1433 23.6096 60.7529 23.6876 61.4242C23.9265 62.8767 24.4337 64.2792 25.15 65.5647C25.5264 66.2119 25.9786 66.8318 26.4419 67.4202C26.6113 67.647 26.8296 67.8927 27.0402 68.1089C27.4836 68.5558 27.9457 69.0336 28.4508 69.3958C29.2844 70.0671 30.1964 70.6438 31.1661 71.0936C32.0327 71.5483 32.9355 71.9315 33.8797 72.1934C34.7831 72.4613 35.7142 72.6584 36.6436 72.8175C37.1681 72.8643 37.6193 72.9522 38.14 72.9944C38.7663 73.0093 39.9274 72.9891 40.5937 72.9969C40.8468 72.9926 41.0552 72.9738 41.2863 72.9338C41.6028 72.8923 41.9285 72.8572 42.2465 72.8197C42.8043 72.724 43.364 72.6212 43.913 72.4968C44.814 72.2951 45.7033 72.0569 46.5564 71.7032C47.4924 71.3268 48.4356 70.9568 49.3022 70.4354C49.8682 70.1075 50.4272 69.7644 50.9705 69.3994C51.4579 69.0453 51.9363 68.6838 52.4053 68.2978C52.6782 68.0674 52.9585 67.7874 53.2237 67.5592C53.5086 67.3185 53.7599 67.0902 53.9984 66.7925C54.2646 66.4686 54.6304 66.1272 54.9037 65.798C55.2202 65.3882 55.5321 64.9881 55.839 64.5702C56.0722 64.2264 56.3048 63.8815 56.5241 63.5306C57.1625 62.5145 57.7002 61.4395 58.1733 60.3397C58.6504 59.1654 58.9985 57.9423 59.2852 56.7081C59.4589 55.9071 59.5652 55.0912 59.6641 54.2796C59.7488 53.9464 59.7119 53.693 59.7197 53.3619C59.713 50.1936 59.7243 46.9119 59.7197 43.8716C59.7211 38.6883 59.7187 33.1794 59.7197 28.0036C59.7094 27.1292 59.746 26.2955 59.6978 25.4208C59.6045 24.4482 59.2327 23.5221 58.772 22.6679C58.5816 22.3344 58.3672 22.0203 58.1241 21.723C57.7856 21.304 57.3737 20.688 56.7772 20.7252H56.7719L56.7708 20.7238Z"
        fill="url(#paint4_linear_150_7195)" style="" />
    </mask>
    <g mask="url(#mask0_150_7195)">
      <path
        d="M72.9352 78.9433C71.8336 76.1097 70.6292 73.0568 69.483 70.1033C69.3554 69.798 69.2974 69.5487 69.0976 69.2693C68.7102 68.5493 68.3142 67.8278 67.8611 67.1448C67.1451 66.0996 66.3754 65.0867 65.5039 64.1664C64.6631 63.3142 63.7711 62.5089 62.8069 61.7946C62.4749 61.5475 62.1332 61.3102 61.7909 61.0748C61.353 60.7972 60.9168 60.5382 60.4729 60.2717C60.0986 60.0644 59.6335 59.879 59.2677 59.6741C58.9373 59.4836 58.6203 59.3622 58.2675 59.2417C57.9375 59.1255 57.5745 58.967 57.2366 58.8517C56.6595 58.6628 56.0823 58.4999 55.4996 58.3474C54.8607 58.205 54.2146 58.0889 53.5681 57.9894C52.5713 57.819 51.5578 57.8177 50.549 57.8076C49.6259 57.7885 48.7111 57.8895 47.7987 58.0293C47.242 58.1131 46.6831 58.2217 46.1287 58.3355C45.8189 58.4162 45.5028 58.5018 45.1929 58.5783C44.9632 58.625 44.762 58.683 44.5249 58.771C43.907 59.0207 42.8179 59.4248 42.24 59.6665C41.7704 59.8951 41.3821 60.141 40.9107 60.3753C40.103 60.8616 39.3073 61.3838 38.5633 61.9619C37.7791 62.5494 37.0771 63.2347 36.4354 63.9734C35.6957 64.7451 35.0557 65.6147 34.5234 66.5432C34.1848 67.0643 33.9284 67.6777 33.678 68.2551C33.5606 68.5331 33.4461 68.8414 33.3709 69.1142C33.1534 69.8307 32.9575 70.5729 32.8423 71.3126C32.6428 72.7705 32.681 74.2616 32.9868 75.7013C33.1583 76.3548 33.2591 76.9701 33.5301 77.6027C33.7001 78.0691 33.9033 78.4397 34.1422 78.8586C34.3187 79.1849 34.5068 79.5113 34.7217 79.8055C35.1653 80.4895 35.7184 81.0886 36.326 81.6291C36.9006 82.1556 37.5201 82.6072 38.2095 82.9756C38.7355 83.2264 39.2993 83.4865 39.8497 83.6749C40.8257 83.9683 41.8477 84.1244 42.867 84.1342C43.5288 84.1394 44.1929 84.0346 44.8451 83.9268C45.3749 83.8042 45.8973 83.6441 46.418 83.4928L46.5598 83.4343C46.9555 83.2666 47.3236 83.0465 47.7193 82.8599C48.0052 82.7239 48.2587 82.5451 48.5147 82.3679C48.8782 82.1278 49.2196 81.8682 49.5411 81.576C49.6617 81.4607 49.7852 81.3477 49.9076 81.2337C50.2067 80.9385 50.517 80.6065 50.8601 80.2233C51.3613 79.6143 51.8462 78.9876 52.4009 78.4264C52.635 78.2049 52.8765 78.0046 53.1598 77.8407C53.4713 77.6491 53.7916 77.4545 54.1433 77.3444C54.2274 77.3217 54.3135 77.3048 54.3993 77.2885C55.9294 76.8214 65.2032 73.6799 74.6197 83.2569C74.0522 81.8034 73.4889 80.3599 72.9352 78.9433Z"
        fill="url(#paint5_radial_150_7195)" style="" />
    </g>
    <path
      d="M52.2203 19.253L52.21 19.1492C52.21 19.1336 52.2047 19.1127 52.1997 19.0818C52.1944 19.0195 52.1841 18.9571 52.1738 18.9C52.1685 18.8532 52.1582 18.8065 52.148 18.7597L52.1324 18.6923C51.8988 17.5968 51.2392 16.319 50.1642 14.891C49.3851 13.8575 48.6529 13.11 48.6167 13.0682C48.6167 13.0682 48.5753 13.0317 48.5338 13.0008C48.4143 12.9072 48.2481 12.9126 48.1287 13.0008C48.0872 13.032 48.0457 13.0682 48.0351 13.0838C47.9571 13.1617 47.2561 13.8887 46.4979 14.891C45.4229 16.319 44.7584 17.5964 44.5297 18.682L44.5141 18.7547C44.5039 18.8015 44.4932 18.8483 44.4883 18.8897C44.478 18.9521 44.4674 19.0145 44.4624 19.0716V19.0925C44.4624 19.1081 44.4571 19.129 44.4571 19.1442L44.4468 19.2584C44.4415 19.3413 44.4365 19.4295 44.4365 19.5182V19.6479C44.4365 19.6893 44.4365 19.7308 44.4418 19.7673C44.4472 19.8191 44.4521 19.8765 44.4574 19.9336L44.4677 20.0165C44.478 20.0789 44.4886 20.1413 44.4989 20.1983L44.5145 20.2657C44.5301 20.328 44.5457 20.3904 44.5613 20.4475C44.5666 20.4734 44.5769 20.4943 44.5822 20.5148C44.5978 20.5719 44.6187 20.629 44.6393 20.686C44.6495 20.7119 44.6602 20.7431 44.6705 20.7693C44.6914 20.8211 44.7119 20.8678 44.7328 20.9199C44.7484 20.9511 44.764 20.9873 44.7849 21.0238L44.8108 21.0809C44.8211 21.1067 44.8367 21.1276 44.8473 21.1535C44.8888 21.2262 44.9253 21.2935 44.9721 21.3612L44.9824 21.3821C45.0447 21.4757 45.1121 21.5693 45.1901 21.6678L45.2212 21.7043C45.2939 21.7926 45.3666 21.8755 45.4548 21.9641C45.5378 22.047 45.626 22.125 45.7146 22.203L45.7561 22.2342C45.8287 22.2913 45.9014 22.3483 45.995 22.4107L46.052 22.4522C46.13 22.5039 46.213 22.5507 46.3118 22.6081L46.3533 22.634C46.3792 22.6496 46.4104 22.6599 46.4416 22.6755L46.5093 22.7066C46.5663 22.7378 46.6234 22.7637 46.6858 22.7896C46.7428 22.8155 46.7999 22.8364 46.857 22.8569L46.9349 22.8881C46.9661 22.8984 46.9973 22.914 47.0285 22.9246C47.1114 22.9505 47.1947 22.9714 47.2727 22.992L47.3195 23.0022C47.3454 23.0076 47.3663 23.0178 47.3872 23.0178C47.4754 23.0388 47.5637 23.0543 47.6364 23.0646L47.6725 23.0699C47.6984 23.0753 47.7296 23.0802 47.7608 23.0855C47.8387 23.0958 47.9114 23.1011 47.9894 23.1065L48.0308 23.1118C48.0674 23.1171 48.1035 23.1171 48.145 23.122H48.5345C48.571 23.122 48.6072 23.1167 48.6437 23.1118L48.6851 23.1065C48.7631 23.1011 48.8358 23.0909 48.9137 23.0855C48.9449 23.0802 48.9708 23.0753 49.002 23.0699L49.0385 23.0646C49.1165 23.049 49.1994 23.0388 49.2877 23.0178C49.3135 23.0125 49.3394 23.0022 49.3656 22.9969L49.4018 22.9867C49.4798 22.9657 49.568 22.9452 49.646 22.9193C49.6772 22.909 49.7137 22.8984 49.7396 22.8832L49.8175 22.852C49.8746 22.8311 49.9317 22.8105 49.9891 22.7846C50.0515 22.7587 50.1085 22.7329 50.1656 22.7017L50.2329 22.6705C50.2588 22.6602 50.285 22.6446 50.3159 22.629L50.3783 22.5925C50.4612 22.5457 50.5392 22.499 50.6225 22.4472C50.6483 22.4316 50.6742 22.4107 50.7004 22.3951C50.7784 22.3434 50.8511 22.2859 50.9237 22.2289L50.9446 22.2133L50.9705 22.1924C51.0588 22.1197 51.147 22.0417 51.225 21.9588L51.2406 21.9432C51.3133 21.8705 51.3859 21.7872 51.4639 21.694L51.4898 21.6575C51.5677 21.559 51.6351 21.4654 51.6975 21.3718L51.7077 21.3509C51.7545 21.2783 51.796 21.2106 51.8325 21.1432C51.8481 21.1174 51.8584 21.0911 51.874 21.0653L51.8998 21.0185C51.9154 20.9823 51.931 20.9511 51.952 20.9146C51.9729 20.8625 51.9934 20.8161 52.0143 20.764L52.0455 20.6811C52.0664 20.624 52.087 20.5669 52.1026 20.5099L52.1235 20.4425C52.1391 20.3801 52.1547 20.3231 52.1703 20.2557L52.1859 20.1934C52.1962 20.131 52.2118 20.0686 52.2171 20.0115C52.2224 19.9906 52.2224 19.9701 52.2224 19.9491L52.2277 19.9077C52.233 19.8559 52.238 19.8091 52.2433 19.757C52.2433 19.7205 52.2486 19.6791 52.2486 19.6429V19.5026C52.233 19.4352 52.2277 19.347 52.2227 19.2534L52.2203 19.253Z"
      fill="url(#paint6_radial_150_7195)" style="" />
    <path
      d="M59.7781 13.7411L59.7703 13.6631C59.7703 13.6514 59.7664 13.6358 59.7625 13.6124C59.7586 13.5656 59.7508 13.5188 59.743 13.4759C59.7391 13.4409 59.7313 13.4058 59.7235 13.3707L59.7118 13.32C59.5367 12.4981 59.0419 11.54 58.2359 10.4689C57.6518 9.69377 57.1024 9.13306 57.0751 9.10187C57.0751 9.10187 57.0439 9.07457 57.0128 9.05118C56.9231 8.981 56.7987 8.9849 56.709 9.05118C56.6778 9.07457 56.6466 9.10187 56.6388 9.11356C56.5803 9.17204 56.0547 9.71716 55.4859 10.4689C54.6795 11.54 54.1812 12.4981 54.0096 13.3122L53.9979 13.3668C53.9901 13.4019 53.9823 13.437 53.9784 13.4681C53.9706 13.5149 53.9628 13.5617 53.9589 13.6046V13.6202C53.9589 13.6319 53.955 13.6475 53.955 13.6592L53.9473 13.745C53.9434 13.8073 53.9395 13.8736 53.9395 13.9395V14.037C53.9395 14.0682 53.9395 14.0994 53.9434 14.1267C53.9473 14.1657 53.9511 14.2086 53.955 14.2514L53.9628 14.3138C53.9706 14.3606 53.9784 14.4074 53.9862 14.4503L53.9979 14.501C54.0096 14.5478 54.0213 14.5945 54.033 14.6374C54.0369 14.6569 54.0447 14.6725 54.0486 14.6881C54.0603 14.731 54.0759 14.7739 54.0915 14.8168C54.0993 14.8363 54.1071 14.8597 54.1149 14.8791C54.1305 14.9181 54.1461 14.9532 54.1617 14.9922C54.1734 15.0156 54.1851 15.0429 54.2007 15.0702L54.2202 15.1131C54.228 15.1326 54.2397 15.1482 54.2475 15.1677C54.2786 15.2222 54.3059 15.2729 54.341 15.3236L54.3488 15.3392C54.3956 15.4094 54.4463 15.4796 54.5048 15.5533L54.5282 15.5806C54.5828 15.6469 54.6373 15.7092 54.7036 15.7752C54.766 15.8375 54.8323 15.896 54.8982 15.9541L54.9294 15.9775C54.984 16.0204 55.0386 16.0633 55.1084 16.1101L55.1513 16.1413C55.2097 16.1803 55.2721 16.2154 55.3458 16.2583L55.377 16.2777C55.3965 16.2894 55.4199 16.2972 55.4433 16.3089L55.494 16.3323C55.5369 16.3557 55.5798 16.3752 55.6266 16.3947C55.6694 16.4142 55.7123 16.4298 55.7552 16.4454L55.8137 16.4688C55.8371 16.4766 55.8605 16.4883 55.8839 16.4961C55.9463 16.5156 56.0086 16.5312 56.0668 16.5468L56.1019 16.5546C56.1214 16.5585 56.1369 16.5663 56.1525 16.5663C56.2188 16.5819 56.2851 16.5935 56.3397 16.6013L56.367 16.6052C56.3865 16.6091 56.4099 16.613 56.4333 16.6169C56.4917 16.6247 56.5463 16.6286 56.6044 16.6325L56.6356 16.6364C56.6629 16.6403 56.6902 16.6403 56.7214 16.6442H57.0135C57.0408 16.6442 57.068 16.6403 57.0953 16.6364L57.1265 16.6325C57.185 16.6286 57.2396 16.6208 57.2977 16.6169C57.3211 16.613 57.3406 16.6091 57.364 16.6052L57.3913 16.6013C57.4498 16.5896 57.5122 16.5819 57.5781 16.5663C57.5976 16.5624 57.6171 16.5546 57.6366 16.5507L57.6639 16.5429C57.7223 16.5273 57.7886 16.5117 57.8467 16.4922C57.8701 16.4844 57.8974 16.4766 57.9169 16.4649L57.9754 16.4415C58.0183 16.4259 58.0612 16.4103 58.1041 16.3908C58.1508 16.3713 58.1937 16.3518 58.2366 16.3284L58.2873 16.305C58.3068 16.2972 58.3263 16.2855 58.3497 16.2738L58.3965 16.2466C58.4588 16.2115 58.5173 16.1764 58.5797 16.1374C58.5992 16.1257 58.6187 16.1101 58.6382 16.0984C58.6967 16.0594 58.7513 16.0165 58.8055 15.9736L58.8211 15.9619L58.8406 15.9463C58.9069 15.8918 58.9728 15.8333 59.0313 15.7709L59.043 15.7592C59.0975 15.7046 59.1521 15.6422 59.2106 15.5724L59.2301 15.5451C59.2886 15.4711 59.3389 15.4009 59.3857 15.3311L59.3935 15.3155C59.4286 15.2609 59.4598 15.2102 59.4871 15.1595C59.4988 15.14 59.5066 15.1205 59.5183 15.101L59.5377 15.0659C59.5494 15.0386 59.5611 15.0152 59.5767 14.988C59.5923 14.949 59.6079 14.9139 59.6235 14.8749L59.6466 14.8125C59.6622 14.7696 59.6777 14.7267 59.6894 14.6839L59.705 14.6332C59.7167 14.5864 59.7284 14.5435 59.7401 14.4928L59.7518 14.446C59.7596 14.3992 59.7713 14.3525 59.7752 14.3096C59.7791 14.294 59.7791 14.2784 59.7791 14.2628L59.783 14.2316C59.7869 14.1926 59.7908 14.1575 59.7947 14.1185C59.7947 14.0912 59.7986 14.06 59.7986 14.0328V13.9275C59.7869 13.8768 59.783 13.8105 59.7791 13.7407L59.7781 13.7411Z"
      fill="url(#paint7_radial_150_7195)" style="" />
  </g>
  <defs>
    <filter id="filter0_d_150_7195" x="0.5" y="0" width="86" height="86"
      filterUnits="userSpaceOnUse" color-interpolation-filters="sRGB">
      <feFlood flood-opacity="0" result="BackgroundImageFix" />
      <feColorMatrix in="SourceAlpha" type="matrix"
        values="0 0 0 0 0 0 0 0 0 0 0 0 0 0 0 0 0 0 127 0" result="hardAlpha" />
      <feOffset dy="1" />
      <feGaussianBlur stdDeviation="1.5" />
      <feComposite in2="hardAlpha" operator="out" />
      <feColorMatrix type="matrix"
        values="0 0 0 0 0.0980392 0 0 0 0 0.129412 0 0 0 0 0.239216 0 0 0 0.1 0" />
      <feBlend mode="normal" in2="BackgroundImageFix" result="effect1_dropShadow_150_7195" />
      <feBlend mode="normal" in="SourceGraphic" in2="effect1_dropShadow_150_7195" result="shape" />
    </filter>
    <linearGradient id="paint0_linear_150_7195" x1="54.4684" y1="70.6858" x2="17.4725" y2="47.8432"
      gradientUnits="userSpaceOnUse">
      <stop stop-color="#3370FF"
        style="stop-color:#3370FF;stop-color:color(display-p3 0.2000 0.4392 1.0000);stop-opacity:1;" />
      <stop offset="1" stop-color="#749AFD"
        style="stop-color:#749AFD;stop-color:color(display-p3 0.4549 0.6039 0.9922);stop-opacity:1;" />
    </linearGradient>
    <linearGradient id="paint1_linear_150_7195" x1="55.3634" y1="76.2013" x2="73.6043" y2="27.5749"
      gradientUnits="userSpaceOnUse">
      <stop stop-color="#D0EBFF"
        style="stop-color:#D0EBFF;stop-color:color(display-p3 0.8157 0.9216 1.0000);stop-opacity:1;" />
      <stop offset="1" stop-color="#0075FF"
        style="stop-color:#0075FF;stop-color:color(display-p3 0.0000 0.4588 1.0000);stop-opacity:1;" />
    </linearGradient>
    <radialGradient id="paint2_radial_150_7195" cx="0" cy="0" r="1" gradientUnits="userSpaceOnUse"
      gradientTransform="translate(45.5004 51.9994) rotate(90) scale(21.0006 23.4252)">
      <stop stop-color="#006AFF"
        style="stop-color:#006AFF;stop-color:color(display-p3 0.0000 0.4157 1.0000);stop-opacity:1;" />
      <stop offset="1" stop-color="#6DA3FF"
        style="stop-color:#6DA3FF;stop-color:color(display-p3 0.4291 0.6385 1.0000);stop-opacity:1;" />
    </radialGradient>
    <linearGradient id="paint3_linear_150_7195" x1="54.4684" y1="70.6858" x2="17.4725" y2="47.8432"
      gradientUnits="userSpaceOnUse">
      <stop stop-color="#3370FF"
        style="stop-color:#3370FF;stop-color:color(display-p3 0.2000 0.4392 1.0000);stop-opacity:1;" />
      <stop offset="1" stop-color="#749AFD"
        style="stop-color:#749AFD;stop-color:color(display-p3 0.4549 0.6039 0.9922);stop-opacity:1;" />
    </linearGradient>
    <linearGradient id="paint4_linear_150_7195" x1="55.3634" y1="76.2013" x2="73.6043" y2="27.5749"
      gradientUnits="userSpaceOnUse">
      <stop stop-color="#D0EBFF"
        style="stop-color:#D0EBFF;stop-color:color(display-p3 0.8157 0.9216 1.0000);stop-opacity:1;" />
      <stop offset="1" stop-color="#0075FF"
        style="stop-color:#0075FF;stop-color:color(display-p3 0.0000 0.4588 1.0000);stop-opacity:1;" />
    </linearGradient>
    <radialGradient id="paint5_radial_150_7195" cx="0" cy="0" r="1" gradientUnits="userSpaceOnUse"
      gradientTransform="translate(58.0004 80.0005) rotate(-111.156) scale(24.6801 27.5302)">
      <stop stop-color="#8DBCFF"
        style="stop-color:#8DBCFF;stop-color:color(display-p3 0.5512 0.7378 1.0000);stop-opacity:1;" />
      <stop offset="1" stop-color="#6DA3FF"
        style="stop-color:#6DA3FF;stop-color:color(display-p3 0.4291 0.6385 1.0000);stop-opacity:1;" />
    </radialGradient>
    <radialGradient id="paint6_radial_150_7195" cx="0" cy="0" r="1" gradientUnits="userSpaceOnUse"
      gradientTransform="translate(48.3473 22.8054) rotate(-90) scale(10.8457 25.72)">
      <stop stop-color="#0075FF"
        style="stop-color:#0075FF;stop-color:color(display-p3 0.0000 0.4588 1.0000);stop-opacity:1;" />
      <stop offset="1" stop-color="#D0FDFF"
        style="stop-color:#D0FDFF;stop-color:color(display-p3 0.8157 0.9939 1.0000);stop-opacity:1;" />
    </radialGradient>
    <radialGradient id="paint7_radial_150_7195" cx="0" cy="0" r="1" gradientUnits="userSpaceOnUse"
      gradientTransform="translate(56.8726 16.4067) rotate(-90) scale(8.13657 19.2903)">
      <stop stop-color="#0075FF"
        style="stop-color:#0075FF;stop-color:color(display-p3 0.0000 0.4588 1.0000);stop-opacity:1;" />
      <stop offset="1" stop-color="#D0FDFF"
        style="stop-color:#D0FDFF;stop-color:color(display-p3 0.8157 0.9939 1.0000);stop-opacity:1;" />
    </radialGradient>
  </defs>
</svg>
