<svg width="177" height="120" viewBox="0 0 177 120" fill="none" xmlns="http://www.w3.org/2000/svg">
<path d="M36.745 29.875C36.4117 29.5417 36.245 29.1667 36.245 28.75C36.245 28.6667 36.2867 28.5417 36.37 28.375L36.495 28.25C36.5783 27.75 36.62 27.4167 36.62 27.25C36.62 24.1667 36.37 21.625 35.87 19.625C35.87 19.5417 35.87 19.4167 35.87 19.25C35.9533 18.5833 35.8283 18.1667 35.495 18C32.1617 22.25 29.245 24.75 26.745 25.5C26.245 25.5 25.995 25.4167 25.995 25.25C25.995 25.0833 26.2033 24.9583 26.62 24.875C29.4533 22.9583 32.0783 20.2917 34.495 16.875C33.5783 16.375 33.12 15.8333 33.12 15.25C33.2033 15.25 33.245 15.1667 33.245 15C33.495 14.8333 33.7033 14.8333 33.87 15C34.2033 15 34.745 15.25 35.495 15.75C35.8283 15.25 36.495 14.2083 37.495 12.625C37.9117 12.2917 38.12 11.875 38.12 11.375C38.12 11.2083 38.0783 11.0417 37.995 10.875C37.8283 10.7083 37.745 10.5833 37.745 10.5C37.745 10 37.9117 9.75 38.245 9.75C38.495 9.75 38.7033 9.875 38.87 10.125C39.0367 10.2917 39.1617 10.4167 39.245 10.5C39.3283 10.5 39.4533 10.5417 39.62 10.625C40.2033 10.7917 40.495 11.0833 40.495 11.5C40.495 11.75 40.245 12.0833 39.745 12.5C39.4117 12.75 39.2033 12.9167 39.12 13C38.7867 13.5 38.2867 14.25 37.62 15.25C37.2033 15.8333 36.9117 16.25 36.745 16.5C37.4117 17.0833 37.7867 17.5833 37.87 18C38.2033 21.3333 38.37 24.6667 38.37 28C38.37 29.6667 38.2033 30.4583 37.87 30.375C37.7867 30.375 37.7033 30.375 37.62 30.375C37.2033 30.2917 36.9117 30.125 36.745 29.875ZM41.37 20.25C41.37 20 41.5783 19.875 41.995 19.875C45.245 20.625 47.1617 21.9167 47.745 23.75C47.745 24.5 47.495 24.875 46.995 24.875C46.495 24.875 45.7867 24.2917 44.87 23.125C44.5367 22.7083 44.3283 22.4583 44.245 22.375C44.1617 22.2917 43.7867 22.0417 43.12 21.625C41.9533 20.9583 41.37 20.5 41.37 20.25ZM24.87 11.5C24.87 11.25 25.0367 11.125 25.37 11.125C25.87 11.125 26.37 11.125 26.87 11.125C27.12 11.0417 27.5367 10.875 28.12 10.625C30.0367 9.875 31.4533 9.45833 32.37 9.375C37.62 7.875 42.995 7.25 48.495 7.5C49.0783 7.66667 49.37 7.95833 49.37 8.375C49.2867 8.70833 49.0367 8.95833 48.62 9.125C40.5367 8.875 33.4117 10 27.245 12.5C27.245 12.5 27.1617 12.5 26.995 12.5C25.5783 12.5 24.87 12.1667 24.87 11.5ZM64.415 29.5C64.4983 29.3333 64.6233 29.25 64.79 29.25C65.04 29.1667 65.165 28.875 65.165 28.375C65.2483 25.7083 65.29 23.1667 65.29 20.75C63.4567 23.3333 61.8317 24.75 60.415 25C60.165 24.75 60.04 24.5417 60.04 24.375C61.04 23.4583 61.665 22.8333 61.915 22.5C62.915 21.1667 63.8317 19.75 64.665 18.25C64.665 18.1667 64.7483 18 64.915 17.75C65.0817 17.4167 65.165 17.1667 65.165 17C65.165 16.5833 65.0817 16.375 64.915 16.375C62.3317 17.625 60.3733 18.7917 59.04 19.875C58.29 20.4583 57.665 20.75 57.165 20.75C56.4983 20.6667 56.0817 20.0833 55.915 19C55.915 18.5 56.1233 18.2917 56.54 18.375C56.7067 18.375 56.9567 18.5417 57.29 18.875C57.3733 18.9583 57.415 19 57.415 19C57.8317 18.8333 58.3733 18.5417 59.04 18.125C59.4567 17.7917 59.8317 17.5417 60.165 17.375C60.665 17.125 61.4567 16.7083 62.54 16.125C63.9567 15.375 64.915 14.8333 65.415 14.5C65.5817 13.8333 65.415 13.2917 64.915 12.875C64.8317 12.7917 64.8317 12.75 64.915 12.75C64.915 12.6667 64.915 12.625 64.915 12.625C64.915 12.2917 65.0817 12.0833 65.415 12C65.5817 12 65.79 12 66.04 12C66.04 12 66.1233 12 66.29 12C66.9567 11.9167 67.3733 12.0417 67.54 12.375C67.7067 12.4583 67.8317 12.6667 67.915 13C67.9983 13.0833 68.2067 13.125 68.54 13.125C69.1233 13.0417 69.415 13.25 69.415 13.75C69.415 14.25 69.1233 14.5417 68.54 14.625C68.2067 14.7083 67.8317 14.875 67.415 15.125C67.415 15.375 67.3733 15.875 67.29 16.625C67.29 17.2917 67.29 17.7083 67.29 17.875C67.54 18.125 67.9567 18.4583 68.54 18.875C68.8733 19.0417 69.1233 19.1667 69.29 19.25C69.3733 19.3333 69.4983 19.4583 69.665 19.625C69.7483 19.7083 69.8317 19.7917 69.915 19.875C69.915 19.875 69.915 19.9167 69.915 20C69.8317 20.6667 69.5817 21.0417 69.165 21.125C68.915 21.125 68.7483 21.0833 68.665 21C68.415 20.9167 68.0817 20.6667 67.665 20.25C67.415 20.0833 67.2483 19.9583 67.165 19.875C67.2483 20.625 67.2483 21.875 67.165 23.625C67.0817 24.7083 67.04 25.5 67.04 26C67.04 26.6667 67.04 27.3333 67.04 28C67.04 28.1667 66.9983 28.5 66.915 29C66.915 30.0833 66.8317 30.7917 66.665 31.125C66.5817 31.2083 66.3733 31.25 66.04 31.25C65.4567 31.25 64.915 30.6667 64.415 29.5ZM78.79 23.5C78.79 23.3333 79.0817 23.25 79.665 23.25C79.915 23.25 80.165 23.375 80.415 23.625C80.5817 23.7917 80.915 24.0833 81.415 24.5C83.5817 26.1667 84.6233 27.625 84.54 28.875C84.4567 29.625 84.165 30 83.665 30C83.0817 30 82.415 29.1667 81.665 27.5C81.415 27.0833 81.2483 26.7917 81.165 26.625C81.0817 26.4583 80.8733 26.2083 80.54 25.875C79.3733 24.7917 78.79 24 78.79 23.5ZM68.415 28.125C70.165 26.7083 71.165 25.75 71.415 25.25C71.4983 25.1667 71.7483 24.7083 72.165 23.875C71.9983 23.125 72.2483 22.7083 72.915 22.625C73.7483 22.7917 74.2483 23.2917 74.415 24.125C74.415 24.4583 74.2483 24.75 73.915 25C73.7483 25.0833 73.6233 25.1667 73.54 25.25C72.2067 27.25 70.7067 28.3333 69.04 28.5C68.6233 28.5 68.415 28.375 68.415 28.125ZM70.415 12.5C70.4983 11.4167 70.915 10.8333 71.665 10.75C71.9983 10.75 72.165 10.9583 72.165 11.375C72.165 11.5417 72.1233 11.75 72.04 12C72.04 12.1667 72.04 12.2917 72.04 12.375C72.04 13.2917 72.165 13.75 72.415 13.75C74.415 12.8333 76.54 12 78.79 11.25C79.29 11.25 79.5817 11.0833 79.665 10.75C79.665 10.25 79.665 9.79167 79.665 9.375C79.915 9.04167 80.2067 8.875 80.54 8.875C81.9567 9.20833 82.8317 9.83333 83.165 10.75C83.165 11.1667 82.79 11.7083 82.04 12.375C81.79 12.7083 81.6233 12.9167 81.54 13C80.6233 14.75 79.9983 16.125 79.665 17.125C79.665 17.125 79.7483 17.2083 79.915 17.375C80.3317 17.7083 80.5817 18 80.665 18.25C80.4983 18.75 80.165 19.1667 79.665 19.5C77.5817 19.25 75.79 19.625 74.29 20.625C74.2067 20.7083 74.0817 20.8333 73.915 21C73.7483 21.1667 73.54 21.25 73.29 21.25C72.9567 21.25 72.7483 21.1667 72.665 21C72.4983 20.5 72.3317 19.75 72.165 18.75C71.9983 17.75 71.8317 17.0417 71.665 16.625C71.5817 16.5417 71.4983 16.375 71.415 16.125C70.7483 14.7083 70.415 13.5 70.415 12.5ZM74.04 18.875C75.6233 18.4583 76.665 18.1667 77.165 18C77.915 17.5833 78.5817 15.9583 79.165 13.125C79.2483 12.9583 79.29 12.8333 79.29 12.75C79.2067 12.6667 79.1233 12.6667 79.04 12.75C77.4567 13 76.04 13.5 74.79 14.25C74.2067 14.5 73.54 14.7083 72.79 14.875C72.8733 15.2083 73.04 15.7083 73.29 16.375C73.6233 17.4583 73.8733 18.2917 74.04 18.875ZM60.79 11.125C60.8733 10.9583 61.1233 10.8333 61.54 10.75C61.7067 10.6667 61.8317 10.625 61.915 10.625L66.165 8.375C66.3317 8.29167 67.04 7.75 68.29 6.75C68.29 6.58333 68.165 6.375 67.915 6.125C67.5817 5.95833 67.415 5.79167 67.415 5.625C67.4983 5.375 67.79 5.20833 68.29 5.125C69.7067 5.625 70.6233 6.25 71.04 7C71.04 7.41667 70.9983 7.66667 70.915 7.75C70.665 8.08333 70.3733 8.25 70.04 8.25C69.8733 8.25 69.7067 8.25 69.54 8.25C69.3733 8.33333 69.1233 8.54167 68.79 8.875C67.9567 9.375 66.54 9.95833 64.54 10.625C63.4567 10.9583 62.665 11.2083 62.165 11.375C62.0817 11.375 61.9567 11.4167 61.79 11.5C61.54 11.5833 61.3733 11.625 61.29 11.625C61.04 11.5417 60.8733 11.375 60.79 11.125ZM101.21 26.625C101.043 26.2917 100.96 26.0833 100.96 26C101.21 25.75 101.502 25.75 101.835 26C102.668 26.6667 103.502 27 104.335 27C104.585 26.9167 104.835 26.25 105.085 25C105.168 20.9167 104.96 16.5833 104.46 12C104.293 10.5 103.835 9.45833 103.085 8.875C103.085 8.79167 103.085 8.75 103.085 8.75C103.085 8.5 103.21 8.375 103.46 8.375C105.46 8.125 106.377 8.95833 106.21 10.875C106.71 14.7083 106.918 18.5417 106.835 22.375C106.835 23.2917 106.835 24 106.835 24.5C106.835 26.0833 106.335 27.75 105.335 29.5C105.252 29.5833 105.127 29.625 104.96 29.625C103.793 29.5417 102.543 28.5417 101.21 26.625ZM93.96 22.625C93.96 22.0417 94.335 21.25 95.085 20.25C95.1683 20.0833 95.2517 19.9583 95.335 19.875C95.5017 19.7917 95.6683 19.5417 95.835 19.125C96.1683 18.4583 96.5433 18.125 96.96 18.125C97.3767 18.125 97.585 18.3333 97.585 18.75C97.585 19.4167 97.2933 20.1667 96.71 21C96.46 21.4167 96.2933 21.7083 96.21 21.875C95.8767 22.2917 95.6683 22.6667 95.585 23C95.4183 23.0833 95.2517 23.125 95.085 23.125C94.335 23.125 93.96 22.9583 93.96 22.625ZM115.71 20.875C114.877 19.875 114.085 19.1667 113.335 18.75C113.252 18.6667 113.085 18.5833 112.835 18.5C112.085 18.1667 111.585 17.8333 111.335 17.5C111.418 17.25 111.71 17.125 112.21 17.125C115.377 17.9583 117.293 19.125 117.96 20.625C117.877 21.4583 117.585 21.9167 117.085 22C116.585 21.9167 116.127 21.5417 115.71 20.875ZM142.88 30.375C142.713 27.9583 142.672 25.5833 142.755 23.25C142.672 22.9167 142.505 22.625 142.255 22.375C142.005 22.2083 141.88 22 141.88 21.75C141.88 21.3333 142.088 21.1667 142.505 21.25C143.755 21.3333 144.422 21.7083 144.505 22.375C144.505 22.4583 144.505 22.625 144.505 22.875C144.422 23.0417 144.38 23.2083 144.38 23.375C144.38 23.9583 144.38 24.875 144.38 26.125C144.297 27.375 144.255 28.3333 144.255 29C144.088 30.6667 144.672 31.5 146.005 31.5C146.422 31.5 146.797 31.5 147.13 31.5C151.213 31.5833 153.338 30.4583 153.505 28.125C153.505 28.0417 153.547 27.9167 153.63 27.75C153.63 27.25 153.797 27 154.13 27C154.297 27 154.38 27.0417 154.38 27.125C154.463 27.625 154.505 28.1667 154.505 28.75C154.588 30.5833 154.005 31.75 152.755 32.25C151.255 32.8333 149.713 33.125 148.13 33.125C147.13 33.125 146.13 33 145.13 32.75C143.547 32.5 142.797 31.7083 142.88 30.375ZM132.005 31.875V31.75C134.005 29.75 135.088 27.2083 135.255 24.125C135.255 23.9583 135.213 23.7917 135.13 23.625C135.047 23.375 135.005 23.2083 135.005 23.125C135.005 22.875 135.172 22.75 135.505 22.75C136.422 22.8333 136.922 23.2083 137.005 23.875C136.672 27.5417 135.505 30.125 133.505 31.625C133.172 31.875 132.88 32.0417 132.63 32.125C132.547 32.125 132.505 32.125 132.505 32.125C132.255 32.125 132.088 32.0417 132.005 31.875ZM139.255 31.875C138.672 31.7083 138.338 31.375 138.255 30.875C138.672 28.5417 138.797 25.9167 138.63 23C138.63 22.8333 138.505 22.6667 138.255 22.5C138.005 22.25 137.88 22 137.88 21.75C137.88 21.5 138.255 21.375 139.005 21.375C139.172 21.375 139.255 21.375 139.255 21.375C139.588 21.2917 139.922 21.4583 140.255 21.875C140.422 25.375 140.297 28.2917 139.88 30.625C139.88 30.625 139.838 30.75 139.755 31C139.588 31.5833 139.422 31.875 139.255 31.875ZM128.88 29.625C128.88 29.5417 128.88 29.5 128.88 29.5C128.963 28.3333 129.047 27.5417 129.13 27.125C129.13 26.4583 129.338 26.125 129.755 26.125C130.005 26.125 130.213 26.2917 130.38 26.625C130.463 26.7917 130.547 26.9167 130.63 27C130.963 27 131.463 26.5417 132.13 25.625C132.63 25.0417 132.963 24.6667 133.13 24.5C133.213 24.5833 133.255 24.7083 133.255 24.875C133.088 25.625 132.755 26.2917 132.255 26.875C131.505 27.9583 130.797 29.0833 130.13 30.25C130.047 30.3333 129.922 30.375 129.755 30.375C129.255 30.2083 128.963 29.9583 128.88 29.625ZM134.38 20.625C134.38 20.375 134.672 19.9583 135.255 19.375C135.505 19.125 135.672 18.9583 135.755 18.875C135.838 18.7917 135.922 18.6667 136.005 18.5C137.338 16.0833 137.88 14.4167 137.63 13.5C137.13 13.75 136.547 14.0833 135.88 14.5C135.047 15.1667 134.297 15.4583 133.63 15.375C133.297 15.2917 133.088 15.0833 133.005 14.75C133.005 14.6667 133.005 14.5833 133.005 14.5C133.172 14.4167 133.38 14.3333 133.63 14.25C134.13 14.0833 134.838 13.75 135.755 13.25L139.755 11.375C140.338 11.2083 141.13 10.9167 142.13 10.5C144.047 9.83333 145.547 9.5 146.63 9.5C147.13 9.5 147.38 9.75 147.38 10.25C147.38 10.6667 147.172 10.9583 146.755 11.125C144.005 11.375 141.505 12 139.255 13C139.338 13.75 139.13 14.7083 138.63 15.875C138.463 16.2083 138.338 16.4583 138.255 16.625C138.172 16.7917 138.088 17 138.005 17.25C137.588 18.0833 137.422 18.5833 137.505 18.75L138.13 18.5C139.463 18 140.63 17.5833 141.63 17.25L142.255 17C141.922 16.6667 141.505 16.375 141.005 16.125C140.422 15.875 140.13 15.5833 140.13 15.25C140.13 15 140.255 14.875 140.505 14.875C140.588 14.875 140.672 14.875 140.755 14.875C144.672 15.9583 146.88 17.125 147.38 18.375C147.547 19.375 147.005 19.6667 145.755 19.25C145.422 19.1667 145.005 18.9583 144.505 18.625C144.172 18.375 143.922 18.2083 143.755 18.125C143.255 18.2917 142.547 18.5 141.63 18.75C138.713 19.5 136.672 20.3333 135.505 21.25C135.422 21.25 135.338 21.2917 135.255 21.375C134.838 21.2917 134.547 21.0417 134.38 20.625ZM125.63 18.375C125.63 18.2917 125.797 18.125 126.13 17.875C126.297 17.7917 126.38 17.75 126.38 17.75C126.463 17.75 126.672 17.7083 127.005 17.625C127.338 17.625 127.547 17.625 127.63 17.625C128.963 17.7917 129.672 18.3333 129.755 19.25C129.755 19.5 129.588 19.625 129.255 19.625C129.255 19.625 129.213 19.625 129.13 19.625C128.547 19.375 128.213 19.25 128.13 19.25C127.547 19.1667 127.13 19.0833 126.88 19C126.13 18.9167 125.713 18.7083 125.63 18.375ZM131.63 10.625C131.63 10.5417 131.672 10.4583 131.755 10.375C131.755 10.2083 131.755 10.125 131.755 10.125C131.755 9.79167 131.547 9.5 131.13 9.25C130.713 8.91667 130.505 8.625 130.505 8.375C130.505 7.95833 130.63 7.75 130.88 7.75C132.713 8.41667 133.797 9.20833 134.13 10.125C134.047 10.5417 133.88 10.7917 133.63 10.875H132.005C131.755 10.875 131.63 10.7917 131.63 10.625ZM140.13 6.5C140.047 6.33333 139.713 6.08333 139.13 5.75C138.213 5.16667 137.755 4.625 137.755 4.125C137.838 3.79167 138.005 3.58333 138.255 3.5C138.338 3.5 138.463 3.54167 138.63 3.625C138.713 3.625 139.005 3.79167 139.505 4.125C140.005 4.45833 140.255 4.66667 140.255 4.75C140.338 4.75 140.463 4.79167 140.63 4.875C141.797 5.45833 142.38 6.04167 142.38 6.625C142.213 7.20833 141.672 7.625 140.755 7.875C140.338 7.875 140.13 7.5 140.13 6.75C140.13 6.66667 140.13 6.58333 140.13 6.5ZM18.91 64.875C18.91 64.2083 19.035 63.0833 19.285 61.5C19.3683 60.75 19.41 60.2917 19.41 60.125C19.41 59.9583 19.285 59.7917 19.035 59.625C18.7017 59.4583 18.535 59.2917 18.535 59.125C18.535 58.875 19.035 58.75 20.035 58.75C21.035 58.6667 21.535 58.9583 21.535 59.625C21.535 59.9583 21.41 60.25 21.16 60.5C20.8267 61.3333 20.66 62.0417 20.66 62.625C20.5767 63.7917 20.4933 64.8333 20.41 65.75C20.41 67.9167 21.4933 69.0417 23.66 69.125C23.7433 69.125 24.035 69.1667 24.535 69.25C24.8683 69.25 25.035 69.25 25.035 69.25C25.285 69.25 25.6183 69.25 26.035 69.25C26.4517 69.25 26.785 69.25 27.035 69.25C27.1183 69.25 27.2433 69.25 27.41 69.25C30.7433 69.0833 32.5767 67.9583 32.91 65.875C32.91 65.875 32.91 65.6667 32.91 65.25C32.9933 64.5833 33.035 64.2083 33.035 64.125C33.1183 64.125 33.16 64 33.16 63.75C33.2433 63.6667 33.285 63.625 33.285 63.625C33.6183 63.625 33.91 64.0417 34.16 64.875C34.16 64.9583 34.16 65 34.16 65C34.3267 66.25 34.285 67.2083 34.035 67.875C33.7017 69.0417 32.8267 69.8333 31.41 70.25C30.0767 70.6667 28.7433 70.875 27.41 70.875C22.5767 70.9583 19.8683 70.0417 19.285 68.125C19.035 67.4583 18.91 66.375 18.91 64.875ZM15.785 58C15.7017 58 15.4517 58.0417 15.035 58.125C14.6183 58.2083 14.3267 58.2917 14.16 58.375C13.8267 58.5417 13.4517 58.625 13.035 58.625C12.4517 58.5417 12.16 58.25 12.16 57.75C12.16 57.25 12.5767 57 13.41 57C14.3267 57 15.3683 56.7917 16.535 56.375C17.2017 55.2917 17.5767 54.2083 17.66 53.125C17.66 52.9583 17.66 52.875 17.66 52.875C17.5767 52.7917 17.4933 52.7083 17.41 52.625C16.91 52.2083 16.66 51.875 16.66 51.625C16.66 51.2083 16.91 51 17.41 51C18.66 51.5 19.4933 52.0417 19.91 52.625C19.91 52.875 19.7433 53.3333 19.41 54C19.16 54.5 18.9517 54.9583 18.785 55.375C19.2017 55.2083 20.035 54.9167 21.285 54.5C21.535 54.4167 21.7433 54.3333 21.91 54.25C22.4933 54 23.035 53.875 23.535 53.875C24.035 53.875 24.3267 54.25 24.41 55C24.41 55.3333 24.035 55.625 23.285 55.875C23.2017 55.875 23.0767 55.9167 22.91 56C20.4933 56.5 18.8683 56.9167 18.035 57.25C15.2017 62.8333 12.2433 66.3333 9.16 67.75C8.99334 67.8333 8.82667 67.7917 8.66 67.625C8.66 67.4583 8.74334 67.3333 8.91 67.25C11.7433 64.8333 14.035 61.75 15.785 58ZM14.285 50.25C14.285 50 14.3683 49.8333 14.535 49.75C14.785 49.6667 15.16 49.5833 15.66 49.5C16.2433 49.4167 16.66 49.3333 16.91 49.25C17.16 49.0833 18.1183 48.6667 19.785 48C19.9517 47.9167 20.0767 47.875 20.16 47.875C20.41 47.7917 20.785 47.625 21.285 47.375C22.7017 46.625 23.7017 46.25 24.285 46.25C24.7017 46.25 24.91 46.5 24.91 47C24.91 47.6667 24.285 48.125 23.035 48.375C22.4517 48.5417 22.0767 48.6667 21.91 48.75L16.535 50.875C16.1183 50.9583 15.8683 51.0417 15.785 51.125C15.785 51.125 15.7433 51.125 15.66 51.125C15.3267 51.125 14.8683 50.8333 14.285 50.25ZM43.955 68.25C43.955 67.9167 44.1633 67.4583 44.58 66.875C44.9133 66.375 45.1217 66 45.205 65.75C45.7883 64.25 46.08 62.6667 46.08 61C46.08 60.25 45.8717 59.2083 45.455 57.875C44.955 56.4583 44.705 55.3333 44.705 54.5C44.8717 53.8333 45.33 53.4583 46.08 53.375C46.4967 53.375 46.705 53.6667 46.705 54.25C46.705 54.3333 46.6633 54.4583 46.58 54.625C46.4967 54.875 46.455 55.0833 46.455 55.25C46.455 55.6667 46.6633 56.3333 47.08 57.25C47.33 58 47.4967 58.5417 47.58 58.875C47.6633 59.375 47.705 60.1667 47.705 61.25C47.7883 62 47.83 62.5417 47.83 62.875C49.9133 61.0417 51.455 59.0833 52.455 57C52.2883 56.6667 51.955 56.2917 51.455 55.875C50.955 55.375 50.705 54.9167 50.705 54.5C50.705 54.1667 50.83 54 51.08 54C51.4967 54 52.08 54.3333 52.83 55C53.08 55.25 53.2467 55.4167 53.33 55.5C53.6633 55.75 53.955 56.0417 54.205 56.375C54.205 56.4583 54.2467 56.5833 54.33 56.75C54.33 57.5 53.83 57.75 52.83 57.5C52.4133 58.0833 52.0383 58.8333 51.705 59.75C51.6217 59.9167 51.58 60.0417 51.58 60.125C51.4967 60.2083 51.3717 60.375 51.205 60.625C50.5383 61.7917 49.9967 62.5833 49.58 63C49.2467 63.3333 48.8717 63.7083 48.455 64.125C48.2883 64.2917 47.955 64.8333 47.455 65.75C46.205 67.9167 45.4133 69 45.08 69C44.4133 68.9167 44.0383 68.6667 43.955 68.25ZM52.955 68C56.205 65.0833 58.4967 60.8333 59.83 55.25C59.9133 55.0833 59.9967 54.8333 60.08 54.5C60.6633 52.6667 60.955 51.25 60.955 50.25C60.955 50 60.7467 49.6667 60.33 49.25C59.7467 48.6667 59.455 48.125 59.455 47.625C59.455 47.2083 59.6633 47 60.08 47C60.58 47 60.9133 47.25 61.08 47.75C61.1633 48 61.2883 48.2083 61.455 48.375C61.5383 48.4583 61.7467 48.5833 62.08 48.75C62.9967 49.1667 63.455 49.6667 63.455 50.25C63.455 50.5 63.3717 50.75 63.205 51C62.955 51.1667 62.83 51.3333 62.83 51.5C62.4967 52.3333 62.2883 53.1667 62.205 54C61.455 56.75 60.6633 59.1667 59.83 61.25C59.9967 61.3333 60.3717 61.5833 60.955 62C61.1217 62.0833 61.455 62.2917 61.955 62.625C64.0383 63.7083 65.0383 64.7917 64.955 65.875C64.8717 66.7917 64.455 67.2917 63.705 67.375C63.2883 67.375 62.9133 66.8333 62.58 65.75C62.4133 65.5 62.33 65.3333 62.33 65.25C61.2467 63.8333 60.205 62.9167 59.205 62.5C59.1217 62.6667 58.4967 63.5 57.33 65C57.1633 65.1667 57.0383 65.2917 56.955 65.375C56.7883 65.5417 56.4133 65.875 55.83 66.375C54.4967 67.5417 53.6633 68.125 53.33 68.125C53.08 68.125 52.955 68.0833 52.955 68ZM101.5 72.375C101.333 72.375 101.125 72.3333 100.875 72.25C98.9583 71.9167 96.75 70.7083 94.25 68.625C93.75 68.2083 92.5417 66.875 90.625 64.625C89.7083 65.7917 88.75 66.5417 87.75 66.875C87.6667 66.9583 87.5833 67 87.5 67C87.0833 67 86.875 66.875 86.875 66.625C86.9583 66.375 87.125 66.25 87.375 66.25C88.0417 65.75 88.6667 64.9167 89.25 63.75C89.4167 63.5 89.375 63.125 89.125 62.625C89.125 62.5417 89.125 62.5 89.125 62.5C88.9583 62.0833 88.75 61.6667 88.5 61.25C87.5833 59.5833 86.75 57.9167 86 56.25C85.9167 56.1667 85.7917 55.875 85.625 55.375C85.4583 55.125 85.375 54.9583 85.375 54.875C85.2083 54.4583 84.9167 54.3333 84.5 54.5C84.25 54.5833 83.875 54.75 83.375 55C82.7917 55.25 82.375 55.4167 82.125 55.5C81.7917 55.5833 81.5833 55.7917 81.5 56.125C81.5 56.625 81.5 57.125 81.5 57.625C81.5 57.7917 81.5 58.0833 81.5 58.5C81.4167 58.9167 81.375 59.25 81.375 59.5C81.5417 59.4167 81.75 59.3333 82 59.25C82.4167 59 83.0417 58.75 83.875 58.5C84.0417 58.4167 84.1667 58.25 84.25 58C84.5 57.6667 84.7917 57.5 85.125 57.5C85.4583 57.5 85.9583 57.75 86.625 58.25C86.7083 58.3333 86.75 58.375 86.75 58.375C87.0833 58.5417 87.125 58.7917 86.875 59.125C86.5417 59.5417 86.2917 59.9167 86.125 60.25C85.5417 63.5833 84.8333 65.9583 84 67.375C83.6667 67.875 83.2917 68.0417 82.875 67.875C82.5417 67.7917 82.1667 67.4583 81.75 66.875C81.5833 66.7083 81.4583 66.5833 81.375 66.5C81.2917 66.4167 81.2083 66.2083 81.125 65.875C81.125 65.7083 81.2083 65.6667 81.375 65.75C81.4583 65.75 81.625 65.8333 81.875 66C82.0417 66.0833 82.1667 66.1667 82.25 66.25C82.6667 66.25 82.875 66.0833 82.875 65.75C83.2083 65.25 83.5833 64 84 62C84.0833 61.75 84.125 61.5833 84.125 61.5C84.2083 61.3333 84.25 60.875 84.25 60.125C84.25 59.875 84.1667 59.7917 84 59.875C82.5 60.0417 81.4583 60.6667 80.875 61.75C80.125 65.25 78.6667 67.2917 76.5 67.875C76.25 67.875 76.1667 67.7917 76.25 67.625C78.5 65.4583 79.6667 61.8333 79.75 56.75C79.75 56.3333 79.5833 55.7917 79.25 55.125C79.0833 54.875 79 54.6667 79 54.5C79.0833 54.1667 79.3333 53.9583 79.75 53.875C79.9167 53.875 80.125 53.9167 80.375 54C80.625 54.1667 80.8333 54.25 81 54.25C81.0833 54.25 81.1667 54.25 81.25 54.25L84.75 52.875C84.5 51.2917 84.1667 49.625 83.75 47.875C83.5833 46.7083 83.375 46 83.125 45.75C83.0417 45.75 82.875 45.7083 82.625 45.625C81.7083 45.5417 81.2083 45.3333 81.125 45C81.125 44.6667 81.2917 44.4167 81.625 44.25C81.7917 44.25 82.0417 44.25 82.375 44.25C82.7083 44.3333 82.9583 44.375 83.125 44.375C83.2917 44.4583 83.5833 44.5417 84 44.625C84.4167 44.625 84.7083 44.7917 84.875 45.125C85.125 45.875 85.3333 46.9583 85.5 48.375C85.6667 50.0417 85.9167 51.25 86.25 52C86.3333 52.1667 86.5417 52.2083 86.875 52.125C87.2083 52.0417 87.6667 51.9167 88.25 51.75C88.5 51.6667 88.6667 51.625 88.75 51.625C90 51.2083 91.25 51 92.5 51C93 50.9167 93.25 51.125 93.25 51.625C93.25 52.2917 92.2083 52.75 90.125 53C89.7917 53 89.5833 53 89.5 53C89.4167 53 89.1667 53.0833 88.75 53.25C87.5833 53.5 86.9167 53.6667 86.75 53.75C87.3333 55.4167 88.4583 57.875 90.125 61.125C90.2083 61.2917 90.2917 61.4167 90.375 61.5C90.7917 60.8333 91.25 59.4583 91.75 57.375C91.9167 56.9583 91.875 56.625 91.625 56.375C91.625 56.375 91.5417 56.3333 91.375 56.25C91.0417 55.9167 90.875 55.625 90.875 55.375C90.9583 55.0417 91.25 54.8333 91.75 54.75C92.5 55 93.25 55.5833 94 56.5C94.1667 56.6667 94.0833 57 93.75 57.5C93.4167 58.0833 93.125 58.7083 92.875 59.375C92.5417 60.625 92.0833 61.7917 91.5 62.875C93.9167 66.4583 96.875 68.9583 100.375 70.375C100.458 70.375 100.542 70.375 100.625 70.375C100.792 70.375 100.958 69.875 101.125 68.875C101.292 68.2083 101.417 67.75 101.5 67.5C101.5 67.1667 101.583 67 101.75 67C101.75 67 101.833 67.1667 102 67.5C102.25 68.5 102.417 69.6667 102.5 71C102.5 71.3333 102.5 71.625 102.5 71.875C102.25 72.2083 101.917 72.375 101.5 72.375ZM93.5 48.5C93.5 49.0833 93.2083 49.3333 92.625 49.25C92.375 49.25 91.7083 49 90.625 48.5C90.4583 48.3333 90.3333 48.25 90.25 48.25C89.5 47.9167 88.875 47.4583 88.375 46.875C88.2917 46.7917 88.25 46.7083 88.25 46.625C88.25 46.375 88.4583 46.25 88.875 46.25C89.125 46.1667 89.3333 46.25 89.5 46.5C89.6667 46.5833 90 46.6667 90.5 46.75C90.8333 46.8333 91.125 46.9167 91.375 47C92.7083 47.25 93.4167 47.75 93.5 48.5ZM111.67 69.75C111.753 69 112.003 67.9583 112.42 66.625C112.42 66.5417 112.503 66.5 112.67 66.5C113.087 66.5 113.462 66.2083 113.795 65.625C113.795 65.5417 113.92 65.2917 114.17 64.875C114.337 64.4583 114.42 64.25 114.42 64.25C114.42 64.25 114.462 64.2083 114.545 64.125C114.712 63.7917 114.878 63.625 115.045 63.625C115.295 63.625 115.378 63.6667 115.295 63.75C115.295 63.8333 115.295 63.9583 115.295 64.125C115.212 64.2917 115.17 64.4583 115.17 64.625C115.087 64.9583 114.878 65.5 114.545 66.25C113.962 67.5833 113.628 68.5833 113.545 69.25C113.295 70.25 112.92 70.75 112.42 70.75C111.92 70.75 111.67 70.4167 111.67 69.75ZM116.295 65.75C116.295 65.3333 116.545 65.0833 117.045 65C117.212 65 117.337 65 117.42 65C117.67 64.9167 118.045 64.8333 118.545 64.75C120.462 64.25 121.92 63.75 122.92 63.25C124.337 61.75 125.087 60.0833 125.17 58.25C125.17 58 125.128 57.875 125.045 57.875C124.962 57.7917 124.795 57.625 124.545 57.375C124.295 57.2083 124.128 57.0833 124.045 57C123.295 56.75 123.003 55.75 123.17 54C122.67 54.25 122.17 54.5 121.67 54.75C121.67 54.75 121.628 54.7917 121.545 54.875C121.212 55.0417 120.92 55.125 120.67 55.125C120.253 55.125 119.837 54.9167 119.42 54.5C119.42 54.4167 119.378 54.375 119.295 54.375C119.212 54.2917 119.253 54.25 119.42 54.25C120.337 53.75 122.087 52.9583 124.67 51.875L128.17 50.125C128.337 50.125 128.462 50.125 128.545 50.125C128.628 50.125 128.67 50.125 128.67 50.125C129.253 50.2083 129.587 50.4583 129.67 50.875C129.67 51.4583 129.17 51.8333 128.17 52C127.837 52 127.587 52.0417 127.42 52.125C126.67 52.2917 125.628 52.75 124.295 53.5C124.295 54.8333 124.962 55.9167 126.295 56.75C127.045 57.1667 127.42 57.5417 127.42 57.875C127.42 58.2083 127.337 58.5 127.17 58.75C127.087 58.9167 127.003 59.0417 126.92 59.125C126.753 59.4583 126.587 59.9167 126.42 60.5C126.087 61.3333 125.753 62.0833 125.42 62.75C127.92 62.5 130.503 62.3333 133.17 62.25C133.253 62.25 133.337 62.2083 133.42 62.125C133.92 61.9583 134.295 61.875 134.545 61.875C135.628 61.9583 136.212 62.4583 136.295 63.375C136.212 63.9583 135.92 64.2917 135.42 64.375C135.087 64.375 134.67 64.2917 134.17 64.125C133.92 64.0417 133.712 64 133.545 64C128.462 63.75 124.128 64.2083 120.545 65.375C118.962 65.875 117.753 66.1667 116.92 66.25C116.503 66.3333 116.295 66.1667 116.295 65.75ZM107.795 58C107.795 57.6667 108.045 57.5 108.545 57.5C109.045 57.5 109.67 57.4583 110.42 57.375C111.087 57.375 111.628 57.375 112.045 57.375C112.128 57.375 112.295 57.375 112.545 57.375C112.795 57.625 112.92 57.9167 112.92 58.25C112.92 58.9167 112.67 59.25 112.17 59.25C112.17 59.25 112.128 59.25 112.045 59.25C112.045 59.25 111.92 59.2083 111.67 59.125C111.503 59.0417 111.378 59 111.295 59C110.128 59 109.462 58.9583 109.295 58.875C108.295 58.875 107.795 58.5833 107.795 58ZM113.67 49.75L112.42 48.375C112.253 48.2917 112.212 48.1667 112.295 48C112.295 47.9167 112.295 47.875 112.295 47.875C112.295 47.4583 112.42 47.25 112.67 47.25C113.003 47.25 113.587 47.625 114.42 48.375C114.753 48.7083 115.003 48.9167 115.17 49C115.253 49 115.378 49.0417 115.545 49.125C116.295 49.4583 116.67 49.8333 116.67 50.25C116.753 51 116.42 51.4167 115.67 51.5C115.587 51.5 115.503 51.5 115.42 51.5C115.42 51.5 115.378 51.4583 115.295 51.375C115.045 51.0417 114.878 50.875 114.795 50.875C114.712 50.7917 114.587 50.75 114.42 50.75C113.837 50.5833 113.587 50.25 113.67 49.75ZM157.215 71.75C157.215 71.5833 157.34 71.5 157.59 71.5C157.757 71.5 158.048 71.625 158.465 71.875C158.798 72.125 159.048 72.25 159.215 72.25C159.298 72.25 159.465 72.125 159.715 71.875C160.382 70.7083 160.798 69.2917 160.965 67.625C159.632 67.4583 157.59 67.4583 154.84 67.625C154.757 67.625 154.59 67.6667 154.34 67.75C153.757 67.8333 153.298 67.9583 152.965 68.125C152.882 68.125 152.798 68.1667 152.715 68.25C152.465 68.4167 152.215 68.5417 151.965 68.625C151.965 68.625 151.923 68.625 151.84 68.625C151.423 68.625 151.215 68.4167 151.215 68C151.215 67.6667 151.465 67.375 151.965 67.125C152.048 67.0417 152.09 67 152.09 67C152.507 65.8333 152.798 65.0833 152.965 64.75C152.632 64.8333 152.132 65.0417 151.465 65.375C151.215 65.4583 151.007 65.5417 150.84 65.625C150.757 65.625 150.632 65.6667 150.465 65.75C149.715 65.9167 149.257 66 149.09 66C148.007 66.8333 147.173 67.9583 146.59 69.375C146.507 69.4583 146.465 69.625 146.465 69.875C146.382 70.5417 146.09 70.875 145.59 70.875C145.007 70.7917 144.673 70.5417 144.59 70.125C144.673 69.9583 144.757 69.5417 144.84 68.875C145.007 68.2083 145.09 67.8333 145.09 67.75C145.173 67.5 145.298 67.3333 145.465 67.25C145.465 67.1667 145.465 67.125 145.465 67.125C145.798 67.125 146.048 67.125 146.215 67.125C146.465 67.0417 146.84 66.5833 147.34 65.75L146.59 65V64.25C146.84 64.25 147.007 64.2917 147.09 64.375C147.173 64.375 147.257 64.4167 147.34 64.5C147.507 64.5833 147.757 64.625 148.09 64.625C148.257 64.5417 148.507 64.2083 148.84 63.625C149.007 63.375 149.132 63.2083 149.215 63.125C149.382 62.9583 149.507 62.875 149.59 62.875C149.673 62.9583 149.757 63.0417 149.84 63.125C149.84 63.2917 149.798 63.5417 149.715 63.875C149.632 64.125 149.59 64.2917 149.59 64.375C151.173 63.875 152.507 63.375 153.59 62.875C153.673 62.625 153.798 62.2083 153.965 61.625C154.382 60.625 154.673 59.9167 154.84 59.5C154.84 59.4167 154.84 59.3333 154.84 59.25C154.84 59.0833 154.757 58.8333 154.59 58.5C154.423 58.25 154.34 58.0417 154.34 57.875C154.34 57.625 154.548 57.2917 154.965 56.875C155.048 56.7083 155.132 56.5833 155.215 56.5C155.298 56.5 155.382 56.5833 155.465 56.75C155.548 56.8333 155.59 56.875 155.59 56.875C155.757 57.125 155.965 57.4167 156.215 57.75C156.798 57.5833 157.673 57.25 158.84 56.75C159.507 56.4167 159.965 56.2083 160.215 56.125C160.382 56.0417 160.59 55.9583 160.84 55.875C161.173 55.625 161.465 55.5 161.715 55.5C162.882 55.75 163.548 56.25 163.715 57C163.715 57.3333 163.673 57.7083 163.59 58.125C163.507 58.7917 163.465 59.4167 163.465 60C163.548 60 163.84 60 164.34 60C165.34 59.9167 166.048 59.875 166.465 59.875C166.548 59.875 166.715 59.875 166.965 59.875C169.298 59.7083 170.465 60.125 170.465 61.125C170.382 61.7917 170.007 62.1667 169.34 62.25C169.257 62.25 169.132 62.1667 168.965 62C168.798 61.8333 168.632 61.75 168.465 61.75C167.465 61.5 165.798 61.5 163.465 61.75C163.465 62.3333 163.423 63.25 163.34 64.5C163.257 65.25 163.215 65.7917 163.215 66.125C164.632 66.2083 166.465 66.4583 168.715 66.875C169.882 67.125 170.465 67.5417 170.465 68.125C170.465 68.625 170.09 68.875 169.34 68.875C169.257 68.875 169.173 68.875 169.09 68.875C167.507 68.2917 165.465 67.9167 162.965 67.75C162.382 69.6667 161.798 71.2083 161.215 72.375C160.798 73.4583 160.257 74 159.59 74C158.507 73.5 157.715 72.75 157.215 71.75ZM153.965 66.375C156.215 66.0417 158.632 65.9167 161.215 66C161.465 64.25 161.59 62.9583 161.59 62.125C160.757 62.125 159.59 62.375 158.09 62.875C158.257 62.9583 158.465 63.1667 158.715 63.5C159.215 63.9167 159.59 64.2083 159.84 64.375C159.923 64.5417 159.965 64.7083 159.965 64.875C159.965 65.2917 159.715 65.5 159.215 65.5C158.882 65.5 158.507 65.3333 158.09 65C157.757 64.75 157.382 64.3333 156.965 63.75C156.882 63.5833 156.798 63.4583 156.715 63.375C156.632 63.375 156.507 63.4167 156.34 63.5C155.84 63.6667 155.465 63.7917 155.215 63.875C154.632 65.2083 154.215 66.0417 153.965 66.375ZM155.715 62.125C156.548 61.875 157.507 61.5417 158.59 61.125C158.59 61.0417 158.423 60.7917 158.09 60.375C157.507 59.625 157.173 59.1667 157.09 59C157.007 59 156.923 59.0417 156.84 59.125C156.84 59.625 156.798 59.9583 156.715 60.125C156.548 60.2917 156.215 60.9583 155.715 62.125ZM159.715 60.875C160.465 60.7917 161.09 60.625 161.59 60.375C161.59 59.5417 161.59 58.625 161.59 57.625C161.507 57.375 161.382 57.2917 161.215 57.375C160.215 57.625 159.34 57.9167 158.59 58.25L159.84 59.5C159.84 59.5833 159.84 59.7083 159.84 59.875C159.84 60.375 159.798 60.7083 159.715 60.875ZM143.465 57.875C143.882 57.4583 144.257 57.25 144.59 57.25C146.423 57.5 147.382 58.0417 147.465 58.875C147.382 59.2083 147.09 59.4167 146.59 59.5C145.59 59.1667 144.548 58.625 143.465 57.875ZM152.84 55.75C154.257 53.1667 155.215 50 155.715 46.25C155.715 46 155.548 45.75 155.215 45.5C154.965 45.25 154.84 45.0417 154.84 44.875C154.84 44.625 154.965 44.4167 155.215 44.25C156.465 44.5833 157.382 44.9167 157.965 45.25V46.5C157.715 46.5833 157.507 47.0417 157.34 47.875C157.007 49.875 156.423 51.6667 155.59 53.25C156.923 52.75 158.465 51.7917 160.215 50.375C160.965 49.875 161.59 49.625 162.09 49.625C162.423 49.7083 162.632 50 162.715 50.5C162.715 50.75 162.548 50.9167 162.215 51C161.382 51.3333 160.923 51.5417 160.84 51.625C158.34 53.125 156.257 54.2917 154.59 55.125C154.59 55.125 154.507 55.2083 154.34 55.375C153.923 55.7917 153.632 56.0417 153.465 56.125C153.298 56.2917 153.132 56.3333 152.965 56.25C152.798 56.0833 152.757 55.9167 152.84 55.75ZM146.215 49.625C146.215 49.375 146.257 49.2083 146.34 49.125C146.423 49.125 146.507 49.125 146.59 49.125C146.757 49.125 146.882 49.125 146.965 49.125C146.965 49.125 147.048 49.1667 147.215 49.25C148.298 49.9167 148.923 50.2917 149.09 50.375C149.423 50.5417 149.59 50.875 149.59 51.375C149.59 51.875 149.34 52.1667 148.84 52.25C148.84 52.25 148.798 52.25 148.715 52.25C147.882 51.8333 147.423 51.625 147.34 51.625C146.923 51.125 146.548 50.4583 146.215 49.625Z" fill="#353E5C" style="fill:#353E5C;fill:color(display-p3 0.2078 0.2431 0.3608);fill-opacity:1;"/>
<path d="M41.34 108.32H59.2697V109.094H41.34V108.32ZM74.8341 100.445L70.545 108.812L74.8341 116.969C74.8809 117.109 74.8575 117.227 74.7638 117.32C74.6231 117.414 74.5059 117.391 74.4122 117.25L69.9122 108.812L74.4122 100.164C74.5059 100.023 74.6231 100 74.7638 100.094C74.9044 100.141 74.9278 100.258 74.8341 100.445ZM72.6544 100.445L68.3653 108.812L72.6544 116.969C72.7013 117.109 72.6778 117.227 72.5841 117.32C72.4434 117.414 72.3263 117.391 72.2325 117.25L67.7325 108.812L72.2325 100.164C72.3263 100.023 72.4434 100 72.5841 100.094C72.7247 100.141 72.7481 100.258 72.6544 100.445ZM91.3125 114.719C91.0312 114.391 90.7266 114.086 90.3984 113.805C89.9297 113.242 89.6953 112.75 89.6953 112.328C89.6953 112.281 89.6953 112.234 89.6953 112.188C89.7891 112.234 89.8594 112.352 89.9062 112.539C89.9531 112.68 90 112.773 90.0469 112.82C90.5156 113.383 90.9844 113.734 91.4531 113.875C91.7344 113.828 91.9688 113.5 92.1562 112.891C92.4375 112.141 92.6953 111.016 92.9297 109.516C93.0703 108.625 93.1875 107.945 93.2812 107.477C93.2812 107.43 93.2812 107.406 93.2812 107.406C93.2812 107.406 93.3047 107.289 93.3516 107.055C93.3984 106.68 93.4219 106.469 93.4219 106.422V106.352C93.375 106.305 93.3281 106.281 93.2812 106.281C93.2344 106.281 93.1641 106.281 93.0703 106.281C92.3203 106.328 91.5938 106.539 90.8906 106.914C90 110.711 88.5469 113.008 86.5312 113.805C86.4844 113.805 86.4141 113.805 86.3203 113.805C86.2266 113.805 86.1797 113.805 86.1797 113.805C86.1797 113.758 86.1797 113.734 86.1797 113.734C86.1797 113.734 86.2266 113.688 86.3203 113.594C87.9141 112.375 89.0391 110.312 89.6953 107.406C89.6016 107.453 89.4141 107.547 89.1328 107.688C88.4766 108.062 88.0078 108.344 87.7266 108.531C87.6328 108.578 87.5625 108.602 87.5156 108.602C87.2812 108.555 87.1641 108.438 87.1641 108.25C87.1641 108.109 87.3047 107.945 87.5859 107.758C87.7734 107.664 88.0547 107.523 88.4297 107.336C89.2734 106.961 89.7656 106.68 89.9062 106.492C90.0469 105.133 90.1172 104.102 90.1172 103.398C90.0703 103.164 89.8828 102.953 89.5547 102.766C89.2266 102.578 89.0625 102.414 89.0625 102.273C89.0625 102.039 89.2031 101.922 89.4844 101.922C89.5781 101.922 89.6484 101.922 89.6953 101.922L90.9609 102.414C91.0078 102.414 91.1016 102.484 91.2422 102.625C91.2422 102.719 91.2422 102.836 91.2422 102.977C91.2422 103.023 91.2422 103.094 91.2422 103.188C91.1953 103.328 91.1719 103.422 91.1719 103.469C91.1719 103.562 91.1484 103.82 91.1016 104.242C91.0078 105.133 90.9609 105.766 90.9609 106.141C91.2422 106.047 91.8281 105.812 92.7188 105.438C92.7656 105.438 92.8359 105.414 92.9297 105.367C93.1172 105.273 93.2578 105.227 93.3516 105.227C94.0547 105.414 94.5234 105.719 94.7578 106.141C94.7578 106.141 94.7344 106.141 94.6875 106.141C94.3125 107.172 94.0547 108.25 93.9141 109.375C93.8672 109.422 93.8672 109.562 93.9141 109.797C93.9141 109.844 93.9141 109.867 93.9141 109.867C93.9141 109.867 93.8672 110.008 93.7734 110.289C93.7266 110.523 93.6797 110.664 93.6328 110.711C93.3984 112.773 92.8359 114.133 91.9453 114.789C91.9453 114.836 91.8984 114.859 91.8047 114.859C91.6172 114.859 91.4531 114.812 91.3125 114.719ZM81.8906 113.453C82.1719 113.312 82.4297 113.008 82.6641 112.539C83.2266 111.836 83.8125 110.805 84.4219 109.445C84.3281 109.352 84.1641 109.234 83.9297 109.094C83.5078 108.812 83.2031 108.578 83.0156 108.391C82.9219 108.344 82.8516 108.25 82.8047 108.109C82.8047 108.016 82.8984 107.945 83.0859 107.898C83.3203 107.898 83.6484 108.016 84.0703 108.25C84.3516 108.391 84.5625 108.484 84.7031 108.531C84.7969 108.297 84.9141 107.945 85.0547 107.477C85.1484 107.055 85.2422 106.727 85.3359 106.492V106.281H85.1953C84.9141 106.422 84.7031 106.516 84.5625 106.562C84.375 106.656 84.0938 106.844 83.7188 107.125C83.3438 107.406 83.0625 107.617 82.875 107.758C82.8281 107.805 82.7578 107.828 82.6641 107.828C82.2891 107.781 82.0781 107.641 82.0312 107.406C82.0312 107.312 82.4531 107.031 83.2969 106.562C84.5625 105.812 85.1953 105.344 85.1953 105.156C85.1953 105.016 85.1953 104.875 85.1953 104.734C85.1953 104.5 85.3594 104.359 85.6875 104.312C86.2031 104.453 86.5781 104.641 86.8125 104.875C86.8125 104.922 86.8125 104.992 86.8125 105.086C86.8125 105.227 86.8125 105.32 86.8125 105.367C86.8125 105.367 86.7891 105.414 86.7422 105.508C86.6953 105.555 86.6719 105.602 86.6719 105.648C86.25 106.773 85.875 107.922 85.5469 109.094C85.6875 109.188 85.8984 109.328 86.1797 109.516C86.5078 109.75 86.7656 109.938 86.9531 110.078C87.2812 110.359 87.4453 110.617 87.4453 110.852C87.4453 111.227 87.3047 111.414 87.0234 111.414C86.9297 111.414 86.7656 111.344 86.5312 111.203C86.4844 111.109 86.4375 111.062 86.3906 111.062C85.9688 110.594 85.5703 110.219 85.1953 109.938C84.5859 111.156 83.9062 112.188 83.1562 113.031C82.875 113.219 82.7109 113.312 82.6641 113.312C82.6172 113.312 82.5703 113.359 82.5234 113.453C82.3359 113.594 82.1953 113.664 82.1016 113.664C81.9609 113.617 81.8906 113.547 81.8906 113.453ZM107.51 117.109C107.51 117.109 107.486 117.133 107.439 117.18C107.346 117.367 107.252 117.461 107.158 117.461C106.783 117.367 106.174 117.133 105.33 116.758C105.283 116.711 105.236 116.688 105.189 116.688C105.096 116.5 105.166 116.406 105.4 116.406C105.541 116.406 105.705 116.43 105.893 116.477C106.314 116.57 106.666 116.547 106.947 116.406C107.557 115.75 107.768 114.18 107.58 111.695C107.58 111.648 107.557 111.602 107.51 111.555C107.463 111.414 107.393 111.344 107.299 111.344C107.018 111.438 106.572 111.602 105.963 111.836C104.744 112.211 103.853 112.539 103.291 112.82C103.057 112.961 102.893 112.961 102.799 112.82C102.752 112.727 102.775 112.539 102.869 112.258C102.916 112.117 103.361 111.906 104.205 111.625C104.58 111.531 104.791 111.461 104.838 111.414C105.025 111.367 105.283 111.273 105.611 111.133C106.314 110.898 106.83 110.711 107.158 110.57C107.111 110.523 107.018 110.43 106.877 110.289C106.596 110.102 106.455 109.961 106.455 109.867C106.502 109.586 106.643 109.445 106.877 109.445C106.924 109.445 106.947 109.445 106.947 109.445C106.994 109.305 107.111 109.047 107.299 108.672C107.439 108.391 107.533 108.203 107.58 108.109C107.111 108.203 106.432 108.508 105.541 109.023C105.213 109.211 104.978 109.352 104.838 109.445C104.744 109.633 104.65 109.703 104.557 109.656C104.275 109.656 104.111 109.539 104.064 109.305C104.252 108.742 104.58 108.391 105.049 108.25C105.049 108.25 105.072 108.25 105.119 108.25C105.213 108.297 105.283 108.32 105.33 108.32C105.377 108.32 105.4 108.32 105.4 108.32C105.728 108.133 106.197 107.898 106.807 107.617C107.275 107.43 107.627 107.289 107.861 107.195C108.002 107.148 108.072 107.055 108.072 106.914C108.072 106.867 108.072 106.797 108.072 106.703C108.025 106.609 108.002 106.539 108.002 106.492C108.002 106.258 108.189 106.141 108.564 106.141C109.408 106.328 109.9 106.633 110.041 107.055C110.041 107.336 109.853 107.547 109.478 107.688C109.338 107.734 109.244 107.781 109.197 107.828C108.541 108.438 107.978 109.07 107.51 109.727C107.557 109.773 107.603 109.82 107.65 109.867C107.838 109.961 108.025 110.102 108.213 110.289C109.197 110.102 110.158 109.984 111.096 109.938C111.799 109.938 112.15 110.102 112.15 110.43C112.103 110.852 111.916 111.086 111.588 111.133C110.51 110.992 109.525 111.016 108.635 111.203C108.541 111.297 108.518 111.414 108.564 111.555C108.564 111.648 108.564 111.695 108.564 111.695C108.752 114.742 108.4 116.547 107.51 117.109ZM99.7753 108.953C99.7753 108.812 99.8925 108.555 100.127 108.18C100.174 108.039 100.221 107.945 100.268 107.898C100.361 107.758 100.502 107.547 100.689 107.266C100.971 106.656 101.252 106.234 101.533 106C101.533 106 101.557 106 101.603 106C101.791 105.953 101.885 106 101.885 106.141C101.885 106.328 101.885 106.539 101.885 106.773C102.213 106.773 102.518 106.703 102.799 106.562C102.986 106.469 103.408 106.281 104.064 106C105.002 105.578 105.588 105.297 105.822 105.156C106.103 104.922 106.502 104.453 107.018 103.75C107.252 103.422 107.439 103.188 107.58 103.047C107.674 102.906 107.791 102.719 107.932 102.484C108.072 102.203 108.189 102.016 108.283 101.922C108.283 101.875 108.353 101.805 108.494 101.711C108.775 101.477 108.916 101.289 108.916 101.148C108.822 101.102 108.611 100.914 108.283 100.586C108.236 100.492 108.213 100.422 108.213 100.375C108.26 100.141 108.4 100 108.635 99.9531C109.057 100.094 109.572 100.445 110.182 101.008C110.182 101.055 110.182 101.102 110.182 101.148C110.228 101.43 110.205 101.641 110.111 101.781C110.064 101.781 109.947 101.875 109.76 102.062C109.572 102.203 109.455 102.273 109.408 102.273C109.174 102.508 108.846 102.883 108.424 103.398C107.908 104.055 107.51 104.5 107.228 104.734C108.963 104.125 110.697 103.844 112.432 103.891C114.307 104.312 115.385 104.922 115.666 105.719C115.666 106.141 115.244 106.375 114.4 106.422C114.213 106.422 114.096 106.422 114.049 106.422C113.908 106.469 113.674 106.516 113.346 106.562C112.736 106.75 112.244 106.844 111.869 106.844C111.728 106.797 111.635 106.703 111.588 106.562C111.588 106.516 111.846 106.375 112.361 106.141C113.064 105.812 113.486 105.578 113.627 105.438C113.439 105.203 113.041 105.039 112.432 104.945C112.385 104.945 112.361 104.945 112.361 104.945C109.924 104.383 106.643 105.18 102.518 107.336C102.471 107.383 102.4 107.43 102.307 107.477C101.978 107.758 101.674 107.852 101.393 107.758C101.346 107.852 101.275 107.992 101.182 108.18C100.713 109.07 100.408 109.492 100.268 109.445C99.9863 109.398 99.8222 109.234 99.7753 108.953ZM103.924 102.062C103.924 101.594 104.088 101.359 104.416 101.359C104.65 101.359 104.791 101.641 104.838 102.203C104.885 102.297 104.908 102.367 104.908 102.414C104.955 102.508 105.049 102.766 105.189 103.188C105.189 103.281 105.189 103.352 105.189 103.398C105.189 103.586 105.096 103.68 104.908 103.68C104.299 103.633 103.971 103.094 103.924 102.062ZM106.033 102.555C105.986 102.227 105.963 101.828 105.963 101.359C105.963 101.172 105.963 101.008 105.963 100.867C106.197 100.586 106.432 100.586 106.666 100.867C106.947 101.383 107.088 101.969 107.088 102.625C107.041 102.859 106.924 102.977 106.736 102.977C106.455 102.977 106.221 102.836 106.033 102.555ZM121.035 116.969L125.324 108.602L121.035 100.445C120.988 100.305 121.012 100.188 121.105 100.094C121.246 100 121.363 100.023 121.457 100.164L126.027 108.602L121.457 117.25C121.363 117.391 121.246 117.414 121.105 117.32C120.965 117.273 120.941 117.156 121.035 116.969ZM123.215 116.969L127.504 108.602L123.215 100.445C123.168 100.305 123.191 100.188 123.285 100.094C123.426 100 123.543 100.023 123.637 100.164L128.137 108.602L123.637 117.25C123.543 117.391 123.426 117.414 123.285 117.32C123.144 117.273 123.121 117.156 123.215 116.969Z" fill="#353E5C" style="fill:#353E5C;fill:color(display-p3 0.2078 0.2431 0.3608);fill-opacity:1;"/>
</svg>
