<svg width="148" height="40" viewBox="0 0 148 40" fill="none" xmlns="http://www.w3.org/2000/svg">
<path d="M32.7589 2.3C33.5949 2.3 34.2512 2.509 34.7279 2.927C35.2119 3.345 35.4539 3.928 35.4539 4.676C35.4539 5.16 35.3439 5.58533 35.1239 5.952C34.9039 6.31133 34.5886 6.59 34.1779 6.788C33.7746 6.97867 33.3016 7.074 32.7589 7.074H30.4819V10H29.7119V2.3H32.7589ZM32.9899 6.348C33.2906 6.348 33.5692 6.282 33.8259 6.15C34.0826 6.018 34.2879 5.82733 34.4419 5.578C34.6032 5.32867 34.6839 5.028 34.6839 4.676C34.6839 4.13333 34.5189 3.72267 34.1889 3.444C33.8662 3.158 33.4666 3.015 32.9899 3.015H30.4819V6.348H32.9899ZM39.3545 10.176C38.8045 10.176 38.2985 10.0367 37.8365 9.758C37.3818 9.47933 37.0225 9.10167 36.7585 8.625C36.4945 8.141 36.3625 7.60933 36.3625 7.03C36.3625 6.48 36.4945 5.974 36.7585 5.512C37.0225 5.04267 37.3818 4.67233 37.8365 4.401C38.2985 4.12967 38.8045 3.994 39.3545 3.994C39.9045 3.994 40.4068 4.12967 40.8615 4.401C41.3162 4.67233 41.6755 5.039 41.9395 5.501C42.2035 5.963 42.3355 6.47267 42.3355 7.03C42.3355 7.60933 42.2035 8.141 41.9395 8.625C41.6755 9.10167 41.3162 9.47933 40.8615 9.758C40.4068 10.0367 39.9045 10.176 39.3545 10.176ZM39.3545 9.461C39.8018 9.461 40.1942 9.34733 40.5315 9.12C40.8688 8.89267 41.1255 8.592 41.3015 8.218C41.4775 7.844 41.5655 7.44067 41.5655 7.008C41.5655 6.612 41.4738 6.238 41.2905 5.886C41.1145 5.534 40.8578 5.25167 40.5205 5.039C40.1905 4.819 39.8018 4.709 39.3545 4.709C38.9145 4.709 38.5258 4.819 38.1885 5.039C37.8512 5.259 37.5908 5.545 37.4075 5.897C37.2242 6.249 37.1325 6.61933 37.1325 7.008C37.1325 7.44067 37.2205 7.844 37.3965 8.218C37.5798 8.592 37.8402 8.89267 38.1775 9.12C38.5148 9.34733 38.9072 9.461 39.3545 9.461ZM42.6638 4.17H43.3348L45.0398 9.23L46.5798 4.17H47.4818L49.0218 9.23L50.7268 4.17H51.3978L49.4728 10H48.5708L47.0308 4.929L45.4908 10H44.5888L42.6638 4.17ZM54.6608 10.165C54.1182 10.165 53.6232 10.0293 53.1758 9.758C52.7285 9.47933 52.3728 9.10533 52.1088 8.636C51.8522 8.15933 51.7238 7.63133 51.7238 7.052C51.7238 6.49467 51.8558 5.985 52.1198 5.523C52.3838 5.05367 52.7395 4.687 53.1868 4.423C53.6415 4.15167 54.1402 4.016 54.6828 4.016C55.2622 4.016 55.7645 4.14433 56.1898 4.401C56.6225 4.65767 56.9525 5.00967 57.1798 5.457C57.4072 5.90433 57.5208 6.403 57.5208 6.953C57.5208 7.173 57.5062 7.37467 57.4768 7.558H52.5488C52.6222 7.932 52.7688 8.262 52.9888 8.548C53.2088 8.82667 53.4655 9.043 53.7588 9.197C54.0595 9.34367 54.3638 9.417 54.6718 9.417C55.1192 9.417 55.5115 9.329 55.8488 9.153C56.1862 8.96967 56.4648 8.74967 56.6848 8.493L57.2898 8.878C57.0258 9.32533 56.6628 9.65167 56.2008 9.857C55.7388 10.0623 55.2255 10.165 54.6608 10.165ZM56.7288 6.81C56.6628 6.238 56.4538 5.754 56.1018 5.358C55.7572 4.962 55.2878 4.764 54.6938 4.764C54.3272 4.764 53.9825 4.84833 53.6598 5.017C53.3445 5.18567 53.0805 5.424 52.8678 5.732C52.6625 6.04 52.5415 6.39933 52.5048 6.81H56.7288ZM59.4316 4.17V4.918C59.6076 4.60267 59.9082 4.37167 60.3336 4.225C60.7662 4.07833 61.2612 4.005 61.8186 4.005V4.665C61.3639 4.665 60.9569 4.72733 60.5976 4.852C60.2382 4.97667 59.9559 5.15633 59.7506 5.391C59.5526 5.61833 59.4536 5.87867 59.4536 6.172V10H58.6836V4.17H59.4316ZM64.8552 10.165C64.3125 10.165 63.8175 10.0293 63.3702 9.758C62.9228 9.47933 62.5672 9.10533 62.3032 8.636C62.0465 8.15933 61.9182 7.63133 61.9182 7.052C61.9182 6.49467 62.0502 5.985 62.3142 5.523C62.5782 5.05367 62.9338 4.687 63.3812 4.423C63.8358 4.15167 64.3345 4.016 64.8772 4.016C65.4565 4.016 65.9588 4.14433 66.3842 4.401C66.8168 4.65767 67.1468 5.00967 67.3742 5.457C67.6015 5.90433 67.7152 6.403 67.7152 6.953C67.7152 7.173 67.7005 7.37467 67.6712 7.558H62.7432C62.8165 7.932 62.9632 8.262 63.1832 8.548C63.4032 8.82667 63.6598 9.043 63.9532 9.197C64.2538 9.34367 64.5582 9.417 64.8662 9.417C65.3135 9.417 65.7058 9.329 66.0432 9.153C66.3805 8.96967 66.6592 8.74967 66.8792 8.493L67.4842 8.878C67.2202 9.32533 66.8572 9.65167 66.3952 9.857C65.9332 10.0623 65.4198 10.165 64.8552 10.165ZM66.9232 6.81C66.8572 6.238 66.6482 5.754 66.2962 5.358C65.9515 4.962 65.4822 4.764 64.8882 4.764C64.5215 4.764 64.1768 4.84833 63.8542 5.017C63.5388 5.18567 63.2748 5.424 63.0622 5.732C62.8568 6.04 62.7358 6.39933 62.6992 6.81H66.9232ZM74.4989 2.146V10H73.7509V8.878C73.4942 9.25933 73.1679 9.56733 72.7719 9.802C72.3759 10.0367 71.9139 10.154 71.3859 10.154C70.8432 10.154 70.3482 10.0183 69.9009 9.747C69.4609 9.46833 69.1126 9.09067 68.8559 8.614C68.5992 8.13733 68.4709 7.60933 68.4709 7.03C68.4709 6.48 68.5992 5.974 68.8559 5.512C69.1126 5.05 69.4609 4.687 69.9009 4.423C70.3482 4.15167 70.8432 4.016 71.3859 4.016C71.9139 4.016 72.3759 4.12967 72.7719 4.357C73.1679 4.577 73.4942 4.874 73.7509 5.248V2.146H74.4989ZM71.5619 9.494C71.9652 9.494 72.3356 9.384 72.6729 9.164C73.0176 8.944 73.2889 8.65067 73.4869 8.284C73.6922 7.91 73.7949 7.503 73.7949 7.063C73.7949 6.645 73.6959 6.25267 73.4979 5.886C73.2999 5.51933 73.0286 5.226 72.6839 5.006C72.3466 4.786 71.9726 4.676 71.5619 4.676C71.0926 4.676 70.6819 4.786 70.3299 5.006C69.9779 5.21867 69.7066 5.50467 69.5159 5.864C69.3326 6.216 69.2409 6.59733 69.2409 7.008C69.2409 7.47 69.3326 7.89167 69.5159 8.273C69.7066 8.647 69.9779 8.944 70.3299 9.164C70.6819 9.384 71.0926 9.494 71.5619 9.494ZM82.239 4.016C82.7816 4.016 83.273 4.15167 83.713 4.423C84.1603 4.687 84.5123 5.05 84.769 5.512C85.0256 5.974 85.154 6.48 85.154 7.03C85.154 7.60933 85.0256 8.13733 84.769 8.614C84.5123 9.09067 84.1603 9.46833 83.713 9.747C83.273 10.0183 82.7816 10.154 82.239 10.154C81.711 10.154 81.249 10.0367 80.853 9.802C80.457 9.56733 80.1306 9.25933 79.874 8.878V10H79.126V2.146H79.874V5.248C80.1306 4.874 80.457 4.577 80.853 4.357C81.249 4.12967 81.711 4.016 82.239 4.016ZM82.063 9.494C82.5323 9.494 82.943 9.384 83.295 9.164C83.647 8.944 83.9146 8.647 84.098 8.273C84.2886 7.89167 84.384 7.47 84.384 7.008C84.384 6.59733 84.2886 6.216 84.098 5.864C83.9146 5.50467 83.647 5.21867 83.295 5.006C82.943 4.786 82.5323 4.676 82.063 4.676C81.6523 4.676 81.2746 4.786 80.93 5.006C80.5926 5.226 80.325 5.51933 80.127 5.886C79.929 6.25267 79.83 6.645 79.83 7.063C79.83 7.503 79.929 7.91 80.127 8.284C80.3323 8.65067 80.6036 8.944 80.941 9.164C81.2856 9.384 81.6596 9.494 82.063 9.494ZM88.0726 9.67L85.2566 4.17H86.0266L88.4246 8.922L90.6466 4.17H91.3946L87.4566 12.64H86.6866L88.0726 9.67ZM101.307 2.3V3.015H98.5569V10H97.7869V3.015H95.0369V2.3H101.307ZM103.206 4.17V4.918C103.382 4.60267 103.683 4.37167 104.108 4.225C104.541 4.07833 105.036 4.005 105.593 4.005V4.665C105.138 4.665 104.731 4.72733 104.372 4.852C104.013 4.97667 103.73 5.15633 103.525 5.391C103.327 5.61833 103.228 5.87867 103.228 6.172V10H102.458V4.17H103.206ZM111.732 4.17V10H110.962V8.9C110.705 9.28133 110.379 9.58567 109.983 9.813C109.587 10.0403 109.128 10.154 108.608 10.154C108.065 10.154 107.57 10.0183 107.123 9.747C106.683 9.46833 106.334 9.09067 106.078 8.614C105.821 8.13733 105.693 7.60933 105.693 7.03C105.693 6.48 105.821 5.974 106.078 5.512C106.334 5.05 106.683 4.687 107.123 4.423C107.57 4.15167 108.065 4.016 108.608 4.016C109.128 4.016 109.587 4.12967 109.983 4.357C110.379 4.577 110.705 4.87033 110.962 5.237V4.17H111.732ZM108.784 9.439C109.202 9.439 109.579 9.33633 109.917 9.131C110.261 8.91833 110.529 8.63233 110.72 8.273C110.918 7.90633 111.017 7.503 111.017 7.063C111.017 6.645 110.918 6.26 110.72 5.908C110.522 5.54867 110.25 5.26267 109.906 5.05C109.568 4.83733 109.194 4.731 108.784 4.731C108.314 4.731 107.904 4.83733 107.552 5.05C107.2 5.25533 106.928 5.53033 106.738 5.875C106.554 6.21967 106.463 6.59733 106.463 7.008C106.463 7.47 106.554 7.888 106.738 8.262C106.928 8.62867 107.196 8.91833 107.541 9.131C107.893 9.33633 108.307 9.439 108.784 9.439ZM115.805 10.165C115.263 10.165 114.768 10.0293 114.32 9.758C113.873 9.47933 113.517 9.10533 113.253 8.636C112.997 8.15933 112.868 7.63133 112.868 7.052C112.868 6.49467 113 5.985 113.264 5.523C113.528 5.05367 113.884 4.687 114.331 4.423C114.786 4.15167 115.285 4.016 115.827 4.016C116.407 4.016 116.909 4.14433 117.334 4.401C117.767 4.65767 118.097 5.00967 118.324 5.457C118.552 5.90433 118.665 6.403 118.665 6.953C118.665 7.173 118.651 7.37467 118.621 7.558H113.693C113.767 7.932 113.913 8.262 114.133 8.548C114.353 8.82667 114.61 9.043 114.903 9.197C115.204 9.34367 115.508 9.417 115.816 9.417C116.264 9.417 116.656 9.329 116.993 9.153C117.331 8.96967 117.609 8.74967 117.829 8.493L118.434 8.878C118.17 9.32533 117.807 9.65167 117.345 9.857C116.883 10.0623 116.37 10.165 115.805 10.165ZM117.873 6.81C117.807 6.238 117.598 5.754 117.246 5.358C116.902 4.962 116.432 4.764 115.838 4.764C115.472 4.764 115.127 4.84833 114.804 5.017C114.489 5.18567 114.225 5.424 114.012 5.732C113.807 6.04 113.686 6.39933 113.649 6.81H117.873Z" fill="#666F8D" style="fill:#666F8D;fill:color(display-p3 0.4000 0.4353 0.5529);fill-opacity:1;"/>
<g clip-path="url(#clip0_469_10520)">
<mask id="mask0_469_10520" style="mask-type:luminance" maskUnits="userSpaceOnUse" x="41" y="24" width="17" height="16">
<path d="M57.4287 24H41.4287V40H57.4287V24Z" fill="white" style="fill:white;fill-opacity:1;"/>
</mask>
<g mask="url(#mask0_469_10520)">
<path d="M57.1055 24H41.7519C41.5734 24 41.4287 24.1447 41.4287 24.3232V39.6767C41.4287 39.8553 41.5734 40 41.7519 40H57.1055C57.284 40 57.4287 39.8553 57.4287 39.6767V24.3232C57.4287 24.1447 57.284 24 57.1055 24Z" fill="#FF523F" style="fill:#FF523F;fill:color(display-p3 1.0000 0.3216 0.2471);fill-opacity:1;"/>
<path d="M54.5184 35.3193H49.3467V37.0907H54.5184V35.3193Z" fill="white" style="fill:white;fill-opacity:1;"/>
</g>
<path d="M71.3465 29.0175H67.7199V37.0906H65.625V29.0175H62V26.9232H71.3465V29.0175ZM78.6339 26.9232C80.4843 26.9233 81.9983 28.4377 81.9983 30.2882C81.9983 31.6231 81.2116 32.782 80.0787 33.325L82.3298 37.0906H79.8912L77.8354 33.6531H74.4174V31.5599H78.6339C79.3287 31.5598 79.9057 30.983 79.9057 30.2882C79.9057 29.5933 79.3288 29.0165 78.6339 29.0164H74.4174V26.9232H78.6339ZM95.5246 37.0906H93.2974L90.3817 29.9679L87.4659 37.0906H85.2389L89.2684 26.9087H91.495L95.5246 37.0906ZM106.3 37.0906H98.3873V34.9963H106.3V37.0906ZM106.3 33.0549H98.3873V30.9606H106.3V33.0549ZM106.3 26.9232V29.0175H98.3873V26.9232H106.3Z" fill="#17181B" style="fill:#17181B;fill:color(display-p3 0.0902 0.0941 0.1059);fill-opacity:1;"/>
</g>
<defs>
<clipPath id="clip0_469_10520">
<rect width="65.1429" height="16" fill="white" style="fill:white;fill-opacity:1;" transform="translate(41.4287 24)"/>
</clipPath>
</defs>
</svg>
