<svg width="20" height="21" viewBox="0 0 20 21" fill="none" xmlns="http://www.w3.org/2000/svg">
<path fill-rule="evenodd" clip-rule="evenodd" d="M18.3337 10.2362C18.3337 14.8385 14.6027 18.5695 10.0003 18.5695C5.39795 18.5695 1.66699 14.8385 1.66699 10.2362C1.66699 5.63379 5.39795 1.90283 10.0003 1.90283C14.6027 1.90283 18.3337 5.63379 18.3337 10.2362ZM6.47256 6.3473C6.25778 6.3473 6.08367 6.52141 6.08367 6.73619V7.79174C6.08367 8.00652 6.25778 8.18063 6.47256 8.18063H7.52811C7.74289 8.18063 7.917 8.00652 7.917 7.79174V6.73619C7.917 6.52141 7.74289 6.3473 7.52811 6.3473H6.47256ZM9.47256 6.3473C9.25778 6.3473 9.08367 6.52141 9.08367 6.73619V7.79174C9.08367 8.00652 9.25778 8.18063 9.47256 8.18063H10.5281C10.7429 8.18063 10.917 8.00652 10.917 7.79174V6.73619C10.917 6.52141 10.7429 6.3473 10.5281 6.3473H9.47256ZM12.0837 6.73619C12.0837 6.52141 12.2578 6.3473 12.4726 6.3473H13.5281C13.7429 6.3473 13.917 6.52141 13.917 6.73619V7.79174C13.917 8.00652 13.7429 8.18063 13.5281 8.18063H12.4726C12.2578 8.18063 12.0837 8.00652 12.0837 7.79174V6.73619ZM6.47256 9.3473C6.25778 9.3473 6.08367 9.52141 6.08367 9.73619V10.764C6.08367 10.9787 6.25778 11.1529 6.47256 11.1529H7.52811C7.74289 11.1529 7.917 10.9787 7.917 10.764V9.73619C7.917 9.52141 7.74289 9.3473 7.52811 9.3473H6.47256ZM9.08367 9.73619C9.08367 9.52141 9.25778 9.3473 9.47256 9.3473H10.5281C10.7429 9.3473 10.917 9.52141 10.917 9.73619V10.764C10.917 10.9787 10.7429 11.1529 10.5281 11.1529H9.47256C9.25778 11.1529 9.08367 10.9787 9.08367 10.764V9.73619ZM12.4726 9.3473C12.2578 9.3473 12.0837 9.52141 12.0837 9.73619V10.764C12.0837 10.9787 12.2578 11.1529 12.4726 11.1529H13.5281C13.7429 11.1529 13.917 10.9787 13.917 10.764V9.73619C13.917 9.52141 13.7429 9.3473 13.5281 9.3473H12.4726ZM6.08366 13.0973C6.08366 12.8825 6.25777 12.7084 6.47255 12.7084H13.5281C13.7429 12.7084 13.917 12.8825 13.917 13.0973V14.1528C13.917 14.3676 13.7429 14.5417 13.5281 14.5417H6.47255C6.25777 14.5417 6.08366 14.3676 6.08366 14.1528V13.0973Z" fill="#161823" style="fill:#161823;fill:color(display-p3 0.0863 0.0941 0.1373);fill-opacity:1;"/>
</svg>
