<svg width="20" height="21" viewBox="0 0 20 21" fill="none" xmlns="http://www.w3.org/2000/svg">
<path d="M6.625 6.13672C6.625 4.27275 8.13604 2.76172 10 2.76172C11.864 2.76172 13.375 4.27276 13.375 6.13672V10.0867C13.375 11.9507 11.864 13.4617 10 13.4617C8.13604 13.4617 6.625 11.9507 6.625 10.0867V6.13672Z" fill="#161823" style="fill:#161823;fill:color(display-p3 0.0863 0.0941 0.1373);fill-opacity:1;"/>
<path d="M5.125 9.66663C5.125 9.25241 4.78921 8.91663 4.375 8.91663C3.96079 8.91663 3.625 9.25241 3.625 9.66663V10.0833C3.625 13.3504 6.08262 16.0434 9.25 16.4146V17.4584H7.5C7.08579 17.4584 6.75 17.7942 6.75 18.2084C6.75 18.6226 7.08579 18.9584 7.5 18.9584H12.5C12.9142 18.9584 13.25 18.6226 13.25 18.2084C13.25 17.7942 12.9142 17.4584 12.5 17.4584H10.75V16.4146C13.9174 16.0434 16.375 13.3504 16.375 10.0833V9.66663C16.375 9.25241 16.0392 8.91663 15.625 8.91663C15.2108 8.91663 14.875 9.25241 14.875 9.66663V10.0833C14.875 12.7757 12.6924 14.9583 10 14.9583C7.30761 14.9583 5.125 12.7757 5.125 10.0833V9.66663Z" fill="#161823" style="fill:#161823;fill:color(display-p3 0.0863 0.0941 0.1373);fill-opacity:1;"/>
</svg>
