<svg width="28" height="28" viewBox="0 0 28 28" fill="none" xmlns="http://www.w3.org/2000/svg">
<path d="M14 26.25C20.7655 26.25 26.25 20.7655 26.25 14C26.25 7.23451 20.7655 1.75 14 1.75C7.23451 1.75 1.75 7.23451 1.75 14C1.75 20.7655 7.23451 26.25 14 26.25ZM13.2627 7.70434C13.6727 7.29429 14.3375 7.29429 14.7476 7.70434L19.5392 12.496C19.9492 12.906 19.9492 13.5708 19.5392 13.9809C19.1291 14.3909 18.4643 14.3909 18.0543 13.9809L15.05 10.9767V19.9399C15.05 20.5198 14.5799 20.9899 14 20.9899C13.4201 20.9899 12.95 20.5198 12.95 19.9399V10.9868L9.95596 13.9809C9.54591 14.3909 8.88109 14.3909 8.47104 13.9809C8.06099 13.5708 8.06099 12.906 8.47104 12.496L13.2627 7.70434Z" fill="#161823" fill-opacity="0.34" style="fill:#161823;fill:color(display-p3 0.0863 0.0941 0.1373);fill-opacity:0.34;"/>
</svg>
