<svg width="14" height="14" viewBox="0 0 14 14" fill="none" xmlns="http://www.w3.org/2000/svg">
  <path fill-rule="evenodd" clip-rule="evenodd"
    d="M1.16699 5.36649C1.16699 4.97989 1.48039 4.66649 1.86699 4.66649H3.71481C3.95485 4.66649 4.18905 4.59244 4.38547 4.45445L7.0646 2.57229C7.52843 2.24643 8.16699 2.57821 8.16699 3.14507V10.8587C8.16699 11.4258 7.52785 11.7575 7.06407 11.4311L4.38576 9.5458C4.18917 9.40742 3.95463 9.33315 3.71422 9.33315H1.86699C1.48039 9.33315 1.16699 9.01975 1.16699 8.63315V5.36649ZM2.21699 8.28315V5.71649H3.71481C4.17089 5.71649 4.61587 5.5758 4.98906 5.31363L7.11699 3.81869V10.1843L4.99014 8.68718C4.61662 8.42426 4.171 8.28315 3.71422 8.28315H2.21699Z"
    fill="#161823" style="fill:#161823;fill:color(display-p3 0.0863 0.0941 0.1373);fill-opacity:1;" />
  <path
    d="M10.716 3.53502C10.9211 3.33 11.2535 3.33 11.4585 3.53502C11.9135 3.99003 12.2744 4.5302 12.5207 5.1247C12.7669 5.71919 12.8937 6.35637 12.8937 6.99985C12.8937 7.64332 12.7669 8.2805 12.5207 8.875C12.2744 9.46949 11.9135 10.0097 11.4585 10.4647C11.2535 10.6697 10.921 10.6697 10.716 10.4647C10.511 10.2596 10.511 9.92723 10.716 9.72221C11.0735 9.3647 11.3571 8.94028 11.5506 8.47318C11.7441 8.00607 11.8437 7.50544 11.8437 6.99985C11.8437 6.49426 11.7441 5.99362 11.5506 5.52651C11.3571 5.05941 11.0735 4.63499 10.716 4.27748C10.511 4.07246 10.511 3.74005 10.716 3.53502Z"
    fill="#161823" style="fill:#161823;fill:color(display-p3 0.0863 0.0941 0.1373);fill-opacity:1;" />
  <path
    d="M9.27236 4.97873C9.47738 4.7737 9.80979 4.7737 10.0148 4.97873C10.2802 5.24415 10.4908 5.55925 10.6344 5.90604C10.7781 6.25283 10.852 6.62451 10.852 6.99987C10.852 7.37524 10.7781 7.74692 10.6344 8.09371C10.4908 8.4405 10.2802 8.7556 10.0148 9.02102C9.80979 9.22605 9.47738 9.22605 9.27236 9.02102C9.06733 8.816 9.06733 8.48358 9.27236 8.27856C9.44028 8.11064 9.57348 7.91129 9.66436 7.69189C9.75523 7.4725 9.80201 7.23735 9.80201 6.99987C9.80201 6.7624 9.75523 6.52725 9.66436 6.30785C9.57348 6.08846 9.44028 5.88911 9.27236 5.72119C9.06733 5.51616 9.06733 5.18375 9.27236 4.97873Z"
    fill="#161823" style="fill:#161823;fill:color(display-p3 0.0863 0.0941 0.1373);fill-opacity:1;" />
</svg>
